<?xml version="1.0" standalone="no"?>
<!DOCTYPE svg PUBLIC "-//W3C//DTD SVG 1.1//EN" "http://www.w3.org/Graphics/SVG/1.1/DTD/svg11.dtd" >
<svg xmlns="http://www.w3.org/2000/svg" xmlns:xlink="http://www.w3.org/1999/xlink" version="1.1">
<metadata>
Created by FontForge 20161013 at Tue Jul 19 23:01:07 2005
 By ,,,
Copyright (c) 1991 Adobe Systems Incorporated.  All Rights Reserved.Barmeno is a trademark of H. Berthold AG.
</metadata>
<defs>
<font id="Barmeno-ExtraBold" horiz-adv-x="271" >
  <font-face 
    font-family="Barmeno"
    font-weight="400"
    font-stretch="normal"
    units-per-em="1000"
    panose-1="2 0 5 6 5 0 0 2 0 4"
    ascent="800"
    descent="-200"
    x-height="518"
    cap-height="706"
    bbox="-160 -258 1105 969"
    underline-thickness="50"
    underline-position="-150"
    unicode-range="U+0005-2122"
  />
<missing-glyph 
 />
    <glyph glyph-name=".notdef" 
 />
    <glyph glyph-name=".null" horiz-adv-x="0" 
 />
    <glyph glyph-name="nonmarkingreturn" 
 />
    <glyph glyph-name="breve" 
d="M72 706q3 -8 7.5 -17t12 -16.5t18.5 -12t28 -4.5q43 0 60 40q5 15 10.5 24.5t21.5 9.5q12 0 19 -5t10 -12t3.5 -13.5t0.5 -10.5q0 -18 -6.5 -39.5t-21.5 -40.5t-39 -31.5t-58 -12.5q-57 0 -93.5 33.5t-36.5 88.5q0 28 11 35.5t23 7.5q5 0 13.5 -3t16.5 -21z" />
    <glyph glyph-name="dotaccent" 
d="M222 641q1 -12 -2.5 -26t-13.5 -26.5t-27.5 -21t-45.5 -8.5q-43 0 -64 23t-21 52q0 19 7.5 33t20 24t28.5 15t32 5q32 0 57.5 -18t28.5 -52z" />
    <glyph glyph-name="ring" 
d="M235 661q0 -42 -27 -71t-72 -29q-24 0 -43 8.5t-31.5 22.5t-19.5 31.5t-7 36.5t7 37.5t20.5 32t31.5 22t41 8.5q20 0 38 -7t32 -20t22 -31.5t8 -40.5zM174 663q-1 17 -12.5 26.5t-26.5 9.5q-18 0 -28.5 -12t-10.5 -27q0 -17 12.5 -27.5t26.5 -10.5q17 0 28.5 12t10.5 29z
" />
    <glyph glyph-name="hungarumlaut" unicode="&#xa;" 
d="M180 575q-5 -5 -11 -9t-17 -4t-18 5.5t-7 16.5q0 6 2 11t7 12l50 90q8 13 18 24t28 11q17 0 27.5 -11t10.5 -26q0 -11 -6 -20t-12 -16zM54 575q-5 -5 -11 -9t-17 -4t-18 5.5t-7 16.5q0 6 2 11t6 12l51 90q8 13 18 24t28 11q17 0 27.5 -11t10.5 -26q0 -11 -6 -20t-12 -16z
" />
    <glyph glyph-name="ogonek" 
d="M237 52q-6 -11 -15.5 -20t-20.5 -17q-7 -6 -14.5 -11t-15.5 -10q-50 -36 -50 -79q0 -4 1.5 -12t6 -16.5t14 -14.5t24.5 -6q3 0 10 1t15 2t15.5 2t10.5 1q18 0 23.5 -10t5.5 -16q0 -16 -13.5 -27t-33 -18t-40.5 -10t-36 -3q-29 0 -48.5 9.5t-31 23.5t-16.5 31.5t-5 33.5
q0 26 8.5 45t23 34t33.5 27t40 24z" />
    <glyph glyph-name="caron" 
d="M90 685q11 -5 22 -9.5t25 -4.5t25 4.5t21 9.5q18 11 29 17.5t18 10t11.5 4.5t9.5 1q14 0 22.5 -9.5t8.5 -20.5q0 -12 -6.5 -19.5t-12.5 -12.5q-3 -2 -10 -8t-14.5 -12.5t-14.5 -12.5t-9 -8q-4 -4 -16 -16.5t-16 -16.5q-12 -12 -21 -18.5t-23 -6.5q-13 0 -25 7
q-1 0 -6 4.5t-11.5 10t-12 10.5t-6.5 6q-8 7 -23.5 19.5t-29.5 23.5q-23 18 -29.5 26t-6.5 19q0 17 10.5 25.5t22.5 8.5q8 0 14.5 -2.5t12.5 -6.5z" />
    <glyph glyph-name="dotlessi" unicode="&#xd;" 
d="M235 25q0 -17 -8 -21t-17 -4h-153q-16 0 -18.5 8t-2.5 20v464q0 11 4 18.5t21 7.5h150q14 0 19 -5t5 -19v-469z" />
    <glyph glyph-name="fraction" horiz-adv-x="125" 
d="M-64 22q-8 -14 -13.5 -18t-17.5 -4h-49q-3 0 -9.5 1.5t-6.5 9.5q0 5 2 9.5t7 14.5l339 647q6 11 10.5 16.5t15.5 7.5h54q13 0 15 -5.5t2 -7.5q0 -4 -2 -8t-7 -13z" />
    <glyph glyph-name="fi" horiz-adv-x="583" 
d="M244 442v-412q0 -12 -3 -21.5t-18 -8.5h-142q-15 0 -21.5 5t-6.5 22v415h-48q-12 0 -16 3.5t-5 13.5q0 21 0.5 33t2.5 18t6.5 7t12.5 1h47q1 16 2.5 36.5t6 43t12.5 46t23 46.5q24 37 65.5 62.5t92.5 25.5q26 0 44 -7t29 -18t15.5 -24.5t4.5 -27.5q0 -18 -6.5 -30.5
t-16 -20.5t-20.5 -11.5t-20 -3.5q-12 0 -26.5 6t-27.5 6q-18 0 -27.5 -12t-9.5 -28q0 -11 8 -30t42 -59h60q9 0 15 -2.5t6 -13.5v-48q-2 -8 -7 -10t-13 -2h-61zM547 25q0 -17 -8 -21t-17 -4h-153q-16 0 -18.5 8t-2.5 20v464q0 11 4 18.5t21 7.5h150q14 0 19 -5t5 -19v-469z
M539 634q0 -22 -8 -37t-21 -24t-28.5 -13t-30.5 -4q-18 0 -35.5 4.5t-31 14t-22 24t-8.5 34.5q0 13 4.5 27.5t15 26.5t29 19.5t47.5 7.5q24 0 41 -7t27.5 -18.5t15.5 -25.5t5 -29z" />
    <glyph glyph-name="fl" horiz-adv-x="583" 
d="M244 442v-412q0 -12 -3 -21.5t-18 -8.5h-142q-15 0 -21.5 5t-6.5 22v415h-53q-5 1 -8 3t-4.5 7.5t-1.5 16.5v29q0 16 14 19q1 0 7 0.5t14 0.5h16.5h15.5q1 14 2.5 34t5.5 43t12.5 47.5t22.5 47.5q18 30 40.5 47.5t43.5 26.5t38.5 11.5t27.5 2.5q42 0 66.5 -21t24.5 -56
q0 -17 -6 -29.5t-15.5 -20.5t-20.5 -12t-21 -4q-5 0 -12 1t-20 6q-12 5 -19 5q-11 0 -20.5 -10t-9.5 -27q0 -18 12 -39t39 -53h54q9 0 15 -2.5t6 -13.5v-48q-2 -8 -6.5 -10t-12.5 -2h-56zM351 742q0 17 8 20t19 3h140q14 0 20.5 -5t6.5 -20v-714q0 -17 -6.5 -21.5
t-20.5 -4.5h-139q-15 0 -21 4.5t-7 21.5v716z" />
    <glyph glyph-name="Lslash" horiz-adv-x="437" 
d="M40 383v299q1 18 9.5 21t16.5 3h157q12 0 19 -3.5t8 -19.5v-167l93 59q8 5 14 5q8 0 9 -6.5t1 -11.5v-81q0 -18 -3 -24t-18 -15l-96 -61v-236h153q11 0 18.5 -2.5t7.5 -19.5v-99q0 -17 -7.5 -20.5t-18.5 -3.5h-336q-14 0 -20 4.5t-7 21.5v223l-50 -32q-6 -4 -9 -4
q-8 0 -9 7t-1 12v91q0 12 3.5 16.5t15.5 12.5z" />
    <glyph glyph-name="lslash" 
d="M-21 375q0 5 0.5 10.5t3.5 10.5q1 2 8.5 7.5t16.5 12t17.5 12t12.5 8.5v306q1 16 7.5 19.5t19.5 3.5h140q14 0 20.5 -4.5t6.5 -19.5v-176q9 6 22.5 14.5t15.5 9.5q4 3 8 3q9 0 11 -7.5t2 -15.5v-62q0 -13 -2.5 -18.5t-14.5 -13.5l-42 -28v-421q0 -17 -6.5 -21.5
t-20.5 -4.5h-139q-15 0 -21 4.5t-7 21.5v292l-28 -18q-5 -3 -8.5 -5.5t-7.5 -2.5q-11 0 -13 9.5t-2 15.5v58z" />
    <glyph glyph-name="Zcaron" horiz-adv-x="500" 
d="M285 144h168q12 0 18.5 -3.5t6.5 -16.5v-103q1 -14 -6 -17.5t-18 -3.5h-419q-5 0 -15.5 2t-10.5 14q0 4 5 17l200 533h-156q-13 0 -17 4.5t-4 17.5v95q0 17 8.5 20t16.5 3h392q11 0 20.5 -2.5t9.5 -14.5q0 -5 -6 -21zM354 919q7 3 13.5 6t13.5 3q11 0 20.5 -9.5
t9.5 -25.5q0 -14 -7 -22.5t-28 -25.5q-16 -13 -25.5 -22t-17 -16.5t-14.5 -15t-16 -17.5q-10 -11 -17.5 -17t-23.5 -6q-18 0 -26 5.5t-16 13.5l-20.5 20.5t-17 16t-18 15t-22.5 18.5q-19 14 -26 22t-7 23q0 17 10 29t21 12q9 0 24 -10l58 -31q7 -4 15.5 -7.5t20.5 -3.5
q11 0 19.5 3t14.5 7z" />
    <glyph glyph-name="zcaron" horiz-adv-x="417" 
d="M252 103h123q13 0 18.5 -3.5t5.5 -17.5v-60q0 -14 -5.5 -18t-18.5 -4h-341q-9 0 -15.5 3t-6.5 14q0 2 0.5 5.5t5.5 15.5l148 379h-115q-11 0 -14.5 5.5t-3.5 14.5v61q0 8 3 14t17 6h321q8 0 17 -3t9 -17q0 -5 -1 -10t-3 -10zM167 685q11 -5 22 -9.5t25 -4.5t25 4.5
t21 9.5q18 11 29 17.5t18 10t11.5 4.5t9.5 1q14 0 22.5 -9.5t8.5 -20.5q0 -12 -6.5 -19.5t-12.5 -12.5q-3 -2 -10 -8t-14.5 -12.5t-14.5 -12.5t-9 -8q-4 -4 -16 -16.5t-16 -16.5q-12 -12 -21 -18.5t-23 -6.5q-13 0 -25 7q-1 0 -6 4.5t-11.5 10t-12 10.5t-6.5 6
q-8 7 -23.5 19.5t-29.5 23.5q-23 18 -29.5 26t-6.5 19q0 17 10.5 25.5t22.5 8.5q8 0 14.5 -2.5t12.5 -6.5z" />
    <glyph glyph-name="space" unicode=" " 
 />
    <glyph glyph-name="space" unicode="&#xa0;" 
 />
    <glyph glyph-name="exclam" unicode="!" horiz-adv-x="292" 
d="M215 289q-2 -16 -7 -20.5t-18 -4.5h-51q-14 0 -18 6.5t-6 17.5l-59 391q-3 19 3.5 23t20.5 4h176q10 0 14.5 -3t6.5 -7.5t1.5 -9.5t-0.5 -9zM263 92q0 -18 -7 -35.5t-20 -31.5t-31.5 -22.5t-41.5 -8.5t-41.5 8.5t-32 22.5t-21 32t-7.5 38q0 24 9.5 43t24 31.5t32.5 19.5
t35 7q20 0 38.5 -8t32.5 -21.5t22 -33t8 -41.5z" />
    <glyph glyph-name="quotedbl" unicode="&#x22;" horiz-adv-x="396" 
d="M319 408h-31l-55 250q-1 6 -1.5 12t-0.5 13q0 29 21.5 47.5t53.5 18.5q27 0 47 -16.5t20 -45.5v-9t-1 -8zM111 408h-32l-54 250q-1 6 -1.5 12t-0.5 12q0 18 7 30.5t18 20.5t24 12t26 4q28 0 47.5 -16.5t19.5 -45.5q0 -5 -0.5 -9t-0.5 -8z" />
    <glyph glyph-name="numbersign" unicode="#" horiz-adv-x="583" 
d="M559 186h-116l-26 -186h-126l27 186h-99l-26 -186h-124l25 186h-94v124h112l13 95h-100v124h117l25 176h124l-24 -176h99l24 176h125l-24 -176h92v-124h-109l-13 -95h98v-124zM335 310l13 95h-98l-14 -95h99z" />
    <glyph glyph-name="dollar" unicode="$" horiz-adv-x="562" 
d="M310 438q51 -17 96 -36.5t77 -54.5q25 -28 39 -65.5t14 -77.5q0 -41 -14.5 -79.5t-40.5 -67.5q-20 -22 -42.5 -35.5t-45 -21.5t-44 -11.5t-39.5 -5.5v-60q0 -8 -2 -14.5t-13 -6.5h-29q-11 0 -13.5 5.5t-2.5 14.5v61q-65 6 -107.5 27t-67.5 48t-35 55t-10 48q0 36 20.5 60
t55.5 24q19 0 33 -6.5t24 -16.5t17.5 -22.5t13.5 -23.5q10 -18 17.5 -29t13.5 -18.5t11.5 -11.5t13.5 -8v163q-45 14 -89 32t-76 56q-25 29 -38.5 68t-13.5 80q0 47 17 85t46 65t69 42t85 18v64q0 12 6 14.5t39 2.5q10 0 12.5 -3.5t2.5 -11.5v-66q52 -4 90.5 -20t63.5 -38.5
t37.5 -49t12.5 -50.5q0 -23 -8 -38t-19.5 -24t-24.5 -12.5t-24 -3.5q-31 0 -45.5 16t-26.5 38q-8 16 -14 27t-12 18.5t-13 12t-17 8.5v-164zM310 103q6 0 17 2t22.5 9t19.5 21t8 38q0 21 -7 34.5t-17.5 22t-22 13.5t-20.5 8v-148zM250 612q-25 -2 -43.5 -21t-18.5 -55
q0 -23 7 -38t17 -23.5t20.5 -13t17.5 -6.5v157z" />
    <glyph glyph-name="percent" unicode="%" horiz-adv-x="792" 
d="M313 481q0 -74 -15.5 -119t-38 -69t-47.5 -32t-44 -8q-44 0 -80 27.5t-53 84.5q-9 32 -12 64t-3 65q0 17 1.5 38.5t6.5 45t14 47t25 43.5q23 29 49 39.5t51 10.5q21 0 36.5 -5t27 -12t19 -14t10.5 -10q20 -22 30.5 -50.5t15.5 -56t6 -51.5t1 -38zM196 501q-1 49 -3 77.5
t-5.5 43.5t-9 19.5t-12.5 4.5q-11 0 -14.5 -7l-5.5 -11q-3 -9 -5 -25.5t-3 -35t-1 -36v-29.5v-30t1 -37t2 -36.5t4 -29.5q0 -3 1.5 -8t4 -10t7 -9t11.5 -4q8 0 13.5 5t9 22t5 49.5t0.5 86.5zM772 216q0 -74 -15.5 -118.5t-38 -68.5t-47.5 -32t-44 -8q-45 0 -81 27t-53 85
q-9 31 -12 63t-3 65q0 17 1.5 38.5t6.5 45t14 47t25 43.5q23 29 49 39.5t52 10.5q21 0 36.5 -5t27 -12t19 -14t10.5 -10q20 -22 30.5 -50.5t15.5 -56t6 -52t1 -37.5zM655 235q-1 49 -3 78t-6 44t-9.5 19.5t-12.5 4.5q-11 0 -14.5 -7l-5.5 -11q-3 -10 -5 -26.5t-3 -34.5
t-1 -35.5v-29.5v-30t1 -37t2 -36.5t4 -29.5q0 -3 1.5 -8t4.5 -10t7.5 -8.5t11.5 -3.5t13 5t9.5 22t5 48.5t0.5 85.5zM268 22q-8 -14 -13 -18t-17 -4h-49q-4 0 -10 1.5t-6 9.5q0 5 2 9.5t7 15.5l339 646q6 11 10.5 16.5t15.5 7.5q1 0 8.5 0.5t17 0.5h17.5h11q13 0 15 -6t2 -8
q0 -3 -2 -7l-7 -14z" />
    <glyph glyph-name="ampersand" unicode="&#x26;" horiz-adv-x="688" 
d="M403 97q-9 -12 -23.5 -31t-38 -37t-55.5 -31t-75 -13q-49 0 -84.5 16.5t-59 42t-34.5 57t-11 62.5q0 40 13.5 71t36.5 56.5t54.5 48t67.5 46.5q-19 28 -33 50.5t-23.5 42.5t-14 40t-4.5 43q0 46 20.5 77t52 49.5t69.5 26t73 7.5q37 0 72 -8t62 -25.5t43.5 -45.5t16.5 -68
q0 -29 -8.5 -52t-25 -43.5t-40.5 -40t-55 -41.5l55 -73q8 11 22 28t34 33.5t46.5 28.5t58.5 12q31 0 48 -11t24.5 -24.5t9 -25.5t1.5 -14q0 -30 -21.5 -50t-52.5 -20q-5 0 -19.5 1.5t-19.5 1.5q-14 0 -34 -6.5t-39 -29.5l160 -209q8 -10 10.5 -13.5t2.5 -8.5q0 -13 -9 -15
t-14 -2h-153q-13 0 -20.5 0.5t-13 3t-10 8t-11.5 15.5zM255 300q-6 -4 -14.5 -10t-16 -15.5t-13 -22.5t-5.5 -29q0 -18 6.5 -32.5t17 -25t24.5 -16t28 -5.5q3 0 10 0.5t16 3.5t18.5 9.5t18.5 18.5zM338 475q7 4 15.5 11t16 16.5t12.5 22t5 28.5q0 30 -16 46.5t-36 16.5
q-22 0 -34 -15.5t-12 -32.5q0 -24 17 -49t32 -44z" />
    <glyph glyph-name="quotesingle" unicode="'" horiz-adv-x="208" 
d="M121 408h-32l-54 250q-1 6 -1.5 12t-0.5 13q0 33 24 49.5t52 16.5q15 0 25.5 -4t17 -9.5t10.5 -10t5 -5.5q7 -11 7.5 -24t-0.5 -26z" />
    <glyph glyph-name="parenleft" unicode="(" horiz-adv-x="333" 
d="M323 812q-23 -36 -39.5 -68.5t-30.5 -76.5q-23 -73 -33 -148t-10 -152q0 -54 5 -114t15 -113q9 -48 20 -84t22.5 -63t22.5 -46.5t19 -33.5q9 -12 14 -19.5t7.5 -12.5t3.5 -8.5t1 -7.5q0 -12 -9 -21.5t-23 -9.5q-15 0 -36 11.5t-44 30.5t-45.5 42.5t-40.5 46.5
q-56 74 -85 168t-29 225q0 101 25 198t85 179q12 16 32.5 39.5t44 45t47.5 37t43 15.5q20 0 24.5 -11t4.5 -17q0 -8 -3 -16.5t-8 -15.5z" />
    <glyph glyph-name="parenright" unicode=")" horiz-adv-x="333" 
d="M11 -105q23 36 39.5 68.5t30.5 76.5q23 72 33 147.5t10 151.5q0 54 -5 114.5t-15 113.5q-9 48 -20 84t-22.5 63t-22.5 46t-19 33q-17 25 -21 32.5t-4 16.5q0 12 8.5 21t22.5 9q15 0 36 -12t44 -30.5t45.5 -42t40.5 -46.5q55 -73 84.5 -167t29.5 -225q0 -101 -25.5 -198.5
t-84.5 -178.5q-12 -17 -32.5 -40t-44 -45t-47.5 -37t-43 -15t-24 10t-5 17q0 8 3 16.5t8 16.5z" />
    <glyph glyph-name="asterisk" unicode="*" horiz-adv-x="313" 
d="M129 578q3 8 6 17.5t3 16.5q0 8 -5 13.5t-13 5.5t-13 -7t-14 -23q-11 -22 -19.5 -34t-25.5 -12q-34 0 -34 56q0 14 5 22t12 12t14.5 5.5t12.5 1.5q31 2 42 4.5t11 16.5t-11.5 16.5t-30.5 4.5q-11 1 -21 2.5t-17.5 6t-11.5 13t-4 23.5q0 7 0.5 15.5t3.5 16.5t9.5 13.5
t18.5 5.5q15 0 22.5 -8.5t16.5 -24.5q8 -14 17.5 -28t20.5 -14q8 0 12 6.5t4 16.5q0 11 -3 20.5t-7 18.5q-8 20 -9.5 30t-1.5 14q0 17 10 30.5t28 13.5t27.5 -14.5t9.5 -31.5q0 -10 -2.5 -19t-5.5 -19q-3 -7 -7.5 -18.5t-4.5 -24.5q0 -11 3.5 -17.5t13.5 -6.5q9 0 14.5 7
t22.5 35q8 14 15.5 23.5t20.5 9.5q17 0 25.5 -14.5t8.5 -34.5q0 -17 -5 -26.5t-13 -14t-17 -5.5t-18 -1q-14 0 -29.5 -2.5t-15.5 -17.5q0 -14 12.5 -17t32.5 -4q9 0 18 -1.5t17 -6t13 -15t5 -28.5q0 -6 -1.5 -14.5t-6 -16t-11.5 -13t-17 -5.5q-17 0 -24 11t-11 20
q-2 5 -5.5 13t-8.5 15.5t-11 13t-13 5.5t-11 -5t-4 -13t2 -17t4 -14q7 -22 10 -33t3 -20q0 -14 -9.5 -29t-29.5 -15q-19 0 -27.5 13t-8.5 30q0 13 2.5 23.5t8.5 27.5z" />
    <glyph glyph-name="plus" unicode="+" horiz-adv-x="500" 
d="M467 228h-154v-156h-127v156h-152v128h152v154h127v-154h154v-128z" />
    <glyph glyph-name="comma" unicode="," horiz-adv-x="250" 
d="M55 41q-9 13 -15 25t-6 33q0 25 9.5 43.5t23.5 30.5t31 17.5t32 5.5q18 0 36.5 -8t32.5 -23.5t23 -39t9 -54.5q0 -48 -19 -93t-46 -79t-57.5 -54.5t-52.5 -20.5q-15 0 -25.5 10t-10.5 24q0 6 1 10t4 10t8.5 14.5t15.5 22.5q7 11 18 31t11 40q0 16 -6 27t-17 28z" />
    <glyph glyph-name="hyphen" unicode="-" horiz-adv-x="292" 
d="M262 234q0 -14 -4.5 -18.5t-16.5 -4.5h-191q-14 0 -17.5 6t-3.5 17v88q0 10 3.5 15.5t17.5 5.5h189q12 0 17 -3t6 -16v-90z" />
    <glyph glyph-name="period" unicode="." horiz-adv-x="250" 
d="M221 92q0 -18 -7 -35.5t-19 -31.5t-29.5 -22.5t-39.5 -8.5t-40 8.5t-30.5 22.5t-19.5 32t-7 38q0 24 9 43t23 31.5t31 19.5t33 7q19 0 36.5 -8t31 -21.5t21 -33t7.5 -41.5z" />
    <glyph glyph-name="slash" unicode="/" horiz-adv-x="500" 
d="M128 -138q-7 -19 -18 -19q-4 0 -13 3l-70 27q-5 2 -11 6t-6 11t5 17l360 936q5 11 8.5 16t11.5 5q5 0 15 -4l63 -24q5 -2 11 -6t6 -12q0 -6 -3 -12z" />
    <glyph glyph-name="zero" unicode="0" horiz-adv-x="542" 
d="M505 346q0 -45 -4.5 -92.5t-19.5 -95.5q-7 -23 -21.5 -53.5t-39.5 -57.5t-61 -46t-85 -19q-34 0 -66.5 10.5t-60.5 32t-50 55t-36 80.5q-16 51 -20.5 102.5t-4.5 104.5q0 27 2 61.5t10 71.5t22.5 74.5t40.5 69.5q29 36 68 58.5t93 22.5q42 0 80.5 -17t67.5 -49
q32 -35 49 -80.5t25 -90t9.5 -83t1.5 -59.5zM318 377q0 11 -0.5 37.5t-2 57t-4.5 59.5t-8 44q-8 25 -19 29.5t-14 4.5q-17 0 -23.5 -11.5t-8.5 -17.5q-5 -15 -8 -41.5t-4.5 -55.5t-1.5 -57v-47q0 -29 0.5 -70.5t3.5 -83.5q1 -16 2.5 -34.5t6 -35t13 -27.5t23.5 -11
q14 0 22.5 9.5t12.5 24.5t5.5 33t2.5 35q2 50 2.5 85.5t-0.5 72.5z" />
    <glyph glyph-name="one" unicode="1" horiz-adv-x="542" 
d="M227 498q-35 -8 -71 -12t-58 -4q-25 0 -38.5 7t-19.5 15.5t-7 16.5t-1 10q0 23 15 31.5t27 12.5q27 9 54 18.5t55 22.5t57.5 29t62.5 39q25 19 39.5 27t34.5 8q19 0 29 -7t15 -16.5t6 -20t1 -16.5v-630q0 -17 -6.5 -23t-19.5 -6h-149q-6 0 -16 3t-10 20v475z" />
    <glyph glyph-name="two" unicode="2" horiz-adv-x="542" 
d="M287 180h184q15 0 21.5 -4.5t6.5 -19.5v-132q0 -11 -4.5 -17.5t-20.5 -6.5h-415q-5 0 -12 1t-14 4.5t-12 11t-5 21.5q0 13 6 23.5t16 23.5l193 261q20 26 33.5 44.5t22 33t12 27.5t3.5 28q0 16 -5 31.5t-15 27.5t-25 19t-35 7q-21 0 -35.5 -7t-23.5 -16.5t-14.5 -20.5
t-8.5 -19t-7 -17t-10 -16.5t-15.5 -12t-23.5 -4.5q-27 0 -42.5 19t-15.5 58q0 37 15.5 72t45.5 62.5t74.5 44.5t103.5 17q61 0 105 -18t72 -45.5t41 -61.5t13 -66q0 -29 -7.5 -54.5t-19.5 -49t-27.5 -45.5t-31.5 -43z" />
    <glyph glyph-name="three" unicode="3" horiz-adv-x="542" 
d="M388 403q10 -6 29.5 -18.5t38.5 -36t33 -59t14 -86.5q0 -40 -13.5 -80t-44.5 -71.5t-81.5 -51t-123.5 -19.5q-54 0 -95.5 13.5t-70 36t-43 51t-14.5 58.5q0 38 23 62.5t58 24.5q15 0 27 -4.5t20.5 -10.5t14.5 -12.5t10 -11.5q15 -21 25 -35.5t19.5 -23t19 -12t23.5 -3.5
q23 0 39.5 13t16.5 40t-12.5 48t-30.5 36t-37.5 25t-32.5 16q-33 14 -47.5 24t-14.5 30t11.5 29t25.5 16q25 11 45.5 21.5t35.5 22.5t23 27.5t8 37.5q0 25 -8.5 41t-20.5 24.5t-25.5 11.5t-23.5 3q-14 0 -25 -4.5t-19.5 -11.5t-15 -15t-11.5 -15q-13 -17 -24 -28t-31 -11
q-22 0 -38.5 17.5t-16.5 46.5q0 17 9.5 45t35 54.5t68.5 46t111 19.5q56 0 94 -12t63 -31t38.5 -41t19.5 -42.5t7 -35.5t1 -19q0 -32 -10 -55t-23.5 -40t-28.5 -28t-25 -17z" />
    <glyph glyph-name="four" unicode="4" horiz-adv-x="542" 
d="M493 153q-1 -5 -2.5 -10.5t-10.5 -7.5h-40v-112q0 -8 -3 -18.5t-23 -10.5h-137q-15 0 -19.5 6.5t-4.5 17.5v117h-187q-5 0 -15.5 1t-22 7t-20 17.5t-8.5 32.5q0 17 8 31.5t20 33.5l284 419q10 14 25.5 28.5t45.5 14.5q21 0 32.5 -7t17 -16.5t6.5 -19t1 -13.5v-421
q19 0 29.5 -0.5t16 -2t6.5 -5t1 -9.5v-73zM261 243v178l-113 -178h113z" />
    <glyph glyph-name="five" unicode="5" horiz-adv-x="542" 
d="M190 532l-11 -100q17 5 46 10t62 5q41 0 81.5 -13t72 -41.5t51 -73t19.5 -108.5q0 -20 -3.5 -44.5t-14 -50t-28 -49.5t-46 -43t-69 -30.5t-95.5 -11.5q-66 0 -110.5 15.5t-71.5 39t-39 51.5t-12 52q0 23 8 40t20.5 27.5t27.5 15.5t29 5q31 0 47 -15t24 -25q15 -22 25 -36
t19 -22.5t19 -12t24 -3.5q13 0 21 2.5t13 6.5q11 7 18.5 21.5t7.5 35.5q0 34 -14 58t-36 39t-49 21.5t-53 6.5q-3 0 -12 -1t-19 -1.5t-19 -1.5t-13 -1q-23 0 -40 13.5t-17 41.5v11.5t2 15.5l27 301q1 15 6.5 19t19.5 5h340q13 0 17.5 -4t4.5 -17v-128q0 -14 -3.5 -20
t-19.5 -6h-257z" />
    <glyph glyph-name="six" unicode="6" horiz-adv-x="542" 
d="M222 398q12 8 37.5 18t69.5 10q37 0 71 -14t60 -41.5t41.5 -68.5t15.5 -95q0 -52 -18 -93.5t-50 -71t-76.5 -45t-96.5 -15.5q-48 0 -92.5 16t-78.5 49q-42 40 -61 100t-19 139q0 76 19 138.5t49.5 111.5t70.5 85t82 59t83 34.5t75 11.5q39 0 54 -18t15 -36
q0 -23 -13.5 -33t-26.5 -15q-31 -13 -47 -20.5t-32 -15.5q-42 -24 -67 -52t-39 -54.5t-19 -48.5t-7 -35zM210 299q-2 -10 -2.5 -16.5t-0.5 -17.5q0 -5 1.5 -29t8.5 -51.5t22.5 -49.5t43.5 -22q20 0 37.5 17t17.5 54q0 21 -4.5 43t-14 40t-25.5 29.5t-38 11.5q-18 0 -28 -3
t-18 -6z" />
    <glyph glyph-name="seven" unicode="7" horiz-adv-x="542" 
d="M313 532h-248q-17 0 -22.5 6t-5.5 20v122q0 17 7.5 21.5t21.5 4.5h401q5 0 14 -0.5t17.5 -4.5t15 -12.5t6.5 -23.5q0 -5 -0.5 -9t-2.5 -9t-6 -13.5t-11 -21.5q-55 -116 -89 -205t-54 -156.5t-29.5 -115.5t-14.5 -81q-2 -14 -4.5 -24.5t-7 -17t-12 -9.5t-20.5 -3h-147
q-14 0 -26.5 4t-12.5 23q0 8 3 16.5t9 21.5z" />
    <glyph glyph-name="eight" unicode="8" horiz-adv-x="542" 
d="M392 392q21 -17 43 -36t40 -43t29.5 -53.5t11.5 -68.5q0 -23 -8 -58.5t-34 -69t-75.5 -57.5t-132.5 -24q-14 0 -34.5 1t-44 6t-48 15t-46.5 27q-32 25 -50 60.5t-18 77.5q0 36 10.5 63.5t27 49.5t36.5 39.5t40 32.5q-50 43 -71.5 85.5t-21.5 93.5q0 39 13.5 73.5
t41.5 60.5t71.5 41.5t104.5 15.5q106 0 161.5 -43.5t55.5 -121.5q0 -31 -8.5 -55t-22.5 -43.5t-32.5 -36t-38.5 -32.5zM236 283q-29 -24 -37.5 -47t-8.5 -38q0 -16 6.5 -31t17 -27t25 -19t31.5 -7q24 0 44 14.5t20 44.5q0 18 -9 34.5t-23 30t-31.5 25t-34.5 20.5zM296 458
q4 3 11.5 8.5t15 15t13 24t5.5 34.5q0 18 -6.5 32t-17 23.5t-23 14.5t-25.5 5q-23 0 -43 -14t-20 -45q0 -8 1.5 -17.5t10.5 -21.5t27 -26.5t51 -32.5z" />
    <glyph glyph-name="nine" unicode="9" horiz-adv-x="542" 
d="M318 322q-16 -10 -41.5 -21t-70.5 -11q-49 0 -84.5 18.5t-59 49t-34.5 69t-11 78.5q0 37 12.5 76t41.5 71t77 52.5t119 20.5q13 0 31.5 -1t39.5 -6t43.5 -15t44.5 -28q43 -33 66.5 -88t23.5 -141q0 -87 -15 -142t-34 -92q-26 -50 -65.5 -94.5t-85.5 -74.5
q-36 -23 -71 -35.5t-63 -18.5t-45 -7t-18 -1q-24 0 -36.5 8t-18.5 17.5t-7 18t-1 9.5q0 25 17 36t39 20q39 15 73 33t61 44.5t45.5 64t26.5 90.5zM332 441q0 26 -2.5 55.5t-11 54t-24 40.5t-41.5 16q-17 0 -28 -7t-17.5 -17.5t-9.5 -23t-3 -24.5q0 -8 2 -28t11 -40
t27.5 -35.5t51.5 -15.5q17 0 28.5 2t16.5 4v19z" />
    <glyph glyph-name="colon" unicode=":" horiz-adv-x="292" 
d="M263 92q0 -18 -7 -35.5t-19 -31.5t-29.5 -22.5t-39.5 -8.5t-40 8.5t-31 22.5t-20 32t-7 38q0 24 9 43t23.5 31.5t31.5 19.5t33 7q19 0 36.5 -8t31 -21.5t21 -33t7.5 -41.5zM263 385q0 -18 -7 -36t-19 -31.5t-29.5 -22t-39.5 -8.5q-45 0 -71.5 30.5t-26.5 70.5
q0 24 9 42.5t23 31t31 19.5t34 7q19 0 36.5 -8t31 -21.5t21 -32.5t7.5 -41z" />
    <glyph glyph-name="semicolon" unicode=";" horiz-adv-x="292" 
d="M95 41q-8 13 -14 25t-6 33q0 25 9.5 43.5t23.5 30.5t31 17.5t32 5.5q18 0 36.5 -8t32.5 -23.5t23 -39t9 -54.5q0 -48 -19 -93t-46 -79t-57.5 -54.5t-52.5 -20.5q-15 0 -25.5 10t-10.5 24q0 6 1 10t4 10t8.5 14.5t15.5 22.5q7 11 18 31t11 40q0 16 -6 27t-18 28zM271 385
q0 -18 -7 -35.5t-19 -31.5t-30 -22.5t-41 -8.5t-41 8.5t-31 22.5t-20 32t-7 38q0 23 9 41.5t23 31.5t31.5 20t34.5 7q19 0 37 -8t31.5 -22t21.5 -32.5t8 -40.5z" />
    <glyph glyph-name="less" unicode="&#x3c;" horiz-adv-x="500" 
d="M500 69l-499 220v124l499 225v-139l-328 -148l328 -144v-138z" />
    <glyph glyph-name="equal" unicode="=" horiz-adv-x="500" 
d="M500 123h-500v128h500v-128zM500 331h-500v127h500v-127z" />
    <glyph glyph-name="greater" unicode="&#x3e;" horiz-adv-x="500" 
d="M0 69v138l329 144l-329 148v138l500 -224v-124z" />
    <glyph glyph-name="question" unicode="?" horiz-adv-x="458" 
d="M166 401q-1 5 -1 8v7q0 24 11.5 34.5t22.5 15.5q13 7 26.5 15t24 18.5t17.5 24.5t7 34q0 23 -14.5 38.5t-34.5 15.5q-22 0 -30.5 -13.5t-13.5 -26.5q-4 -11 -9.5 -23.5t-14.5 -23t-22.5 -17.5t-32.5 -7q-24 0 -39.5 8.5t-24.5 21.5t-13 27.5t-4 25.5q0 23 12 48t39 45.5
t70.5 33.5t106.5 13q34 0 67 -5t63 -22q36 -20 53.5 -51t17.5 -63q0 -26 -8.5 -46.5t-23 -37.5t-32.5 -31.5t-37 -29.5q-15 -12 -24.5 -21.5t-15.5 -22.5t-10.5 -31.5t-9.5 -48.5q-2 -17 -4 -26.5t-5 -14.5t-7.5 -6.5t-13.5 -1.5h-55q-9 1 -12 5.5t-6 19.5zM335 92
q0 -18 -7 -35.5t-19.5 -31.5t-31 -22.5t-41.5 -8.5t-41.5 8.5t-32 22.5t-20.5 32.5t-7 38.5q0 23 9 41.5t23.5 31.5t32.5 20t35 7q20 0 38 -8t32 -22t22 -33t8 -41z" />
    <glyph glyph-name="at" unicode="@" horiz-adv-x="896" 
d="M826 40q-25 -23 -59.5 -51.5t-79.5 -53.5t-102.5 -42t-128.5 -17q-36 0 -78.5 7t-85.5 23t-83 43t-71.5 67t-50 94.5t-18.5 126.5q0 97 35 183t96.5 151t145.5 103t181 38q80 0 137 -26t93 -67t53 -92.5t17 -103.5q0 -70 -20 -134.5t-53 -114t-76 -79t-88 -29.5
q-22 0 -43.5 8.5t-33.5 25.5q-8 10 -10.5 18.5t-4.5 16.5q-6 -8 -17 -19.5t-26.5 -22t-36 -18.5t-46.5 -8q-22 0 -46 8t-44.5 27.5t-34 52.5t-13.5 82q0 52 16 103t44.5 92t69 66.5t88.5 25.5q24 0 41 -6t29 -15t20 -19.5t14 -19.5l10 39h90l-33 -158q-3 -14 -8 -37
t-9.5 -47.5t-7.5 -47t-3 -35.5q0 -11 5.5 -19t13.5 -8q16 0 38 20.5t42 57t34.5 85.5t14.5 106q0 58 -20 98.5t-52 66t-72 37t-81 11.5q-70 0 -136.5 -30.5t-118 -84t-82.5 -126t-31 -156.5q0 -80 29 -133.5t73.5 -86.5t98 -47t103.5 -14q64 0 115.5 16.5t92 39.5t70 48
t47.5 42zM523 350q0 25 -7.5 41.5t-18 26t-21.5 13.5t-20 4q-27 0 -48.5 -18t-37.5 -46.5t-24.5 -63t-8.5 -67.5q0 -42 19.5 -63t44.5 -21q24 0 46 17.5t39 45t27 62t10 69.5z" />
    <glyph glyph-name="A" unicode="A" horiz-adv-x="604" 
d="M361 106h-179l-20 -80q-4 -14 -10 -20t-23 -6h-105q-10 0 -17 3.5t-7 14.5q0 1 1 5t2.5 8.5t3 8t1.5 4.5l213 636q6 15 12.5 20.5t22.5 5.5h98q18 0 24 -6t11 -20l213 -646q1 -3 2 -6.5t1 -7.5q0 -14 -10 -17t-18 -3h-163q-16 0 -22 5t-10 19zM327 217l-57 213l-54 -213
h111z" />
    <glyph glyph-name="B" unicode="B" horiz-adv-x="583" 
d="M42 651q0 16 3 27.5t20 18.5q18 8 66.5 13.5t110.5 5.5q75 0 130 -7.5t95 -30.5q38 -22 60 -57t22 -86q0 -54 -28 -91t-76 -60q-5 -3 -10.5 -5.5t-10.5 -4.5l10 -2t10 -3q32 -9 56 -27t39.5 -41.5t23.5 -51.5t8 -56q0 -60 -32.5 -106t-89.5 -70q-42 -17 -90 -21.5
t-102 -4.5q-59 0 -109.5 4t-72.5 9q-23 5 -28 17t-5 33v597zM249 417q36 -2 56 7t29.5 24t12 32t2.5 31q0 19 -4.5 34.5t-9.5 24.5q-10 15 -23.5 21.5t-36.5 6.5q-8 0 -13 -0.5t-13 -1.5v-179zM249 121q14 -1 21 -1h9q46 0 64.5 24.5t18.5 63.5q0 23 -4.5 43t-16 35t-30 24
t-45.5 9q-5 0 -9.5 -0.5t-7.5 -0.5v-197z" />
    <glyph glyph-name="C" unicode="C" horiz-adv-x="583" 
d="M405 523q-7 9 -12 17.5t-12 18.5q-12 18 -24.5 29.5t-31.5 11.5q-21 0 -35.5 -16t-24 -41.5t-13.5 -58.5t-4 -66q0 -67 11.5 -124.5t40.5 -95.5q22 -28 46.5 -39.5t47.5 -11.5q27 0 44 10t31 21q17 14 24.5 18t18.5 4q21 0 36.5 -15t15.5 -41q0 -20 -13 -48t-40.5 -53.5
t-70 -43t-101.5 -17.5q-88 0 -148 33t-97 86t-53 120t-16 135q0 94 28 163.5t72.5 115t100.5 67.5t112 22q60 0 103 -16t70.5 -40t40.5 -51.5t13 -49.5q0 -35 -23.5 -58.5t-65.5 -23.5q-26 0 -42 9.5t-29 28.5z" />
    <glyph glyph-name="D" unicode="D" horiz-adv-x="625" 
d="M40 657q0 19 6 26t15 11q10 4 30 8t45 7t52.5 5t52.5 2q17 0 48.5 -1.5t68.5 -10t76 -26.5t72 -51q15 -15 31.5 -38t31 -57t23.5 -79t9 -103q0 -74 -17.5 -131t-45.5 -96q-35 -48 -79.5 -74.5t-89 -39.5t-84 -16t-63.5 -3q-18 0 -40 1t-43.5 3t-41 5t-32.5 8
q-18 7 -21.5 17.5t-3.5 29.5v603zM250 129q37 -1 62.5 9.5t41 35.5t22 66t6.5 102q0 64 -5.5 111.5t-20.5 78t-40.5 44.5t-65.5 11v-458z" />
    <glyph glyph-name="E" unicode="E" horiz-adv-x="479" 
d="M250 292v-147h179q14 0 21.5 -5t7.5 -23v-90q0 -16 -6 -21.5t-23 -5.5h-357q-18 0 -25 6.5t-7 23.5v645q1 17 8 24t25 7h355q14 0 22.5 -3.5t7.5 -21.5v-89q0 -18 -8 -22.5t-22 -4.5h-178v-135h145q14 0 23.5 -4t9.5 -22v-85q0 -18 -8 -22.5t-23 -4.5h-147z" />
    <glyph glyph-name="F" unicode="F" horiz-adv-x="437" 
d="M251 293v-266q0 -17 -6.5 -22t-20.5 -5h-155q-19 0 -23.5 6.5t-5.5 23.5v653q1 14 6.5 19t18.5 5h346q12 0 21 -3.5t9 -20.5v-90q0 -12 -4.5 -19t-19.5 -7h-166v-136h128q17 1 22.5 -3.5t5.5 -19.5v-89q0 -17 -6.5 -21.5t-19.5 -4.5h-130z" />
    <glyph glyph-name="G" unicode="G" horiz-adv-x="625" 
d="M397 278h-53q-17 0 -23 5t-7 22v76q1 15 6.5 20t22.5 5h219q18 0 22.5 -7.5t4.5 -22.5v-256q0 -17 -3.5 -31t-21.5 -33q-42 -42 -99 -58t-116 -16q-45 0 -78 5.5t-59 16.5q-57 22 -93 61.5t-57 86.5t-29 98t-8 96q0 76 20 144.5t60.5 120.5t102.5 83t146 31
q72 0 117.5 -18.5t71.5 -44t36 -52.5t10 -43q0 -35 -24 -58.5t-64 -23.5q-18 0 -31 4.5t-22 11t-15 14.5t-10 15q-21 38 -35.5 54.5t-41.5 16.5q-38 0 -59 -30q-16 -23 -27 -76.5t-11 -123.5q0 -79 11.5 -127t28 -74t35 -34.5t32.5 -8.5t22 6t12 15t5.5 20t1.5 22v88z" />
    <glyph glyph-name="H" unicode="H" horiz-adv-x="625" 
d="M373 292h-122v-265q0 -16 -6 -21.5t-21 -5.5h-154q-15 0 -22.5 4.5t-7.5 22.5v652q0 26 26 27h156q12 0 20.5 -4.5t8.5 -22.5v-250h122v250q0 13 4 20t21 7h159q15 0 21.5 -4.5t6.5 -21.5v-653q0 -17 -6.5 -22t-20.5 -5h-159q-18 0 -22 6.5t-4 20.5v265z" />
    <glyph glyph-name="I" unicode="I" horiz-adv-x="292" 
d="M253 28q0 -21 -10 -24.5t-18 -3.5h-158q-12 0 -20 5t-8 24v651q0 17 6.5 21.5t20.5 4.5h161q17 1 21.5 -6t4.5 -20v-652z" />
    <glyph glyph-name="J" unicode="J" horiz-adv-x="292" 
d="M252 95q0 -24 -1.5 -53t-9 -61t-23.5 -66t-46 -67q-11 -12 -27 -27t-40 -27.5t-55.5 -21.5t-71.5 -9q-13 0 -29 2t-30.5 7.5t-24.5 16.5t-10 29q0 3 0.5 8t3.5 11t9 12t17 10q31 11 54 22t38 31.5t23 56t9 95.5v615q0 12 5.5 20t23.5 7h155q14 0 22 -4.5t8 -22.5v-584z
" />
    <glyph glyph-name="K" unicode="K" horiz-adv-x="583" 
d="M398 409l195 -365q10 -17 10 -24q0 -12 -8.5 -16t-19.5 -4h-168q-18 0 -25 4.5t-15 21.5l-123 271v-266q0 -12 -4.5 -21.5t-22.5 -9.5h-151q-8 0 -17 3t-9 21v655q0 14 5 20.5t21 6.5h152q14 0 20 -5t6 -19v-248l145 248q10 15 15 19.5t22 4.5h127q9 0 16 -3t7 -14
q0 -5 -2 -8.5t-8 -13.5z" />
    <glyph glyph-name="L" unicode="L" horiz-adv-x="437" 
d="M250 145h153q11 0 18.5 -2.5t7.5 -19.5v-99q0 -17 -7.5 -20.5t-18.5 -3.5h-336q-14 0 -20 4.5t-7 21.5v656q1 18 9.5 21t16.5 3h157q12 0 19 -3.5t8 -19.5v-538z" />
    <glyph glyph-name="M" unicode="M" horiz-adv-x="771" 
d="M540 385l-135 -354q-5 -12 -8.5 -19t-7.5 -10t-9.5 -4t-14.5 -1q-17 0 -25 5.5t-16 26.5l-131 356v-355q-1 -16 -7 -23t-23 -7h-95q-17 0 -22 7t-6 23v650q0 20 10 23t18 3h151q20 0 26 -4t14 -23l127 -329l131 332q6 15 12 19.5t22 4.5h151q14 0 21.5 -4t7.5 -22v-652
q1 -20 -8 -23.5t-24 -4.5h-130q-17 0 -23 6.5t-6 24.5v354z" />
    <glyph glyph-name="N" unicode="N" horiz-adv-x="604" 
d="M406 381v303q0 14 6.5 18t19.5 4h103q13 0 21 -4t8 -21v-654q0 -15 -5 -21t-20 -6h-85q-21 0 -28.5 5t-17.5 22l-211 354v-352q0 -15 -4.5 -22t-18.5 -7h-104q-14 0 -21.5 4.5t-7.5 20.5v654q0 11 4.5 19.5t21.5 7.5h115q19 0 28 -5.5t18 -21.5z" />
    <glyph glyph-name="O" unicode="O" horiz-adv-x="646" 
d="M621 368q4 -102 -20.5 -175t-67 -120t-98.5 -69t-114 -22q-68 0 -122.5 26.5t-93 75.5t-59.5 118t-21 154q0 89 23 157.5t63.5 115.5t95.5 71.5t120 24.5q61 0 113 -23t91 -68t63 -112t27 -154zM406 368q-1 42 -4.5 83t-16.5 81q-2 6 -6 15t-11 18t-18 15t-27 6
q-14 0 -28.5 -7t-26.5 -30.5t-19.5 -67t-7.5 -116.5q0 -48 4 -90.5t13.5 -74t26 -50t41.5 -18.5q18 0 29.5 9t19 21t11.5 23.5t5 16.5q11 41 13.5 82.5t1.5 83.5z" />
    <glyph glyph-name="P" unicode="P" horiz-adv-x="562" 
d="M40 657q0 8 1 18t9 17t35 12t58.5 7t61 3t43.5 1q36 0 73.5 -3t72.5 -11.5t66 -24t53.5 -41t36 -62t13.5 -86.5q0 -63 -21 -106.5t-56 -71t-81 -40t-96 -12.5q-14 0 -27.5 0.5t-30.5 1.5v-233q0 -17 -7.5 -21.5t-21.5 -4.5h-155q-17 0 -22 6.5t-5 22.5v628zM251 380
q4 0 10 -0.5t11 -0.5q30 0 46 13.5t23.5 31t8.5 34.5t1 25q0 11 -1.5 29.5t-10 36.5t-25.5 31t-47 13q-5 0 -8.5 -0.5t-7.5 -0.5v-212z" />
    <glyph glyph-name="Q" unicode="Q" horiz-adv-x="646" 
d="M443 0q17 -50 58.5 -86t102.5 -57q23 -8 37.5 -17.5t14.5 -33.5q0 -16 -12.5 -31.5t-43.5 -15.5q-29 0 -68.5 10.5t-81 30t-81 46t-67.5 58.5q-23 26 -32.5 46t-14.5 34q-66 16 -110 53t-71 86.5t-38.5 106.5t-11.5 114q0 81 19 154.5t66 128.5q39 45 94.5 71.5
t121.5 26.5q69 0 122.5 -27.5t91.5 -75.5q25 -32 41 -67.5t25 -71.5t12 -70.5t3 -64.5q0 -88 -19 -148t-46 -99.5t-57.5 -62.5t-54.5 -38zM404 359q0 69 -6 111t-17 68q-2 5 -6 13.5t-10.5 16.5t-16.5 13.5t-25 5.5t-25 -5.5t-17 -13.5t-11 -16.5t-6 -13.5q-8 -21 -13 -50.5
t-7 -58t-2.5 -51t-0.5 -29.5q0 -68 5.5 -114t16 -74t25.5 -40t34 -12q20 0 34 13t23.5 34.5t14.5 49t7.5 55t2.5 53.5v45z" />
    <glyph glyph-name="R" unicode="R" horiz-adv-x="583" 
d="M40 663q1 17 3.5 25t17.5 13q10 3 29 5.5t43.5 5t51.5 3.5t53 1q29 0 71 -2t84.5 -14t80.5 -38t59 -73q11 -24 14 -46.5t3 -41.5q0 -45 -14 -77.5t-33.5 -54.5t-39 -35t-29.5 -19l152 -273q5 -9 7 -13.5t2 -9.5q0 -11 -7.5 -15t-17.5 -4h-160q-20 0 -27.5 5t-15.5 22
l-106 230q-4 10 -9 10q-4 0 -4.5 -2.5t-1.5 -13.5v-223q0 -19 -8 -23.5t-22 -4.5h-148q-17 0 -22.5 6.5t-5.5 20.5v636zM246 360q37 -2 57 10.5t29 30.5t10.5 37t1.5 30q0 73 -22 101t-76 25v-234z" />
    <glyph glyph-name="S" unicode="S" horiz-adv-x="542" 
d="M161 305q-59 36 -94.5 86t-35.5 120q0 56 18.5 96t50.5 66t74.5 38.5t90.5 12.5q71 0 116.5 -18.5t71.5 -44t36 -52t10 -42.5q0 -36 -24.5 -59t-62.5 -23q-19 0 -32 5t-22.5 14t-17 20.5t-14.5 24.5q-11 19 -26.5 38t-39.5 19q-18 0 -28.5 -13.5t-10.5 -36.5
q0 -17 5 -28.5t18 -23.5t35.5 -25.5t58.5 -34.5q33 -19 66 -39.5t58.5 -48t41.5 -65t16 -89.5q0 -69 -26 -112t-64.5 -67t-82 -32.5t-79.5 -8.5q-66 0 -113 18.5t-76 46.5t-42.5 61.5t-13.5 62.5q0 24 9 40.5t22 27t28 15t28 4.5q23 0 39.5 -8.5t29 -21.5t21 -28.5
t16.5 -30.5q10 -22 25 -39t39 -17q16 0 28.5 11.5t12.5 34.5q0 19 -9 37.5t-39 40.5q-3 2 -11 6.5t-17 10t-17 10.5t-11 7z" />
    <glyph glyph-name="T" unicode="T" horiz-adv-x="479" 
d="M346 566v-535q0 -16 -5.5 -23.5t-21.5 -7.5h-154q-19 0 -25 6.5t-6 26.5v533h-104q-18 0 -23.5 6t-5.5 23v85q0 17 8 22t21 5h421q14 0 21 -4.5t7 -20.5v-88q0 -8 -3 -18t-22 -10h-108z" />
    <glyph glyph-name="U" unicode="U" horiz-adv-x="562" 
d="M536 218q-1 -32 -3.5 -63t-14.5 -57q-9 -22 -28 -42.5t-48 -37t-69 -26.5t-92 -10q-47 0 -84 8t-65.5 21.5t-48 31t-30.5 36.5q-11 18 -18.5 47t-7.5 83v472q0 13 5 19t20 6h161q17 0 22.5 -5.5t5.5 -21.5v-446q0 -19 1 -35t8 -27.5t20.5 -18t39.5 -6.5q21 0 33 7.5
t17.5 20t6.5 29t1 34.5v442q0 17 5.5 22t19.5 5h113q17 0 23.5 -4t6.5 -21v-463z" />
    <glyph glyph-name="V" unicode="V" horiz-adv-x="562" 
d="M302 345l95 337q5 15 11 19.5t22 4.5h106q10 1 18.5 -3t8.5 -16q0 -4 -1.5 -8.5t-3.5 -12.5l-201 -636q-6 -18 -11.5 -24t-23.5 -6h-83q-16 0 -22 3.5t-11 19.5l-202 649q-4 15 -4 19q0 12 9 13.5t15 1.5h164q18 0 24.5 -5t11.5 -23z" />
    <glyph glyph-name="W" unicode="W" horiz-adv-x="792" 
d="M396 314l-76 -288q-5 -17 -11 -21.5t-23 -4.5h-76q-17 0 -24.5 4.5t-12.5 20.5l-170 648q-3 7 -3 15q0 14 10 16t16 2h151q17 0 24 -3t11 -23l63 -323l94 327q4 14 8.5 18t16.5 4h52q14 0 18.5 -4.5t9.5 -20.5l86 -324l63 319q5 17 9.5 24t20.5 6h114q8 0 16.5 -2
t8.5 -15q0 -7 -3 -16l-162 -645q-5 -17 -11 -22.5t-20 -5.5h-81q-16 0 -24 4t-14 21z" />
    <glyph glyph-name="X" unicode="X" horiz-adv-x="542" 
d="M252 168l-67 -145q-7 -14 -13.5 -18.5t-23.5 -4.5h-121q-8 0 -17.5 2t-9.5 16q0 4 2 8l10 20l158 297l-149 327q-4 10 -4 17q0 14 10.5 16.5t19.5 2.5h141q20 1 28 -6t16 -22l58 -126l61 126q9 17 16.5 22.5t27.5 5.5h100q6 0 16.5 -2t10.5 -17q0 -6 -2.5 -11.5
t-4.5 -10.5l-144 -278l165 -350q2 -5 4 -9.5t2 -9.5q0 -11 -8.5 -14.5t-18.5 -3.5h-160q-18 0 -26.5 5.5t-16.5 21.5z" />
    <glyph glyph-name="Y" unicode="Y" horiz-adv-x="542" 
d="M377 305v-283q0 -17 -8 -19.5t-16 -2.5h-164q-14 0 -21 4.5t-7 21.5v286l-153 356q-6 13 -6 20q0 11 7.5 15t17.5 3h173q15 0 22.5 -4t14.5 -22l60 -183l70 181q7 17 13.5 23t22.5 5h112q8 0 16.5 -1.5t8.5 -14.5q0 -5 -2 -9.5t-4 -10.5z" />
    <glyph glyph-name="Z" unicode="Z" horiz-adv-x="500" 
d="M285 144h168q12 0 18.5 -3.5t6.5 -16.5v-103q1 -14 -6 -17.5t-18 -3.5h-419q-5 0 -15.5 2t-10.5 14q0 4 5 17l200 533h-156q-13 0 -17 4.5t-4 17.5v95q0 17 8.5 20t16.5 3h392q11 0 20.5 -2.5t9.5 -14.5q0 -5 -6 -21z" />
    <glyph glyph-name="bracketleft" unicode="[" horiz-adv-x="292" 
d="M192 -59h77q5 0 12 -1.5t9 -10.5q1 -2 1 -19.5v-30.5q0 -14 -9 -16.5t-14 -2.5h-206q-9 0 -15.5 3.5t-6.5 17.5v946q1 12 5 16t17 4h206q7 0 15 -2t8 -15q0 -24 -0.5 -37t-2.5 -19t-6.5 -7t-13.5 -1h-76v-825z" />
    <glyph glyph-name="backslash" unicode="\" horiz-adv-x="500" 
d="M403 -154q-9 -3 -13 -3q-11 0 -18 19l-359 944q-3 6 -3 12q0 8 6 12t11 6l63 24q10 4 15 4q12 0 20 -21l360 -936q5 -10 5 -17t-6 -11t-11 -6z" />
    <glyph glyph-name="bracketright" unicode="]" horiz-adv-x="292" 
d="M99 766h-77q-5 0 -12 1.5t-9 10.5q-1 2 -1 19.5v30.5q0 14 9 16.5t14 2.5h206q9 0 15.5 -3.5t6.5 -17.5v-946q-1 -12 -5.5 -16t-16.5 -4h-206q-7 0 -15 2t-8 15q0 24 0.5 37t2.5 19t6.5 7t13.5 1h76v825z" />
    <glyph glyph-name="asciicircum" unicode="^" horiz-adv-x="729" 
d="M615 311h-138l-110 231l-116 -231h-137l203 395h104z" />
    <glyph glyph-name="underscore" unicode="_" horiz-adv-x="500" 
d="M510 -125h-520v50h520v-50z" />
    <glyph glyph-name="grave" unicode="`" 
d="M200 635q10 -13 15.5 -22.5t5.5 -20.5q0 -9 -6.5 -21t-25.5 -12q-16 0 -26 7t-18 15l-74 68q-8 8 -15 17.5t-7 25.5q0 18 12 32.5t33 14.5q17 0 27.5 -8.5t16.5 -15.5z" />
    <glyph glyph-name="a" unicode="a" horiz-adv-x="479" 
d="M445 107q0 -17 -1.5 -33.5t-12.5 -30.5q-3 -3 -13.5 -12.5t-33 -19.5t-57.5 -18t-87 -8q-34 0 -74 4.5t-75 20.5t-58.5 45.5t-23.5 80.5q0 55 28 89.5t67.5 54t84 28.5t77.5 14v54q0 8 -0.5 18t-3.5 18.5t-10 14.5t-19 6q-20 0 -28 -12t-13 -25t-10 -24.5t-13.5 -20.5
t-21.5 -14t-34 -5q-22 0 -37.5 7t-25.5 18t-15 24.5t-5 26.5q0 31 22.5 57.5t60.5 43.5q38 16 78.5 20t82.5 4q47 0 86.5 -10.5t63.5 -46.5q15 -23 18 -45.5t3 -43.5v-280zM266 243q-22 -6 -34 -11.5t-22 -19.5q-6 -8 -9.5 -18t-5.5 -19.5t-2.5 -17.5t-0.5 -12q0 -26 10 -44
t30 -18q13 0 20 6t10 15t3.5 19.5t0.5 19.5v100z" />
    <glyph glyph-name="b" unicode="b" horiz-adv-x="521" 
d="M225 483q8 7 18.5 16t24.5 16.5t32.5 12.5t41.5 5q42 0 72 -19.5t49 -51.5t27.5 -74t8.5 -88q0 -45 -8.5 -92.5t-26.5 -86.5q-23 -51 -55.5 -78.5t-65 -40.5t-60 -15t-41.5 -2q-32 0 -65 5t-61 16q-30 12 -46.5 25.5t-24.5 29t-9.5 32.5t-1.5 35v610q0 15 4.5 21t21.5 6
h138q13 0 20 -3.5t7 -20.5v-258zM225 162q1 -27 4.5 -45t23.5 -18q18 0 29 19t16 45t6.5 53.5t1.5 44.5q0 50 -6 79t-15 43.5t-20 18.5t-21 4q-7 0 -11 -1t-8 -3v-240z" />
    <glyph glyph-name="c" unicode="c" horiz-adv-x="437" 
d="M275 359q-9 24 -18 39.5t-28 15.5q-23 0 -36 -28.5t-13 -66.5q0 -22 6 -49.5t18 -52t30 -41t43 -16.5q29 0 42.5 14.5t21.5 26.5q9 12 17 20.5t22 8.5q22 0 31 -17t9 -39q0 -29 -10 -62t-32.5 -61.5t-58.5 -47t-89 -18.5q-62 0 -102.5 28t-64 69.5t-32.5 88.5t-9 85
q0 14 2.5 41t11 59.5t25 65.5t44.5 59q26 23 62 38t90 15q46 0 77 -14t50 -34t27 -44t8 -43q0 -37 -21.5 -62.5t-55.5 -25.5q-16 0 -36 9t-31 39z" />
    <glyph glyph-name="d" unicode="d" horiz-adv-x="521" 
d="M482 107q-1 -27 -5.5 -47t-30.5 -36q-8 -5 -24.5 -11.5t-40 -12.5t-52 -10.5t-60.5 -4.5q-68 0 -115.5 20.5t-76.5 56t-42 83t-13 102.5q0 61 14.5 113.5t41.5 91.5t65 61t84 22q21 0 34.5 -3.5t28.5 -10.5v218q0 18 9 22t20 4h135q13 0 20.5 -4t7.5 -19v-635zM290 434
q-8 3 -15 3q-20 0 -31.5 -20t-17.5 -47t-7.5 -55t-1.5 -44q0 -19 2 -47.5t8 -55t16 -45.5t25 -19q16 0 19 13.5t3 35.5v281z" />
    <glyph glyph-name="e" unicode="e" horiz-adv-x="479" 
d="M184 234q6 -26 21 -42t32.5 -25t35 -12.5t30.5 -3.5q29 0 45 7.5t27 16.5q17 16 25.5 22t20.5 6q15 0 25.5 -12t10.5 -34q0 -11 -7.5 -39.5t-28 -58t-58 -52.5t-97.5 -23q-16 0 -36.5 2t-43 8.5t-45 18t-41.5 29.5q-7 6 -20 22.5t-26 43.5t-22.5 66t-9.5 91
q0 73 21.5 124.5t55.5 83.5t76 46.5t82 14.5q60 0 98.5 -25t61 -58.5t31.5 -68.5t9 -55q0 -19 -5 -30t-12.5 -17t-16 -8t-15.5 -3zM274 342q-1 10 -2.5 24t-6.5 26.5t-14.5 21t-25.5 8.5q-17 0 -28 -8.5t-17 -22t-8 -30.5t-2 -35z" />
    <glyph glyph-name="f" unicode="f" horiz-adv-x="313" 
d="M244 442v-412q0 -12 -3 -21.5t-18 -8.5h-142q-15 0 -21.5 5t-6.5 22v415h-48q-12 0 -16 3.5t-5 13.5q0 21 0.5 33t2.5 18t6.5 7t12.5 1h47q1 16 2.5 36.5t6 43t12.5 46t23 46.5q24 37 65.5 62.5t92.5 25.5q26 0 44 -7t29 -18t15.5 -24.5t4.5 -27.5q0 -18 -6.5 -30.5
t-16 -20.5t-20.5 -11.5t-20 -3.5q-12 0 -26.5 6t-27.5 6q-18 0 -27.5 -12t-9.5 -28q0 -11 8 -30t42 -59h60q9 0 15 -2.5t6 -13.5v-48q-2 -8 -7 -10t-13 -2h-61z" />
    <glyph glyph-name="g" unicode="g" horiz-adv-x="521" 
d="M446 416q5 -15 8.5 -31t3.5 -40q0 -45 -18.5 -78t-47.5 -54t-66 -31.5t-74 -10.5q-16 0 -28.5 1t-22.5 2q-2 -5 -4 -10.5t-2 -12.5q0 -10 4 -15.5t14.5 -8.5t28 -4t43.5 -2l49 -2q21 -1 56.5 -5t69 -18t58 -42.5t24.5 -78.5q0 -26 -14 -64.5t-50 -73.5t-97 -60t-155 -25
q-32 0 -68.5 4.5t-67.5 17.5t-51.5 36.5t-20.5 60.5q0 21 14.5 48.5t58.5 49.5q-7 3 -16.5 9t-18 16t-14.5 25t-6 36q0 29 20.5 65t74.5 73q-36 15 -55.5 39.5t-28.5 49t-10.5 44.5t-1.5 26q0 26 5.5 47t14.5 37.5t19 28.5t19 20q19 16 56 32t100 16q42 0 69.5 -7t42.5 -13
q20 -7 29.5 -9.5t23.5 -2.5q16 0 32 4q7 1 16.5 3.5t18 4t15 3t8.5 1.5q8 0 10.5 -4.5t4.5 -7.5q3 -13 7 -29.5t4 -19.5q0 -6 -3.5 -9t-13.5 -7zM173 -54q-3 -4 -7 -11t-4 -18q0 -14 9.5 -23t14.5 -13q12 -8 32.5 -13t53.5 -5q28 0 46.5 4.5t29.5 11t15.5 14.5t4.5 16
q0 10 -4.5 16t-16 9t-30.5 4t-48 3q-5 0 -18.5 1t-29 1.5t-29 1.5t-19.5 1zM287 370q-1 3 -4 13t-8.5 21.5t-14.5 20.5t-22 9q-15 0 -25 -14.5t-10 -37.5q0 -7 2.5 -23t8 -32.5t15.5 -29t25 -12.5q3 0 9 1t12 6t11 15.5t5 28.5q0 6 -1 15t-3 19z" />
    <glyph glyph-name="h" unicode="h" horiz-adv-x="542" 
d="M305 335q0 10 -0.5 21.5t-5 21.5t-13.5 16.5t-26 6.5q-9 0 -14.5 -2.5t-10.5 -5.5v-368q-1 -14 -5 -19.5t-19 -5.5h-149q-14 0 -18.5 6.5t-4.5 21.5v716q0 13 6 17t18 4h146q13 0 19.5 -3t6.5 -19v-253q18 12 50 27.5t82 15.5q17 0 44.5 -5.5t53.5 -31.5q27 -28 32 -58
t6 -53v-360q0 -17 -6.5 -21t-20.5 -4h-143q-15 0 -21.5 3.5t-6.5 19.5v312z" />
    <glyph glyph-name="i" unicode="i" 
d="M235 25q0 -17 -8 -21t-17 -4h-153q-16 0 -18.5 8t-2.5 20v464q0 11 4 19t21 7h150q14 0 19 -5t5 -19v-469zM227 634q0 -22 -8 -37t-21 -24t-28.5 -13t-30.5 -4q-18 0 -35.5 4.5t-31 14t-22 24t-8.5 34.5q0 13 4.5 27.5t15 26.5t29 19.5t47.5 7.5q24 0 41 -7t27.5 -18.5
t15.5 -25.5t5 -29z" />
    <glyph glyph-name="j" unicode="j" 
d="M235 73q0 -14 -0.5 -37t-4.5 -51t-12.5 -58t-24.5 -58q-18 -31 -40.5 -52t-47.5 -33.5t-49.5 -17.5t-45.5 -5q-7 0 -18.5 0.5t-23 5t-19.5 14t-8 27.5q0 19 9.5 27.5t15.5 12.5q17 10 33.5 22.5t25.5 35.5q3 8 5 15.5t3 22.5t1.5 42.5t0.5 77.5v430q0 16 6.5 20t21.5 4
h145q15 0 21 -4.5t6 -20.5v-420zM227 634q0 -22 -8 -37t-21 -24t-29 -13t-31 -4q-18 0 -35.5 4.5t-31 14t-21.5 24t-8 34.5q0 13 4.5 27.5t15 26.5t29 19.5t47.5 7.5q24 0 41 -7t27.5 -18.5t15.5 -25.5t5 -29z" />
    <glyph glyph-name="k" unicode="k" horiz-adv-x="542" 
d="M387 321l162 -282l5.5 -11t2.5 -10q0 -14 -10 -16t-17 -2h-166q-14 0 -19.5 3t-12.5 17l-100 207v-206q0 -15 -7 -18t-18 -3h-140q-14 0 -19 6t-5 21l-5 715q0 14 6.5 18.5t20.5 4.5h138q14 0 21.5 -3t7.5 -19v-415l122 166q11 15 19 19.5t28 4.5h101q8 0 17 -2t9 -15
q0 -7 -3.5 -12.5t-8.5 -10.5z" />
    <glyph glyph-name="l" unicode="l" 
d="M38 742q0 17 8 20t19 3h140q14 0 20.5 -4.5t6.5 -19.5v-715q0 -17 -6.5 -21.5t-20.5 -4.5h-139q-15 0 -21 4.5t-7 21.5v716z" />
    <glyph glyph-name="m" unicode="m" horiz-adv-x="833" 
d="M39 410q0 15 0.5 24.5t1.5 16.5t3.5 12t7.5 10q15 17 43 29t59.5 19t60.5 10t46 3q38 0 65 -5t46 -12.5t31.5 -16.5t22.5 -17q41 29 89.5 40t99.5 11q81 0 128.5 -39t49.5 -131v-337q-1 -15 -5.5 -21t-19.5 -6h-143q-17 0 -21.5 7t-4.5 19v331q0 10 -1 21.5t-5 21
t-12.5 15.5t-24.5 6q-17 0 -26.5 -9t-11.5 -14q-3 -8 -4 -17t-1 -29v-325q-1 -14 -5 -20t-21 -6h-139q-16 0 -22.5 5t-6.5 21v331q0 22 -1 31t-6 17t-14.5 13t-19.5 5q-9 0 -18.5 -4.5t-16.5 -12.5q-8 -10 -9 -21t-1 -31v-326q0 -17 -5.5 -22.5t-22.5 -5.5h-141
q-14 0 -19.5 5t-5.5 19v385z" />
    <glyph glyph-name="n" unicode="n" horiz-adv-x="542" 
d="M503 25q0 -17 -6.5 -21t-21.5 -4h-142q-14 -1 -19 5t-5 21v339q0 13 -0.5 25t-4.5 21.5t-11.5 15t-20.5 5.5q-15 0 -23 -6.5t-12 -17t-4.5 -24t-0.5 -27.5v-335q0 -17 -9 -19.5t-21 -2.5h-140q-17 0 -20.5 7t-3.5 21v395q0 25 6 42t33 31q22 12 49.5 19t54.5 11t52 5.5
t43 1.5q13 0 26 -0.5t26 -1.5q29 -2 57.5 -7t51.5 -16q24 -12 37.5 -26.5t20 -29t7.5 -27.5t1 -21v-379z" />
    <glyph glyph-name="o" unicode="o" horiz-adv-x="521" 
d="M499 270q3 -77 -17.5 -131t-55 -88.5t-79 -50t-90.5 -15.5q-44 0 -86.5 15t-75.5 47t-53.5 83.5t-20.5 123.5q0 67 12 107t29 67q37 58 89.5 81.5t109.5 23.5t100.5 -20.5t73.5 -56t46 -83t18 -102.5v-1zM298 274q0 17 -0.5 34.5t-2.5 40.5q-1 10 -2.5 22.5t-5.5 23.5
t-10.5 18.5t-16.5 7.5t-16 -7t-9.5 -17.5t-5.5 -23t-3 -22.5q-2 -14 -2.5 -30.5t-1 -32t-0.5 -27.5v-17q0 -20 0.5 -42.5t4 -42t10.5 -32.5t20 -13q14 0 22.5 12t12.5 33.5t5 51t1 63.5z" />
    <glyph glyph-name="p" unicode="p" horiz-adv-x="521" 
d="M39 426q0 23 1.5 35t9.5 21q4 5 19 14t40.5 17.5t61 14.5t80.5 6q17 0 39 -1.5t45.5 -6.5t47 -15.5t43.5 -28.5q27 -25 51 -76t24 -126q0 -58 -12.5 -111.5t-38 -95t-65 -66t-93.5 -24.5q-24 0 -38.5 4t-23.5 7v-201q0 -11 -3.5 -19t-20.5 -7h-139q-14 0 -21 4.5t-7 20.5
v634zM230 109q4 -2 6.5 -2.5t8.5 -0.5q17 0 26 8t14 20q11 25 14 58.5t3 56.5q0 49 -5 83t-13 54.5t-17.5 29.5t-17.5 9q-14 0 -16.5 -13.5t-2.5 -26.5v-276z" />
    <glyph glyph-name="q" unicode="q" horiz-adv-x="521" 
d="M292 35q-6 -6 -15.5 -14.5t-23 -16.5t-31.5 -13.5t-40 -5.5q-46 0 -76.5 23.5t-49 59t-26.5 77.5t-8 79q0 47 11 101t40.5 100.5t81 77t131.5 30.5q42 0 83.5 -10t75.5 -36q13 -10 20.5 -20.5t11 -22.5t4.5 -27.5t1 -36.5v-589q0 -17 -6 -20t-20 -3h-137q-14 0 -20.5 4
t-6.5 19v244zM292 363q0 27 -3 42t-20 15q-7 0 -15.5 -5t-16.5 -19t-13.5 -39t-5.5 -65q0 -17 1.5 -44t6.5 -53t16 -45t29 -19q8 0 12 2.5t9 6.5v223z" />
    <glyph glyph-name="r" unicode="r" horiz-adv-x="417" 
d="M234 24q0 -16 -5.5 -20t-20.5 -4h-144q-17 0 -21 6t-4 20v407q0 14 1 24.5t7 19t19.5 16.5t37.5 16q21 7 46.5 11.5t50 7.5t46.5 4t37 1q12 0 36 -1.5t49 -11.5t43.5 -32t18.5 -62q0 -32 -17 -55.5t-51 -23.5q-32 0 -44 18.5t-19 41.5q-5 16 -11 24.5t-23 8.5
q-24 0 -28 -12t-4 -28v-376z" />
    <glyph glyph-name="s" unicode="s" horiz-adv-x="437" 
d="M312 311q13 -6 31.5 -17t35.5 -29t29.5 -45t12.5 -64q0 -27 -9 -57t-31.5 -55.5t-60.5 -42t-97 -16.5t-99 14t-64.5 34.5t-35 44t-10.5 43.5q0 14 4.5 28t14 25t23.5 17.5t33 6.5q29 0 44.5 -12.5t21.5 -20.5t10 -15t11 -18q7 -10 17 -22t25 -12q11 0 21 9t10 26
q0 23 -17 35.5t-54 31.5l-43 20q-14 7 -33.5 18t-36.5 29t-29 43.5t-12 61.5q0 21 7.5 49t29 53t61 42t103.5 17q50 0 84.5 -11t55.5 -28t30.5 -38t9.5 -41q0 -27 -17 -49t-50 -22q-16 0 -28 5t-21 12.5t-16 17.5t-13 20q-9 16 -18.5 27.5t-24.5 11.5q-14 0 -21.5 -10.5
t-7.5 -25.5q0 -26 19.5 -39t44.5 -24z" />
    <glyph glyph-name="t" unicode="t" horiz-adv-x="333" 
d="M243 442v-263q0 -16 1.5 -31.5t6.5 -28.5t16.5 -21t31.5 -9q7 0 15.5 -0.5t16 -4t12.5 -11t5 -21.5q0 -13 -11.5 -25t-30 -21.5t-43.5 -15t-52 -5.5q-26 0 -55.5 7t-55.5 30q-31 26 -38.5 59t-7.5 71v290h-49q-11 2 -13 8t-2 11v44q0 13 13 13h51v48q0 14 2.5 20.5
t15.5 12.5l131 58q5 2 8.5 3t8.5 1q17 0 20 -13.5t3 -22.5v-107h59q11 0 17.5 -2.5t6.5 -15.5v-13.5v-14.5t-0.5 -12t-0.5 -6q-2 -9 -8.5 -10.5t-14.5 -1.5h-59z" />
    <glyph glyph-name="u" unicode="u" horiz-adv-x="521" 
d="M487 120q0 -20 -1.5 -34.5t-8.5 -27.5q-9 -18 -31 -31.5t-51 -23t-63.5 -14t-68.5 -4.5q-74 0 -119 13.5t-69 37t-32 54t-8 64.5v342q0 15 8 18.5t18 3.5h141q11 0 19 -3.5t8 -19.5v-330q0 -21 4 -36.5t28 -15.5q22 0 26 15.5t4 36.5v327q1 12 3.5 19t19.5 7h146
q12 0 19.5 -4t7.5 -20v-374z" />
    <glyph glyph-name="v" unicode="v" horiz-adv-x="479" 
d="M261 223l61 274q4 15 10 18t19 3h109q5 0 12.5 -2.5t7.5 -14.5q0 -3 -1.5 -7t-3.5 -12l-134 -460q-4 -13 -8 -17.5t-17 -4.5h-145q-14 0 -18 3.5t-9 17.5l-139 461q-3 10 -4 13.5t-1 5.5q0 10 7 13.5t15 3.5h157q13 0 19 -4t8 -18z" />
    <glyph glyph-name="w" unicode="w" horiz-adv-x="750" 
d="M377 187l-53 -164q-5 -15 -10 -19t-20 -4h-128q-16 0 -21 5.5t-10 21.5l-131 457q-2 8 -3 11.5t-1 6.5q0 11 8.5 13.5t14.5 2.5h151q14 0 20 -3.5t10 -17.5l57 -265l82 267q4 12 9 15.5t17 3.5h58q12 0 16.5 -2.5t9.5 -15.5l82 -268l62 261q3 14 7.5 19.5t18.5 5.5h102
q8 0 16.5 -2t8.5 -14q0 -4 -1 -8t-4 -14l-133 -456q-5 -15 -10.5 -19.5t-17.5 -4.5h-120q-17 0 -23.5 5.5t-11.5 18.5z" />
    <glyph glyph-name="x" unicode="x" horiz-adv-x="479" 
d="M222 112l-60 -93q-9 -14 -14.5 -16.5t-18.5 -2.5h-107q-8 0 -15 3t-7 13q0 8 7 17l139 209l-128 237l-7 14t-2 9q0 12 9 14t14 2h144q15 0 21 -3t15 -19l45 -88l60 88q10 16 15 19t20 3h90q8 0 17 -2t9 -13q0 -8 -8 -19l-127 -199l139 -250q7 -11 7 -19q0 -12 -8.5 -14
t-14.5 -2h-156q-17 0 -22.5 4t-13.5 20z" />
    <glyph glyph-name="y" unicode="y" horiz-adv-x="500" 
d="M315 -64q-11 -30 -25 -62t-36.5 -59t-56 -44.5t-82.5 -17.5q-30 0 -51.5 8.5t-36 21.5t-21 29.5t-6.5 33.5q0 33 22 54t53 21q12 0 20 -3t17 -8q7 -3 13.5 -6t13.5 -3q17 0 25 11t22 37l-181 532q-3 10 -4 14t-1 7q0 12 8 14t15 2h155q15 0 19.5 -3t9.5 -21l64 -271
l71 265q5 19 9.5 24.5t21.5 5.5h105q8 0 16 -2t8 -14q0 -4 -1 -8.5t-3 -10.5z" />
    <glyph glyph-name="z" unicode="z" horiz-adv-x="417" 
d="M252 103h123q13 0 18.5 -3.5t5.5 -17.5v-60q0 -14 -5.5 -18t-18.5 -4h-341q-9 0 -15.5 3t-6.5 14q0 2 0.5 5.5t5.5 15.5l148 379h-115q-11 0 -14.5 5.5t-3.5 14.5v61q0 8 3 14t17 6h321q8 0 17 -3t9 -17q0 -5 -1 -10t-3 -10z" />
    <glyph glyph-name="braceleft" unicode="{" horiz-adv-x="354" 
d="M261 581q0 -30 -0.5 -49.5t-1 -33.5t-1.5 -24t-3 -20q-6 -32 -20.5 -51t-31 -29t-31.5 -13.5t-23 -4.5v-6q7 -1 19 -3t25.5 -9t26.5 -19t24 -32q6 -13 9.5 -26t5 -31t2 -43t0.5 -62v-58q0 -41 1.5 -68t9.5 -42.5t26.5 -22t51.5 -6.5q8 0 12.5 -1.5t6.5 -7.5q1 -3 1 -19.5
v-25.5q0 -14 -6 -16.5t-26 -2.5q-35 0 -70.5 1.5t-65.5 11.5t-52.5 31.5t-31.5 60.5q-2 7 -3 13.5t-1.5 17t-1 28t-0.5 47.5v91q0 32 -1.5 59t-10 47.5t-25 33t-46.5 15.5q-7 1 -11.5 2.5t-6.5 8.5q-1 2 -1 9v37q0 8 1.5 12.5t3.5 7.5q2 2 8.5 4t14.5 3.5t15.5 3t10.5 2.5
q18 8 27.5 23.5t14 36t5.5 45.5t1 52v81q0 30 0.5 47.5t1 28t1.5 17t3 14.5q9 37 30 58t49.5 31.5t62.5 13t69 2.5q27 0 34 -3.5t7 -24.5q0 -33 -2 -39t-14 -6q-35 0 -54 -6t-27.5 -21.5t-10 -42.5t-1.5 -69v-59z" />
    <glyph glyph-name="bar" unicode="|" horiz-adv-x="229" 
d="M178 -250h-127v1000h127v-1000z" />
    <glyph glyph-name="braceright" unicode="}" horiz-adv-x="354" 
d="M93 640q0 42 -1.5 69t-10 42.5t-27.5 21.5t-54 6q-12 0 -14 6t-2 39q0 21 7 24.5t34 3.5q35 0 69 -2.5t62.5 -13t49.5 -31.5t30 -58q2 -8 3 -14.5t1.5 -17t1 -28t0.5 -47.5v-81q0 -27 0.5 -52t5 -45.5t14.5 -36t28 -23.5q3 -1 10.5 -2.5t15.5 -3t14.5 -3.5t8.5 -4
q2 -3 3.5 -7.5t1.5 -12.5v-37t-1 -9q-2 -7 -6.5 -8.5t-11.5 -2.5q-30 -3 -46.5 -15.5t-25 -33t-10 -47.5t-1.5 -59v-91q0 -30 -0.5 -47.5t-1 -28t-1.5 -17t-3 -13.5q-9 -39 -31.5 -60.5t-52.5 -31.5t-65.5 -11.5t-70.5 -1.5q-20 0 -26 2.5t-6 16.5v25.5t1 19.5q2 6 6.5 7.5
t12.5 1.5q33 0 51.5 6.5t26.5 22t9.5 42.5t1.5 68v58q0 37 0.5 62t2 43t5 31t9.5 26q10 20 23.5 32t27 19t25.5 9t19 3v6q-8 1 -23 4.5t-31.5 13.5t-31 29t-20.5 51q-2 10 -3 20t-1.5 24t-1 33.5t-0.5 49.5v59z" />
    <glyph glyph-name="asciitilde" unicode="~" horiz-adv-x="729" 
d="M626 282q-14 -15 -31.5 -30t-38 -27t-42.5 -19t-44 -7q-29 0 -54 9.5t-54 23.5q-36 18 -57.5 26.5t-42.5 8.5q-16 0 -27.5 -3.5t-23 -11.5t-24 -21.5t-29.5 -33.5l-55 103q8 11 21 27.5t31.5 31.5t44 25.5t58.5 10.5q14 0 25.5 -1.5t26 -7t35 -14.5t53.5 -24
q17 -8 37.5 -15.5t38.5 -7.5q30 0 56 20.5t44 41.5z" />
    <glyph glyph-name="exclamdown" unicode="&#xa1;" horiz-adv-x="292" 
d="M76 417q3 16 7.5 20.5t18.5 4.5h51q14 0 18 -6t6 -17l59 -391q3 -19 -4 -23t-21 -5h-176q-9 0 -14 3t-6.5 7.5t-1.5 9.5t1 9zM29 614q0 18 6.5 36t19.5 31.5t31.5 22t41.5 8.5t41.5 -8.5t32 -22.5t21 -32t7.5 -38q0 -24 -9.5 -42.5t-24 -31.5t-32.5 -19.5t-35 -6.5
q-20 0 -38 8t-32 21.5t-22 32.5t-8 41z" />
    <glyph glyph-name="cent" unicode="&#xa2;" horiz-adv-x="458" 
d="M269 154q18 -1 31 0t22 4t16 7.5t14 10.5q18 17 26 22t20 5q15 0 25.5 -12t10.5 -33q0 -26 -13 -57t-32 -54q-17 -20 -34 -31.5t-32.5 -18t-29.5 -9t-24 -3.5v-62q0 -11 -4 -15t-16 -4q-27 0 -33.5 2t-7.5 15v67q-38 8 -72 28.5t-59.5 53.5t-40 79t-14.5 104q0 68 16 118
t42.5 84t59.5 53t68 25v67q0 16 17 16q32 0 38 -2t6 -13v-64q21 0 45.5 -3t53.5 -20q12 -7 25 -17.5t23.5 -24t17.5 -30.5t7 -36q0 -36 -21 -53.5t-44 -17.5q-28 0 -41.5 17t-22.5 34q-9 19 -17.5 30t-25.5 15v-277zM208 429q-15 -4 -25.5 -16.5t-17 -28.5t-9 -34t-2.5 -33
q0 -8 1.5 -25.5t7 -38.5t16 -42t29.5 -36v254z" />
    <glyph glyph-name="sterling" unicode="&#xa3;" horiz-adv-x="646" 
d="M338 334q1 -11 1 -20v-20v-30.5t-1 -23.5q3 -2 12 -8.5t19 -13.5t19 -13t13 -9q18 -12 31.5 -20t23 -12t17.5 -5.5t16 -1.5q17 0 27.5 6t27.5 21q8 6 16.5 11.5t20.5 5.5q21 0 32 -14.5t11 -36.5q0 -7 -5 -34t-20.5 -57t-46 -54t-81.5 -24q-48 0 -92.5 27t-76.5 71
q-8 -14 -19 -31t-27.5 -31.5t-40 -24.5t-54.5 -10q-39 0 -65.5 14t-43 35.5t-23.5 47.5t-7 51q0 59 36 103q16 21 35 32.5t38 17.5t37.5 7.5t35.5 2.5q-4 8 -10.5 22t-8.5 19h-82q-14 0 -18 1.5t-6 9.5v49q0 13 3.5 17t17.5 4h49q-9 33 -14.5 57t-5.5 51q0 47 19 89t57 71
q37 27 78 34.5t73 7.5q49 0 90 -13.5t70 -35.5t45.5 -51t16.5 -59q0 -21 -7.5 -36t-18.5 -24.5t-25 -13.5t-26 -4q-30 0 -45 16.5t-26 37.5q-15 31 -30 50.5t-44 19.5q-17 0 -27 -9t-14.5 -21t-5.5 -24.5t-1 -20.5q0 -18 3 -45.5t13 -76.5h104q7 0 14.5 -2t7.5 -16
q0 -23 -0.5 -35.5t-2.5 -18.5t-6.5 -7.5t-13.5 -1.5h-89zM219 165q-9 6 -22.5 12.5t-26.5 6.5q-15 0 -28 -10.5t-13 -28.5q0 -15 11 -28t31 -13q14 0 22.5 6.5t14 16t8 20t3.5 18.5z" />
    <glyph glyph-name="currency" unicode="&#xa4;" horiz-adv-x="667" 
d="M580 491q9 -16 16.5 -31.5t13 -32.5t9 -38t3.5 -48q0 -29 -3.5 -50.5t-9 -39t-13.5 -33t-17 -31.5l81 -82l-96 -95l-80 82q-32 -17 -65 -29.5t-86 -12.5q-27 0 -48 3.5t-39 9.5t-33.5 14t-30.5 17l-81 -82l-94 95l81 81q-7 11 -14.5 25t-14 32.5t-10.5 42.5t-4 56
q0 26 3.5 46.5t9 37t13 31.5t16.5 31l-79 81l94 95l80 -80q16 9 31.5 16.5t33 13.5t39 9.5t48.5 3.5q28 0 48.5 -3.5t38 -9t32.5 -13.5t32 -17l80 80l96 -95zM497 340q0 40 -15 71t-38.5 52t-52.5 31.5t-58 10.5q-26 0 -55 -9.5t-53 -30t-39.5 -52.5t-15.5 -77q0 -36 14 -66
t37 -51t53 -33t63 -12q34 0 63 13t50.5 35.5t34 53t12.5 64.5z" />
    <glyph glyph-name="yen" unicode="&#xa5;" horiz-adv-x="542" 
d="M381 272h120q8 0 14 -2t8 -10q0 -1 0.5 -8.5t0.5 -16.5v-17.5v-10.5q0 -11 -4 -17t-18 -6h-121v-162q0 -17 -8 -19.5t-16 -2.5h-164q-14 0 -21 4.5t-7 21.5v158h-124q-19 0 -20 15v52q0 10 3 15.5t17 5.5h124v40l-17 39h-107q-19 0 -20 15v52q0 10 3 15.5t17 5.5h70
l-99 229q-6 13 -6 20q0 11 7.5 15t17.5 3h173q15 0 22.5 -4t14.5 -22l60 -183l70 181q7 17 13.5 23t22.5 5h112q8 1 16.5 -1t8.5 -15q0 -5 -2 -9.5t-4 -10.5l-99 -231h62q8 0 14 -2t8 -10q0 -1 0.5 -8.5t0.5 -16.5v-17.5v-10.5q0 -6 -1.5 -13t-11.5 -9q-1 0 -17 -0.5
t-35.5 -0.5h-36.5h-21l-20 -46v-33z" />
    <glyph glyph-name="brokenbar" unicode="&#xa6;" horiz-adv-x="229" 
d="M51 175h127v-350h-127v350zM51 325v350h127v-350h-127z" />
    <glyph glyph-name="section" unicode="&#xa7;" horiz-adv-x="500" 
d="M156 134q-18 9 -41 22t-44 32.5t-35.5 46t-14.5 61.5q0 31 9 54.5t22.5 40.5t29 29t27.5 21q-23 24 -36 54t-13 65q0 43 16.5 74.5t44 51t64 29t75.5 9.5q54 0 91 -12.5t59.5 -31t32.5 -41.5t10 -44q0 -35 -20.5 -57t-52.5 -22q-17 0 -28.5 5t-20 12t-13.5 15.5t-9 15.5
q-13 24 -24.5 39.5t-34.5 15.5q-21 0 -30 -14t-9 -29q0 -16 6 -27.5t19 -21.5t32 -20t45 -23q28 -12 57.5 -27t54 -34.5t40 -45t15.5 -59.5q0 -11 -3 -27t-12.5 -34.5t-27 -37.5t-46.5 -36q7 -6 19.5 -18.5t25 -31.5t21.5 -44.5t9 -57.5q0 -34 -13.5 -65.5t-40 -55.5
t-66 -38t-91.5 -14q-50 0 -89 13t-66 34t-41.5 47.5t-14.5 53.5q0 9 3.5 23.5t12 28t24 23t39.5 9.5q18 0 30 -5.5t21 -14t14.5 -18t10.5 -17.5q13 -25 26.5 -44t39.5 -19q20 0 31 14t11 29q0 19 -9 33t-24 25t-34 20.5t-39 18.5zM306 234q8 6 19.5 18.5t11.5 32.5
q0 25 -20.5 38t-49.5 27q-17 7 -27 11.5t-17.5 8t-15 7.5t-19.5 10q-9 -11 -18 -24t-9 -30q0 -23 18 -36t44 -26q9 -5 31.5 -14.5t51.5 -22.5z" />
    <glyph glyph-name="dieresis" unicode="&#xa8;" 
d="M117 640q1 -11 -2.5 -25t-13.5 -26.5t-27.5 -21t-45.5 -8.5q-43 0 -64 23t-21 52q0 19 8 33t20.5 24t28 15t31.5 5q32 0 57.5 -18.5t28.5 -52.5zM329 640q1 -11 -2.5 -25t-13.5 -26.5t-27.5 -21t-45.5 -8.5q-43 0 -64 23t-21 52q0 19 7.5 33t20 24t28.5 15t32 5
q32 0 57.5 -18t28.5 -53z" />
    <glyph glyph-name="copyright" unicode="&#xa9;" horiz-adv-x="833" 
d="M621 190q-11 -11 -27.5 -26t-39.5 -28t-53.5 -22t-70.5 -9q-68 0 -116 21.5t-79 56.5t-45.5 79.5t-14.5 90.5q0 49 16.5 94.5t48 80.5t78.5 55.5t107 20.5q41 0 72.5 -9t55 -22.5t40 -28t28.5 -26.5l-87 -83q-6 6 -16 14.5t-23.5 16t-30.5 13t-38 5.5q-60 0 -93.5 -36
t-33.5 -93q0 -58 33.5 -94t96.5 -36q19 0 33.5 3.5t26.5 9.5t23 14.5t22 18.5zM773 351q-1 -74 -28.5 -138.5t-75 -112.5t-112.5 -75.5t-140 -27.5q-70 0 -134.5 26t-113.5 73t-78.5 112.5t-29.5 145.5q0 74 28 139t76 113t113 75.5t140 27.5q79 0 144.5 -29.5t112.5 -79
t73 -114.5t25 -135zM741 351q0 64 -23 123t-66 104t-102 72t-131 27q-69 0 -128.5 -25.5t-103.5 -69.5t-69 -103t-25 -126q0 -68 25 -127t69 -102.5t102.5 -69t126.5 -25.5q70 0 129.5 25.5t103 69.5t68 102.5t24.5 124.5z" />
    <glyph glyph-name="ordfeminine" unicode="&#xaa;" horiz-adv-x="313" 
d="M284 449q0 -11 -1 -21t-8 -19q-2 -2 -8.5 -8t-20.5 -12t-36 -11t-54 -5q-24 0 -49.5 3.5t-46.5 13.5t-34.5 28.5t-13.5 48.5q0 35 17.5 56.5t42.5 34t52.5 18t47.5 8.5q0 43 -2.5 56.5t-17.5 13.5q-12 0 -17 -7.5t-8 -15.5q-6 -17 -14.5 -28.5t-34.5 -11.5
q-28 0 -40.5 15.5t-12.5 32.5q0 16 12.5 33.5t39.5 28.5q11 5 34 10t66 5q54 0 80.5 -19.5t26.5 -71.5v-176zM172 535l-16 -6t-14.5 -9.5t-10.5 -18t-4 -29.5q0 -16 6 -27t18 -11q16 0 18.5 13t2.5 25v63z" />
    <glyph glyph-name="guillemotleft" unicode="&#xab;" horiz-adv-x="500" 
d="M457 156l5.5 -11t2.5 -13q0 -15 -9 -24.5t-23 -9.5q-20 0 -38 22q-31 37 -66.5 70.5t-57.5 51.5q-16 12 -23.5 21t-7.5 24q0 18 9.5 28t20.5 18q20 16 52.5 45.5t70.5 71.5q13 16 20 22t20 6q14 0 23.5 -9.5t9.5 -22.5q0 -9 -3 -15.5t-8 -13.5l-52 -88q-5 -8 -9 -18
t-4 -24t4.5 -24.5t10.5 -19.5zM231 156l5.5 -11t2.5 -13q0 -15 -9 -24.5t-23 -9.5q-20 0 -38 22q-31 37 -66.5 70.5t-57.5 51.5q-15 12 -23 21t-8 24q0 18 9.5 28t20.5 18q20 16 52.5 45.5t70.5 71.5q13 16 20 22t20 6q14 0 23.5 -9.5t9.5 -22.5q0 -9 -3 -15.5t-7 -13.5
l-53 -88q-5 -8 -9 -18t-4 -24t4.5 -24.5t10.5 -19.5z" />
    <glyph glyph-name="logicalnot" unicode="&#xac;" horiz-adv-x="667" 
d="M539 227h-539v127h666v-354h-127v227z" />
    <glyph glyph-name="minus" unicode="&#xad;" horiz-adv-x="500" 
d="M500 227h-500v127h500v-127z" />
    <glyph glyph-name="registered" unicode="&#xae;" horiz-adv-x="833" 
d="M413 586q29 0 57 -1.5t51 -9.5q44 -14 62.5 -47.5t18.5 -65.5q0 -26 -8.5 -43.5t-20.5 -29.5t-26 -19.5t-25 -12.5q10 -7 18 -13t14 -15t10.5 -23t8.5 -35q7 -47 14.5 -79.5t24.5 -63.5h-126q-11 21 -15.5 45t-9.5 54q-5 34 -9 52.5t-14 27.5t-28 11t-50 2v-192h-110v458
h163zM360 407h48q25 0 39.5 1.5t24.5 7.5q11 6 15.5 17.5t4.5 22.5q0 22 -12.5 32.5t-32.5 12.5q-3 0 -7 0.5t-13 0.5h-24.5h-42.5v-95zM773 352q0 -74 -28 -139t-76 -113t-113 -75.5t-141 -27.5q-69 0 -133 26t-113 73t-78.5 112.5t-29.5 144.5q0 77 28.5 142t77 112.5
t113 74.5t136.5 27q77 0 142.5 -28.5t113.5 -77.5t74.5 -113.5t26.5 -137.5zM741 352q0 66 -24 125.5t-67.5 103.5t-103 70t-128.5 26t-128 -25.5t-103 -69.5t-69 -103t-25 -126q0 -68 25.5 -127.5t69.5 -103t102.5 -68.5t125.5 -25q69 0 128 25.5t102.5 69t69 102.5
t25.5 126z" />
    <glyph glyph-name="macron" unicode="&#xaf;" 
d="M267 676q6 0 14.5 -2t10.5 -13q0 -1 0.5 -7t0.5 -14.5v-17v-15.5q0 -14 -8.5 -16.5t-16.5 -2.5h-265q-12 0 -18.5 3t-6.5 18v47q0 20 23 20h266z" />
    <glyph glyph-name="degree" unicode="&#xb0;" horiz-adv-x="354" 
d="M177 745q37 0 68.5 -14t54.5 -37.5t36 -55t13 -66.5t-13.5 -66.5t-36.5 -55t-54.5 -37t-67.5 -13.5t-67 13.5t-54.5 37t-37 54.5t-13.5 67q0 35 13 66.5t36 55t54.5 37.5t68.5 14zM178 630q-23 0 -39.5 -16t-16.5 -40q0 -23 16.5 -39t39.5 -16t39 16t16 39q0 24 -16 40
t-39 16z" />
    <glyph glyph-name="plusminus" unicode="&#xb1;" horiz-adv-x="500" 
d="M469 0h-437v127h437v-127zM315 184h-127v156h-156v127h156v155h127v-155h154v-127h-154v-156z" />
    <glyph glyph-name="twosuperior" unicode="&#xb2;" horiz-adv-x="333" 
d="M176 378h116q9 0 13 -3t4 -12v-83q0 -9 -4 -12t-12 -3h-257q-6 0 -17.5 3t-11.5 21q0 8 4 14.5t10 14.5l124 169q12 15 19.5 25.5t12.5 19t7 16.5t2 17q0 18 -12 35.5t-38 17.5t-36.5 -14.5t-14.5 -24.5q-5 -11 -11.5 -21.5t-23.5 -10.5q-12 0 -19.5 5.5t-11 13.5
t-4.5 16.5t-1 13.5q0 22 9.5 44t28 39t46.5 28t65 11q38 0 65 -11t44.5 -28t26 -38t8.5 -42q0 -35 -17 -63.5t-37 -55.5z" />
    <glyph glyph-name="threesuperior" unicode="&#xb3;" horiz-adv-x="333" 
d="M242 517q7 -4 19.5 -12t24 -22.5t20 -36.5t8.5 -54q0 -25 -8.5 -50t-27.5 -44.5t-50.5 -32t-77.5 -12.5q-33 0 -59 8.5t-44 22.5t-27 31.5t-9 36.5q0 26 15.5 40.5t35.5 14.5q21 0 32 -11t18 -21q12 -18 22 -28.5t27 -10.5q12 0 23.5 7t11.5 27q0 17 -8 30t-19.5 22.5
t-23.5 15.5l-20 10q-22 10 -30.5 15.5t-8.5 18.5q0 11 7 17t16 11q30 13 50 26.5t20 41.5q0 16 -5.5 26t-13.5 15t-16 7t-14 2q-18 0 -28.5 -10.5t-15.5 -18.5q-8 -11 -15 -18t-20 -7t-23.5 11t-10.5 30q0 10 6 27.5t21.5 34t42.5 29t70 12.5q52 0 80.5 -16t41.5 -36.5
t15 -39t2 -22.5q0 -20 -6 -34t-14.5 -24.5t-17.5 -17.5t-16 -11z" />
    <glyph glyph-name="acute" unicode="&#xb4;" 
d="M125 581q-8 -8 -18 -15t-25 -7q-20 0 -26.5 12t-6.5 21q0 11 5.5 20.5t15.5 22.5l63 80q6 7 16.5 15.5t27.5 8.5q21 0 32.5 -14.5t11.5 -32.5q0 -16 -7 -25.5t-14 -17.5z" />
    <glyph glyph-name="mu" unicode="&#xb5;" horiz-adv-x="521" 
d="M487 120q0 -20 -1.5 -34.5t-8.5 -27.5q-9 -18 -31 -31.5t-51 -23t-63.5 -14t-68.5 -4.5q-14 0 -22 0.5t-18 0.5v-193q0 -11 -3.5 -18.5t-20.5 -6.5h-136q-17 0 -22.5 5t-5.5 19v704q0 15 8 18.5t18 3.5h141q11 0 19 -3.5t8 -19.5v-330q0 -21 4 -36.5t28 -15.5
q22 0 26 15.5t4 36.5v327q1 12 3.5 19t19.5 7h146q12 0 19.5 -4t7.5 -20v-374z" />
    <glyph glyph-name="paragraph" unicode="&#xb6;" horiz-adv-x="667" 
d="M558 706v-78h-36v-795h-84v795h-118v-795h-84v459q-21 6 -51.5 18.5t-58.5 46.5q-27 33 -36 69.5t-9 65.5q0 23 6 54t23 60q21 36 48.5 56t55 30t52.5 12t42 2h250z" />
    <glyph glyph-name="periodcentered" unicode="&#xb7;" horiz-adv-x="250" 
d="M221 281q0 -18 -7 -36t-19 -31.5t-29.5 -22t-39.5 -8.5t-40 8.5t-30.5 22.5t-19.5 32t-7 38q0 24 9 42.5t23 31t31 19.5t33 7q19 0 36.5 -8t31 -21.5t21 -32.5t7.5 -41z" />
    <glyph glyph-name="periodcentered" unicode="&#x2219;" horiz-adv-x="250" 
d="M221 281q0 -18 -7 -36t-19 -31.5t-29.5 -22t-39.5 -8.5t-40 8.5t-30.5 22.5t-19.5 32t-7 38q0 24 9 42.5t23 31t31 19.5t33 7q19 0 36.5 -8t31 -21.5t21 -32.5t7.5 -41z" />
    <glyph glyph-name="cedilla" unicode="&#xb8;" 
d="M172 9l-12 -87q14 -1 33 -4.5t36 -19.5q15 -14 20.5 -31t5.5 -31q0 -16 -6 -32.5t-19.5 -30t-36 -22.5t-56.5 -9q-10 0 -30.5 2t-40.5 8t-35.5 15.5t-15.5 24.5q0 10 6.5 19.5t18.5 9.5q2 0 5 -0.5t13 -2.5q9 -2 25.5 -4.5t32.5 -2.5q15 0 23.5 4.5t12.5 10t5 10.5t1 7
q0 11 -8 19.5t-23 8.5q-2 0 -10 -0.5t-10 -0.5q-13 0 -14 10.5t-1 16.5l14 112h66z" />
    <glyph glyph-name="onesuperior" unicode="&#xb9;" horiz-adv-x="333" 
d="M139 576q-16 -3 -38 -6.5t-41 -3.5q-16 0 -25 4.5t-13 9.5t-4.5 10t-0.5 6q0 15 9.5 20.5t16.5 7.5q29 10 64.5 24t79.5 44q14 11 23.5 17t22.5 6q12 0 18.5 -4.5t9.5 -10.5t3.5 -12.5t0.5 -10.5v-393q0 -19 -18 -19h-91q-11 0 -14 4t-3 12v295z" />
    <glyph glyph-name="ordmasculine" unicode="&#xba;" horiz-adv-x="333" 
d="M316 552q1 -49 -12 -83t-34.5 -55.5t-49 -31t-55.5 -9.5q-29 0 -55.5 9.5t-47 30t-33 52.5t-12.5 77q0 52 14.5 86t37 53.5t49 27t49.5 7.5q36 0 63.5 -13t46 -35.5t28.5 -52t11 -63.5zM190 554v24.5t-2.5 30.5t-7.5 26t-14 11q-10 0 -13.5 -9.5t-4.5 -14.5
q-2 -10 -3.5 -23.5t-2 -26.5t-0.5 -23.5v-13.5q0 -39 4.5 -60.5t19.5 -21.5q4 0 7 2.5t5 4.5q4 6 6.5 16.5t4 23.5t1.5 27.5v26.5z" />
    <glyph glyph-name="guillemotright" unicode="&#xbb;" horiz-adv-x="500" 
d="M43 420q-4 6 -6 11t-2 13q0 15 9 24.5t23 9.5q18 0 38 -23q31 -36 66.5 -69.5t57.5 -51.5q15 -13 23 -21.5t8 -23.5q0 -18 -10 -28t-20 -18q-20 -16 -52.5 -46t-70.5 -72q-13 -15 -20.5 -21t-19.5 -6q-14 0 -23.5 9t-9.5 23q0 8 3 15t7 14l53 88q5 8 9 17.5t4 23.5
t-5 24.5t-10 20.5zM269 420q-4 6 -6 11t-2 13q0 15 9 24.5t23 9.5q18 0 38 -23q31 -36 66.5 -69.5t57.5 -51.5q15 -13 23 -21.5t8 -23.5q0 -18 -10 -28t-20 -18q-20 -16 -52.5 -46t-70.5 -72q-14 -15 -21 -21t-20 -6q-14 0 -23 9t-9 23q0 8 3 15t7 14l53 88q5 8 9 17.5
t4 23.5t-5 24.5t-10 20.5z" />
    <glyph glyph-name="onequarter" unicode="&#xbc;" horiz-adv-x="792" 
d="M139 576q-16 -3 -38 -6.5t-41 -3.5q-16 0 -25 4.5t-13 9.5t-4.5 10t-0.5 6q0 14 9.5 20t16.5 8q29 10 64.5 24t79.5 44q14 11 23.5 16.5t22.5 5.5q12 0 18.5 -4t9.5 -10t3.5 -12.5t0.5 -10.5v-393q0 -19 -18 -19h-91q-11 0 -14 4t-3 12v295zM732 152q23 0 28 -1.5t5 -9.5
v-27.5v-14t-0.5 -6l-0.5 -1.5q-1 -6 -5 -7t-27 -1v-72q0 -7 -2.5 -11t-13.5 -5h-85q-10 1 -13 3.5t-3 10.5v74h-119q-26 1 -32.5 13.5t-6.5 22.5q0 11 5 20.5t12 20.5l178 262q7 9 16.5 18t27.5 9q13 0 20.5 -4.5t11 -10.5t4 -12t0.5 -10v-261zM620 152v111l-71 -111h71z
M279 21q-8 -14 -13 -17.5t-18 -3.5h-48q-4 0 -10 1.5t-6 9.5q0 5 1.5 9t6.5 15l340 647q6 11 10.5 16.5t15.5 7.5h54q13 0 15 -5.5t2 -7.5q0 -4 -2 -8t-7 -13z" />
    <glyph glyph-name="onehalf" unicode="&#xbd;" horiz-adv-x="792" 
d="M139 576q-16 -3 -38 -6.5t-41 -3.5q-16 0 -25 4.5t-13 9.5t-4.5 10t-0.5 6q0 15 9.5 20.5t16.5 8.5q29 9 64.5 23.5t79.5 43.5q14 11 23.5 17t22.5 6q12 0 18.5 -4.5t9.5 -10.5t3.5 -12.5t0.5 -10.5v-392q0 -20 -18 -20h-91q-11 1 -14 4.5t-3 11.5v295zM634 113h116
q9 0 13 -3t4 -12v-83q0 -9 -4 -12t-12 -3h-257q-6 0 -17.5 3t-11.5 21q0 8 4 14.5t10 14.5l124 169q12 15 19.5 25.5t12.5 19t7 16.5t2 17q0 18 -12 35.5t-38 17.5t-36.5 -14.5t-14.5 -24.5q-5 -11 -11.5 -21.5t-23.5 -10.5q-12 0 -19.5 5.5t-11 13.5t-4.5 16.5t-1 13.5
q0 22 9.5 44t28 39t46.5 28t65 11q38 0 65 -11t44.5 -28t26 -38t8.5 -42q0 -35 -17 -63.5t-37 -55.5zM258 22q-8 -14 -13 -18t-18 -4h-48q-4 0 -10 1.5t-6 9.5q0 5 2 9.5t7 14.5l339 647q6 11 10.5 16.5t15.5 7.5h53q13 0 15 -5.5t2 -7.5q0 -4 -1.5 -7.5t-6.5 -13.5z" />
    <glyph glyph-name="threequarters" unicode="&#xbe;" horiz-adv-x="792" 
d="M242 518q7 -4 19.5 -12t24 -22.5t20 -36.5t8.5 -54q0 -25 -8.5 -50t-27.5 -44.5t-50.5 -32t-77.5 -12.5q-33 0 -59 8.5t-44 22.5t-27 31.5t-9 36.5q0 26 15.5 40.5t35.5 14.5q21 0 32 -11t18 -21q12 -18 22 -28.5t27 -10.5q12 0 23.5 7t11.5 27q0 17 -8 30t-19.5 22.5
t-23.5 15.5l-20 10q-22 10 -30.5 15.5t-8.5 18.5q0 11 7 17t16 11q30 13 50 26.5t20 41.5q0 16 -5.5 26t-13.5 15t-16 7t-14 2q-18 0 -28.5 -10.5t-15.5 -18.5q-8 -11 -15 -17.5t-20 -6.5t-23.5 10.5t-10.5 29.5q0 10 6 27.5t21.5 34t42.5 29t70 12.5q52 0 80.5 -16
t41.5 -36.5t15 -38.5t2 -22q0 -20 -6 -34.5t-14.5 -25t-17.5 -17.5t-16 -11zM732 152q23 0 28 -1.5t5 -9.5v-27.5v-14t-0.5 -6l-0.5 -1.5q-1 -6 -5 -7t-27 -1v-72q0 -7 -2.5 -11t-13.5 -5h-85q-10 1 -13 3.5t-3 10.5v74h-118q-27 1 -33.5 13.5t-6.5 22.5q0 11 5 20.5
t12 20.5l178 263q7 9 16.5 17.5t27.5 8.5q13 0 20.5 -4.5t11 -10.5t4 -12t0.5 -9v-262zM620 152v111l-71 -111h71zM290 21q-8 -14 -13 -17.5t-18 -3.5h-48q-4 0 -10 1.5t-6 9.5q0 5 2 9t7 15l339 647q6 11 10.5 17t15.5 7q1 0 8.5 0.5t17 0.5h17.5h11q13 0 15 -6t2 -8
q0 -3 -2 -7l-7 -14z" />
    <glyph glyph-name="questiondown" unicode="&#xbf;" horiz-adv-x="458" 
d="M293 305q1 -5 1 -15q0 -24 -11.5 -34.5t-22.5 -15.5q-13 -7 -26.5 -15t-24 -18.5t-17.5 -25t-7 -33.5q0 -23 14.5 -38.5t34.5 -15.5q22 0 30.5 13.5t13.5 26.5q4 11 9.5 23.5t14.5 23t22.5 17.5t32.5 7q24 0 39.5 -9t24.5 -21.5t13 -27t4 -25.5q0 -23 -12 -48t-39 -45.5
t-70.5 -33.5t-106.5 -13q-34 0 -67 5t-63 22q-36 20 -53.5 51t-17.5 63q0 26 8.5 46.5t22.5 37.5t32 31.5t37 29.5q15 12 24.5 21.5t15.5 22.5t10.5 31.5t9.5 48.5q4 33 8.5 41t21.5 8h55q9 -1 12 -5.5t6 -19.5zM123 614q0 18 7 36t20 31.5t31 22t41 8.5t41.5 -8.5t32 -22.5
t20.5 -32t7 -38q0 -23 -9 -41.5t-23.5 -31.5t-32.5 -20t-35 -7q-20 0 -38 8t-32 21.5t-22 32.5t-8 41z" />
    <glyph glyph-name="Agrave" unicode="&#xc0;" horiz-adv-x="604" 
d="M361 106h-179l-20 -80q-4 -14 -10 -20t-23 -6h-105q-10 0 -17 3.5t-7 14.5q0 1 1 5t2.5 8.5t3 8t1.5 4.5l213 636q6 15 12.5 20.5t22.5 5.5h98q18 0 24 -6t11 -20l213 -646q1 -3 2 -6.5t1 -7.5q0 -14 -10 -17t-18 -3h-163q-16 0 -22 5t-10 19zM327 217l-57 213l-54 -213
h111zM343 829q2 -2 7 -11t5 -23q0 -20 -11.5 -29t-24.5 -9q-12 0 -21 5.5t-16 11.5l-72 60q-11 10 -23 24t-12 37q0 20 12.5 38t36.5 18q17 0 27 -8.5t16 -15.5z" />
    <glyph glyph-name="Aacute" unicode="&#xc1;" horiz-adv-x="604" 
d="M361 106h-179l-20 -80q-4 -14 -10 -20t-23 -6h-105q-10 0 -17 3.5t-7 14.5q0 1 1 5t2.5 8.5t3 8t1.5 4.5l213 636q6 15 12.5 20.5t22.5 5.5h98q18 0 24 -6t11 -20l213 -646q1 -3 2 -6.5t1 -7.5q0 -14 -10 -17t-18 -3h-163q-16 0 -22 5t-10 19zM327 217l-57 213l-54 -213
h111zM347 774q-8 -6 -16.5 -11.5t-20.5 -5.5q-13 0 -25 9t-12 29q0 14 5.5 23t7.5 11l76 98q5 7 15 15.5t27 8.5q25 0 37 -18t12 -38q0 -23 -11.5 -37t-22.5 -24z" />
    <glyph glyph-name="Acircumflex" unicode="&#xc2;" horiz-adv-x="604" 
d="M361 106h-179l-20 -80q-4 -14 -10 -20t-23 -6h-105q-10 0 -17 3.5t-7 14.5q0 1 1 5t2.5 8.5t3 8t1.5 4.5l213 636q6 15 12.5 20.5t22.5 5.5h98q18 0 24 -6t11 -20l213 -646q1 -3 2 -6.5t1 -7.5q0 -14 -10 -17t-18 -3h-163q-16 0 -22 5t-10 19zM327 217l-57 213l-54 -213
h111zM207 760q-7 -3 -13.5 -6t-13.5 -3q-11 0 -20.5 9.5t-9.5 25.5q0 14 7.5 22.5t27.5 25.5q16 13 25.5 21.5t17 16t14 15t16.5 18.5t17.5 17t23.5 6q18 0 26.5 -5.5t16.5 -13.5q11 -12 19.5 -20.5t17 -16t18 -15t23.5 -18.5q18 -14 25 -22t7 -23q0 -17 -10 -29t-21 -12
q-9 0 -24 10l-58 31q-7 4 -15.5 7.5t-20.5 3.5q-11 0 -19.5 -3t-14.5 -7z" />
    <glyph glyph-name="Atilde" unicode="&#xc3;" horiz-adv-x="604" 
d="M361 106h-179l-20 -80q-4 -14 -10 -20t-23 -6h-105q-10 0 -17 3.5t-7 14.5q0 1 1 5t2.5 8.5t3 8t1.5 4.5l213 636q6 15 12.5 20.5t22.5 5.5h98q18 0 24 -6t11 -20l213 -646q1 -3 2 -6.5t1 -7.5q0 -14 -10 -17t-18 -3h-163q-16 0 -22 5t-10 19zM327 217l-57 213l-54 -213
h111zM295 788q-14 7 -26 11.5t-23 4.5q-10 0 -15.5 -4t-19.5 -16q-8 -7 -14.5 -11.5t-17.5 -4.5q-3 0 -9 1.5t-11.5 5.5t-9.5 12t-4 21q0 14 4.5 32t16 33.5t30 26.5t45.5 11q7 0 13 -1t13 -3.5t17.5 -7t27.5 -12.5q18 -8 28.5 -12.5t20.5 -4.5q13 0 21.5 5t13.5 10
q16 14 22.5 19t17.5 5q20 0 25 -14t5 -23q0 -17 -6 -35t-18 -33.5t-31 -25.5t-45 -10q-9 0 -16 1t-14.5 3.5t-17 6t-23.5 9.5z" />
    <glyph glyph-name="Adieresis" unicode="&#xc4;" horiz-adv-x="604" 
d="M361 106h-179l-20 -80q-4 -14 -10 -20t-23 -6h-105q-10 0 -17 3.5t-7 14.5q0 1 1 5t2.5 8.5t3 8t1.5 4.5l213 636q6 15 12.5 20.5t22.5 5.5h98q18 0 24 -6t11 -20l213 -646q1 -3 2 -6.5t1 -7.5q0 -14 -10 -17t-18 -3h-163q-16 0 -22 5t-10 19zM327 217l-57 213l-54 -213
h111zM282 840q1 -14 -3 -29t-15 -28t-29 -21t-44 -8q-41 0 -68 19.5t-27 57.5q0 36 25.5 58t68.5 22q41 0 65.5 -19.5t26.5 -51.5zM509 840q1 -14 -3.5 -29t-15 -28t-28.5 -21t-45 -8q-40 0 -67.5 19.5t-27.5 57.5q0 36 25.5 58t69.5 22q40 0 64.5 -19.5t27.5 -51.5z" />
    <glyph glyph-name="Aring" unicode="&#xc5;" horiz-adv-x="604" 
d="M361 106h-179l-20 -80q-4 -14 -10 -20t-23 -6h-105q-10 0 -17 3.5t-7 14.5q0 1 1 5t2.5 8.5t3 8t1.5 4.5l213 636q6 15 12.5 20.5t22.5 5.5h98q18 0 24 -6t11 -20l213 -646q1 -3 2 -6.5t1 -7.5q0 -14 -10 -17t-18 -3h-163q-16 0 -22 5t-10 19zM327 217l-57 213l-54 -213
h111zM414 861q1 -23 -6.5 -43.5t-22 -36t-35 -24.5t-45.5 -9q-26 0 -46.5 9t-35 24.5t-22.5 35.5t-8 42q0 25 9.5 45.5t25.5 35t35.5 22t40.5 7.5q20 0 39.5 -7.5t35 -21t25 -34t10.5 -45.5zM347 860q-1 20 -14.5 31t-29.5 11q-19 0 -31 -13t-12 -32q0 -22 14.5 -32
t28.5 -10q20 0 32.5 13t11.5 32z" />
    <glyph glyph-name="AE" unicode="&#xc6;" horiz-adv-x="792" 
d="M576 145h180q15 0 20 -5t5 -18v-100q1 -14 -5.5 -18t-17.5 -4h-339q-12 0 -18 4.5t-9 18.5l-16 84h-175l-31 -85q-6 -15 -11.5 -18.5t-19.5 -3.5h-114q-8 0 -16.5 2t-8.5 13q0 3 1.5 6.5t6.5 15.5l278 649q5 14 12 17t21 3h363q14 0 20 -4.5t6 -18.5v-93
q0 -15 -6.5 -19.5t-21.5 -4.5h-190l27 -136h164q14 1 20.5 -3t6.5 -19v-92q0 -16 -6 -20t-20 -4h-138zM353 219l-39 193l-72 -193h111z" />
    <glyph glyph-name="Ccedilla" unicode="&#xc7;" horiz-adv-x="583" 
d="M285 -14q-11 1 -32 5.5t-46.5 16t-53 30.5t-51.5 51q-21 26 -35.5 59t-23.5 68t-13.5 71t-4.5 69q0 94 28 163.5t72.5 115t100 67.5t111.5 22q61 0 104 -16t70.5 -40t40.5 -51.5t13 -49.5q0 -35 -24 -58.5t-65 -23.5q-17 0 -29 4t-21.5 11.5t-18 19t-19.5 26.5
q-15 25 -29 39.5t-35 14.5q-20 0 -34.5 -16t-23.5 -41.5t-13.5 -58.5t-4.5 -66q0 -67 12 -124.5t41 -95.5q21 -28 45.5 -39.5t47.5 -11.5q27 0 44 10t30 21q18 14 25 18t19 4q21 0 36 -15t15 -41q0 -18 -11 -44.5t-36.5 -52t-66.5 -44.5t-100 -21l-8 -60q14 -1 33 -4.5
t36 -19.5q15 -14 20.5 -31t5.5 -31q0 -16 -6 -32.5t-19.5 -30t-36 -22.5t-56.5 -9q-10 0 -30.5 2t-40.5 8t-35.5 15.5t-15.5 24.5q0 10 6.5 19.5t18.5 9.5q2 0 5 -0.5t13 -2.5q14 -3 29 -5t29 -2q15 0 23.5 4.5t12.5 9.5t5 10t1 7q0 11 -8 20t-24 9q-2 0 -9.5 -0.5
t-9.5 -0.5q-13 0 -14 10.5t0 15.5z" />
    <glyph glyph-name="Egrave" unicode="&#xc8;" horiz-adv-x="479" 
d="M250 292v-147h179q14 0 21.5 -5t7.5 -23v-90q0 -16 -6 -21.5t-23 -5.5h-357q-18 0 -25 6.5t-7 23.5v645q1 17 8 24t25 7h355q14 0 22.5 -3.5t7.5 -21.5v-89q0 -18 -8 -22.5t-22 -4.5h-178v-135h145q14 0 23.5 -4t9.5 -22v-85q0 -18 -8 -22.5t-23 -4.5h-147zM280 829
q2 -2 7 -11t5 -23q0 -20 -11.5 -29t-24.5 -9q-12 0 -21 5.5t-16 11.5l-72 60q-11 10 -23 24t-12 37q0 20 12.5 38t36.5 18q17 0 27 -8.5t16 -15.5z" />
    <glyph glyph-name="Eacute" unicode="&#xc9;" horiz-adv-x="479" 
d="M250 292v-147h179q14 0 21.5 -5t7.5 -23v-90q0 -16 -6 -21.5t-23 -5.5h-357q-18 0 -25 6.5t-7 23.5v645q1 17 8 24t25 7h355q14 0 22.5 -3.5t7.5 -21.5v-89q0 -18 -8 -22.5t-22 -4.5h-178v-135h145q14 0 23.5 -4t9.5 -22v-85q0 -18 -8 -22.5t-23 -4.5h-147zM284 774
q-8 -6 -16.5 -11.5t-20.5 -5.5q-13 0 -25 9t-12 29q0 14 5.5 23t7.5 11l76 98q5 7 15 15.5t27 8.5q25 0 37 -18t12 -38q0 -23 -11.5 -37t-22.5 -24z" />
    <glyph glyph-name="Ecircumflex" unicode="&#xca;" horiz-adv-x="479" 
d="M250 292v-147h179q14 0 21.5 -5t7.5 -23v-90q0 -16 -6 -21.5t-23 -5.5h-357q-18 0 -25 6.5t-7 23.5v645q1 17 8 24t25 7h355q14 0 22.5 -3.5t7.5 -21.5v-89q0 -18 -8 -22.5t-22 -4.5h-178v-135h145q14 0 23.5 -4t9.5 -22v-85q0 -18 -8 -22.5t-23 -4.5h-147zM155 760
q-7 -3 -13.5 -6t-13.5 -3q-11 0 -20.5 9.5t-9.5 25.5q0 14 7.5 22.5t27.5 25.5q16 13 25.5 21.5t17 16t14 15t16.5 18.5t17.5 17t23.5 6q18 0 26.5 -5.5t16.5 -13.5q11 -12 19.5 -20.5t17 -16t18 -15t23.5 -18.5q18 -14 25 -22t7 -23q0 -17 -10 -29t-21 -12q-9 0 -24 10
l-58 31q-7 4 -15.5 7.5t-20.5 3.5q-11 0 -19.5 -3t-14.5 -7z" />
    <glyph glyph-name="Edieresis" unicode="&#xcb;" horiz-adv-x="479" 
d="M250 292v-147h179q14 0 21.5 -5t7.5 -23v-90q0 -16 -6 -21.5t-23 -5.5h-357q-18 0 -25 6.5t-7 23.5v645q1 17 8 24t25 7h355q14 0 22.5 -3.5t7.5 -21.5v-89q0 -18 -8 -22.5t-22 -4.5h-178v-135h145q14 0 23.5 -4t9.5 -22v-85q0 -18 -8 -22.5t-23 -4.5h-147zM227 840
q1 -14 -3 -29t-15 -28t-29 -21t-44 -8q-41 0 -68 19.5t-27 57.5q0 36 25.5 58t68.5 22q41 0 65.5 -19.5t26.5 -51.5zM454 840q1 -14 -3.5 -29t-15 -28t-28.5 -21t-45 -8q-40 0 -67.5 19.5t-27.5 57.5q0 36 25.5 58t69.5 22q40 0 64.5 -19.5t27.5 -51.5z" />
    <glyph glyph-name="Igrave" unicode="&#xcc;" horiz-adv-x="292" 
d="M253 28q0 -21 -10 -24.5t-18 -3.5h-158q-12 0 -20 5t-8 24v651q0 17 6.5 21.5t20.5 4.5h161q17 1 21.5 -6t4.5 -20v-652zM187 829q2 -2 7 -11t5 -23q0 -20 -11.5 -29t-24.5 -9q-12 0 -21 5.5t-16 11.5l-72 60q-11 10 -23 24t-12 37q0 20 12.5 38t36.5 18q17 0 27 -8.5
t16 -15.5z" />
    <glyph glyph-name="Iacute" unicode="&#xcd;" horiz-adv-x="292" 
d="M253 28q0 -21 -10 -24.5t-18 -3.5h-158q-12 0 -20 5t-8 24v651q0 17 6.5 21.5t20.5 4.5h161q17 1 21.5 -6t4.5 -20v-652zM191 774q-8 -6 -16.5 -11.5t-20.5 -5.5q-13 0 -25 9t-12 29q0 14 5.5 23t7.5 11l76 98q5 7 15 15.5t27 8.5q25 0 37 -18t12 -38q0 -23 -11.5 -37
t-22.5 -24z" />
    <glyph glyph-name="Icircumflex" unicode="&#xce;" horiz-adv-x="292" 
d="M253 28q0 -21 -10 -24.5t-18 -3.5h-158q-12 0 -20 5t-8 24v651q0 17 6.5 21.5t20.5 4.5h161q17 1 21.5 -6t4.5 -20v-652zM51 760q-7 -3 -13.5 -6t-13.5 -3q-11 0 -20.5 9.5t-9.5 25.5q0 14 7.5 22.5t27.5 25.5q16 13 25.5 21.5t17 16t14 15t16.5 18.5t17.5 17t23.5 6
q18 0 26.5 -5.5t16.5 -13.5q11 -12 19.5 -20.5t17 -16t18 -15t23.5 -18.5q18 -14 25 -22t7 -23q0 -17 -10 -29t-21 -12q-9 0 -24 10l-58 31q-7 4 -15.5 7.5t-20.5 3.5q-11 0 -19.5 -3t-14.5 -7z" />
    <glyph glyph-name="Idieresis" unicode="&#xcf;" horiz-adv-x="292" 
d="M253 28q0 -21 -10 -24.5t-18 -3.5h-158q-12 0 -20 5t-8 24v651q0 17 6.5 21.5t20.5 4.5h161q17 1 21.5 -6t4.5 -20v-652zM123 840q1 -14 -3 -29t-15 -28t-29 -21t-44 -8q-41 0 -68 19.5t-27 57.5q0 36 25.5 58t68.5 22q41 0 65.5 -19.5t26.5 -51.5zM350 840
q1 -14 -3.5 -29t-15 -28t-28.5 -21t-45 -8q-40 0 -67.5 19.5t-27.5 57.5q0 36 25.5 58t69.5 22q40 0 64.5 -19.5t27.5 -51.5z" />
    <glyph glyph-name="Eth" unicode="&#xd0;" horiz-adv-x="625" 
d="M40 314q-20 0 -31 0.5t-16.5 2t-7 5.5t-1.5 12v83q0 17 15 20q1 0 6.5 0.5t12.5 0.5h13.5h8.5v219q1 14 4 22.5t17 14.5q10 4 30 8t45 7t52.5 5t52.5 2q17 0 48.5 -1.5t68.5 -10t76 -26.5t72 -51q15 -15 31.5 -38.5t31 -57t23.5 -78.5t9 -103q0 -74 -17.5 -131t-45.5 -96
q-35 -48 -79.5 -74.5t-89 -39.5t-84 -16t-63.5 -3q-18 0 -40 1t-43.5 3t-41 5t-32.5 8q-18 7 -21.5 17.5t-3.5 29.5v260zM250 438h58q15 0 19 -5.5t5 -17.5v-80q0 -13 -5.5 -17t-18.5 -4h-58v-185q37 -1 62.5 9.5t41 35.5t22 66t6.5 101q0 64 -5.5 112t-20.5 78.5
t-40.5 44.5t-65.5 11v-149z" />
    <glyph glyph-name="Ntilde" unicode="&#xd1;" horiz-adv-x="604" 
d="M406 381v303q0 14 6.5 18t19.5 4h103q13 0 21 -4t8 -21v-654q0 -15 -5 -21t-20 -6h-85q-21 0 -28.5 5t-17.5 22l-211 354v-352q0 -15 -4.5 -22t-18.5 -7h-104q-14 0 -21.5 4.5t-7.5 20.5v654q0 11 4.5 19.5t21.5 7.5h115q19 0 28 -5.5t18 -21.5zM295 788q-14 7 -26 11.5
t-23 4.5q-10 0 -15.5 -4t-19.5 -16q-8 -7 -14.5 -11.5t-17.5 -4.5q-3 0 -9 1.5t-11.5 5.5t-9.5 12t-4 21q0 14 4.5 32t16 33.5t30 26.5t45.5 11q7 0 13 -1t13 -3.5t17.5 -7t27.5 -12.5q18 -8 28.5 -12.5t20.5 -4.5q13 0 21.5 5t13.5 10q16 14 22.5 19t17.5 5q20 0 25 -14
t5 -23q0 -17 -6 -35t-18 -33.5t-31 -25.5t-45 -10q-9 0 -16 1t-14.5 3.5t-17 6t-23.5 9.5z" />
    <glyph glyph-name="Ograve" unicode="&#xd2;" horiz-adv-x="646" 
d="M621 368q4 -102 -20.5 -175t-67 -120t-98.5 -69t-114 -22q-68 0 -122.5 26.5t-93 75.5t-59.5 118t-21 154q0 89 23 157.5t63.5 115.5t95.5 71.5t120 24.5q61 0 113 -23t91 -68t63 -112t27 -154zM406 368q-1 42 -4.5 83t-16.5 81q-2 6 -6 15t-11 18t-18 15t-27 6
q-14 0 -28.5 -7t-26.5 -30.5t-19.5 -67t-7.5 -116.5q0 -48 4 -90.5t13.5 -74t26 -50t41.5 -18.5q18 0 29.5 9t19 21t11.5 23.5t5 16.5q11 41 13.5 82.5t1.5 83.5zM364 829q2 -2 7 -11t5 -23q0 -20 -11.5 -29t-24.5 -9q-12 0 -21 5.5t-16 11.5l-72 60q-11 10 -23 24t-12 37
q0 20 12.5 38t36.5 18q17 0 27 -8.5t16 -15.5z" />
    <glyph glyph-name="Oacute" unicode="&#xd3;" horiz-adv-x="646" 
d="M621 368q4 -102 -20.5 -175t-67 -120t-98.5 -69t-114 -22q-68 0 -122.5 26.5t-93 75.5t-59.5 118t-21 154q0 89 23 157.5t63.5 115.5t95.5 71.5t120 24.5q61 0 113 -23t91 -68t63 -112t27 -154zM406 368q-1 42 -4.5 83t-16.5 81q-2 6 -6 15t-11 18t-18 15t-27 6
q-14 0 -28.5 -7t-26.5 -30.5t-19.5 -67t-7.5 -116.5q0 -48 4 -90.5t13.5 -74t26 -50t41.5 -18.5q18 0 29.5 9t19 21t11.5 23.5t5 16.5q11 41 13.5 82.5t1.5 83.5zM368 774q-8 -6 -16.5 -11.5t-20.5 -5.5q-13 0 -25 9t-12 29q0 14 5.5 23t7.5 11l76 98q5 7 15 15.5t27 8.5
q25 0 37 -18t12 -38q0 -23 -11.5 -37t-22.5 -24z" />
    <glyph glyph-name="Ocircumflex" unicode="&#xd4;" horiz-adv-x="646" 
d="M621 368q4 -102 -20.5 -175t-67 -120t-98.5 -69t-114 -22q-68 0 -122.5 26.5t-93 75.5t-59.5 118t-21 154q0 89 23 157.5t63.5 115.5t95.5 71.5t120 24.5q61 0 113 -23t91 -68t63 -112t27 -154zM406 368q-1 42 -4.5 83t-16.5 81q-2 6 -6 15t-11 18t-18 15t-27 6
q-14 0 -28.5 -7t-26.5 -30.5t-19.5 -67t-7.5 -116.5q0 -48 4 -90.5t13.5 -74t26 -50t41.5 -18.5q18 0 29.5 9t19 21t11.5 23.5t5 16.5q11 41 13.5 82.5t1.5 83.5zM228 760q-7 -3 -13.5 -6t-13.5 -3q-11 0 -20.5 9.5t-9.5 25.5q0 14 7.5 22.5t27.5 25.5q16 13 25.5 21.5
t17 16t14 15t16.5 18.5t17.5 17t23.5 6q18 0 26.5 -5.5t16.5 -13.5q11 -12 19.5 -20.5t17 -16t18 -15t23.5 -18.5q18 -14 25 -22t7 -23q0 -17 -10 -29t-21 -12q-9 0 -24 10l-58 31q-7 4 -15.5 7.5t-20.5 3.5q-11 0 -19.5 -3t-14.5 -7z" />
    <glyph glyph-name="Otilde" unicode="&#xd5;" horiz-adv-x="646" 
d="M621 368q4 -102 -20.5 -175t-67 -120t-98.5 -69t-114 -22q-68 0 -122.5 26.5t-93 75.5t-59.5 118t-21 154q0 89 23 157.5t63.5 115.5t95.5 71.5t120 24.5q61 0 113 -23t91 -68t63 -112t27 -154zM406 368q-1 42 -4.5 83t-16.5 81q-2 6 -6 15t-11 18t-18 15t-27 6
q-14 0 -28.5 -7t-26.5 -30.5t-19.5 -67t-7.5 -116.5q0 -48 4 -90.5t13.5 -74t26 -50t41.5 -18.5q18 0 29.5 9t19 21t11.5 23.5t5 16.5q11 41 13.5 82.5t1.5 83.5zM316 788q-14 7 -26 11.5t-23 4.5q-10 0 -15.5 -4t-19.5 -16q-8 -7 -14.5 -11.5t-17.5 -4.5q-3 0 -9 1.5
t-11.5 5.5t-9.5 12t-4 21q0 14 4.5 32t16 33.5t30 26.5t45.5 11q7 0 13 -1t13 -3.5t17.5 -7t27.5 -12.5q18 -8 28.5 -12.5t20.5 -4.5q13 0 21.5 5t13.5 10q16 14 22.5 19t17.5 5q20 0 25 -14t5 -23q0 -17 -6 -35t-18 -33.5t-31 -25.5t-45 -10q-9 0 -16 1t-14.5 3.5t-17 6
t-23.5 9.5z" />
    <glyph glyph-name="Odieresis" unicode="&#xd6;" horiz-adv-x="646" 
d="M621 368q4 -102 -20.5 -175t-67 -120t-98.5 -69t-114 -22q-68 0 -122.5 26.5t-93 75.5t-59.5 118t-21 154q0 89 23 157.5t63.5 115.5t95.5 71.5t120 24.5q61 0 113 -23t91 -68t63 -112t27 -154zM406 368q-1 42 -4.5 83t-16.5 81q-2 6 -6 15t-11 18t-18 15t-27 6
q-14 0 -28.5 -7t-26.5 -30.5t-19.5 -67t-7.5 -116.5q0 -48 4 -90.5t13.5 -74t26 -50t41.5 -18.5q18 0 29.5 9t19 21t11.5 23.5t5 16.5q11 41 13.5 82.5t1.5 83.5zM301 840q1 -14 -3 -29t-15 -28t-29 -21t-44 -8q-41 0 -68 19.5t-27 57.5q0 36 25.5 58t68.5 22
q41 0 65.5 -19.5t26.5 -51.5zM528 840q1 -14 -3.5 -29t-15 -28t-28.5 -21t-45 -8q-40 0 -67.5 19.5t-27.5 57.5q0 36 25.5 58t69.5 22q40 0 64.5 -19.5t27.5 -51.5z" />
    <glyph glyph-name="multiply" unicode="&#xd7;" horiz-adv-x="500" 
d="M464 168l-90 -91l-124 123l-124 -123l-90 91l124 123l-124 125l90 89l124 -124l124 124l90 -89l-124 -125z" />
    <glyph glyph-name="Oslash" unicode="&#xd8;" horiz-adv-x="646" 
d="M549 611q39 -54 56 -117.5t17 -129.5q0 -93 -22.5 -164t-62 -119.5t-93 -73.5t-116.5 -25q-38 0 -66.5 7t-50 17t-37 21t-25.5 20l-69 -93q-9 -12 -16 -12q-4 0 -7.5 2.5t-6.5 4.5q-22 16 -27 21t-5 10t2.5 9t4.5 8l74 104l-6 6t-6 7q-20 27 -31.5 61t-17.5 67.5t-7.5 61
t-1.5 41.5q0 90 22 160.5t61 119t94 74.5t121 26q36 0 63.5 -6.5t48 -15.5t35 -19.5t25.5 -19.5l67 93q2 4 5.5 7.5t7.5 3.5q2 0 10 -5t17 -11.5t16 -13t7 -9.5q0 -4 -2 -7.5t-4 -5.5zM252 195q2 -6 6.5 -17.5t12 -23.5t19.5 -20.5t29 -8.5q27 0 46 22.5t30.5 56.5t17.5 74
t9 74.5t3 58.5v27zM405 532q-4 14 -10.5 28t-15.5 24.5t-20.5 17t-25.5 6.5q-30 0 -50 -25.5t-32.5 -65.5t-18 -87.5t-5.5 -92.5q0 -20 1 -30.5t3 -19.5z" />
    <glyph glyph-name="Ugrave" unicode="&#xd9;" horiz-adv-x="562" 
d="M536 218q-1 -32 -3.5 -63t-14.5 -57q-9 -22 -28 -42.5t-48 -37t-69 -26.5t-92 -10q-47 0 -84 8t-65.5 21.5t-48 31t-30.5 36.5q-11 18 -18.5 47t-7.5 83v472q0 13 5 19t20 6h161q17 0 22.5 -5.5t5.5 -21.5v-446q0 -19 1 -35t8 -27.5t20.5 -18t39.5 -6.5q21 0 33 7.5
t17.5 20t6.5 29t1 34.5v442q0 17 5.5 22t19.5 5h113q17 0 23.5 -4t6.5 -21v-463zM322 829q2 -2 7 -11t5 -23q0 -20 -11.5 -29t-24.5 -9q-12 0 -21 5.5t-16 11.5l-72 60q-11 10 -23 24t-12 37q0 20 12.5 38t36.5 18q17 0 27 -8.5t16 -15.5z" />
    <glyph glyph-name="Uacute" unicode="&#xda;" horiz-adv-x="562" 
d="M536 218q-1 -32 -3.5 -63t-14.5 -57q-9 -22 -28 -42.5t-48 -37t-69 -26.5t-92 -10q-47 0 -84 8t-65.5 21.5t-48 31t-30.5 36.5q-11 18 -18.5 47t-7.5 83v472q0 13 5 19t20 6h161q17 0 22.5 -5.5t5.5 -21.5v-446q0 -19 1 -35t8 -27.5t20.5 -18t39.5 -6.5q21 0 33 7.5
t17.5 20t6.5 29t1 34.5v442q0 17 5.5 22t19.5 5h113q17 0 23.5 -4t6.5 -21v-463zM326 774q-8 -6 -16.5 -11.5t-20.5 -5.5q-13 0 -25 9t-12 29q0 14 5.5 23t7.5 11l76 98q5 7 15 15.5t27 8.5q25 0 37 -18t12 -38q0 -23 -11.5 -37t-22.5 -24z" />
    <glyph glyph-name="Ucircumflex" unicode="&#xdb;" horiz-adv-x="562" 
d="M536 218q-1 -32 -3.5 -63t-14.5 -57q-9 -22 -28 -42.5t-48 -37t-69 -26.5t-92 -10q-47 0 -84 8t-65.5 21.5t-48 31t-30.5 36.5q-11 18 -18.5 47t-7.5 83v472q0 13 5 19t20 6h161q17 0 22.5 -5.5t5.5 -21.5v-446q0 -19 1 -35t8 -27.5t20.5 -18t39.5 -6.5q21 0 33 7.5
t17.5 20t6.5 29t1 34.5v442q0 17 5.5 22t19.5 5h113q17 0 23.5 -4t6.5 -21v-463zM186 760q-7 -3 -13.5 -6t-13.5 -3q-11 0 -20.5 9.5t-9.5 25.5q0 14 7.5 22.5t27.5 25.5q16 13 25.5 21.5t17 16t14 15t16.5 18.5t17.5 17t23.5 6q18 0 26.5 -5.5t16.5 -13.5
q11 -12 19.5 -20.5t17 -16t18 -15t23.5 -18.5q18 -14 25 -22t7 -23q0 -17 -10 -29t-21 -12q-9 0 -24 10l-58 31q-7 4 -15.5 7.5t-20.5 3.5q-11 0 -19.5 -3t-14.5 -7z" />
    <glyph glyph-name="Udieresis" unicode="&#xdc;" horiz-adv-x="562" 
d="M536 218q-1 -32 -3.5 -63t-14.5 -57q-9 -22 -28 -42.5t-48 -37t-69 -26.5t-92 -10q-47 0 -84 8t-65.5 21.5t-48 31t-30.5 36.5q-11 18 -18.5 47t-7.5 83v472q0 13 5 19t20 6h161q17 0 22.5 -5.5t5.5 -21.5v-446q0 -19 1 -35t8 -27.5t20.5 -18t39.5 -6.5q21 0 33 7.5
t17.5 20t6.5 29t1 34.5v442q0 17 5.5 22t19.5 5h113q17 0 23.5 -4t6.5 -21v-463zM268 840q1 -14 -3 -29t-15 -28t-29 -21t-44 -8q-41 0 -68 19.5t-27 57.5q0 36 25.5 58t68.5 22q41 0 65.5 -19.5t26.5 -51.5zM495 840q1 -14 -3.5 -29t-15 -28t-28.5 -21t-45 -8
q-40 0 -67.5 19.5t-27.5 57.5q0 36 25.5 58t69.5 22q40 0 64.5 -19.5t27.5 -51.5z" />
    <glyph glyph-name="Yacute" unicode="&#xdd;" horiz-adv-x="542" 
d="M377 305v-283q0 -17 -8 -19.5t-16 -2.5h-164q-14 0 -21 4.5t-7 21.5v286l-153 356q-6 13 -6 20q0 11 7.5 15t17.5 3h173q15 0 22.5 -4t14.5 -22l60 -183l70 181q7 17 13.5 23t22.5 5h112q8 0 16.5 -1.5t8.5 -14.5q0 -5 -2 -9.5t-4 -10.5zM316 774q-8 -6 -16.5 -11.5
t-20.5 -5.5q-13 0 -25 9t-12 29q0 14 5.5 23t7.5 11l76 98q5 7 15 15.5t27 8.5q25 0 37 -18t12 -38q0 -23 -11.5 -37t-22.5 -24z" />
    <glyph glyph-name="Thorn" unicode="&#xde;" horiz-adv-x="562" 
d="M40 677q0 17 6 23t23 7h156q18 0 22.5 -8t4.5 -22v-79q15 1 25.5 2t18.5 2t15.5 1h17.5q15 0 34.5 -1.5t41 -6t43.5 -13.5t41 -24q8 -7 20.5 -20.5t24.5 -35t20.5 -52.5t8.5 -73q0 -66 -22 -110t-58 -71t-81.5 -38.5t-92.5 -11.5q-14 0 -27.5 0.5t-30.5 1.5v-121
q0 -17 -7.5 -22t-21.5 -5h-155q-17 0 -22 6.5t-5 23.5v647zM251 269q4 0 10 -0.5t11 -0.5q30 0 46 13.5t23.5 31t8.5 35t1 25.5q0 58 -19 84t-56 26q-7 0 -12.5 -0.5t-12.5 -1.5v-212z" />
    <glyph glyph-name="germandbls" unicode="&#xdf;" horiz-adv-x="604" 
d="M229 26q0 -13 -3.5 -19.5t-18.5 -6.5h-141q-14 0 -20 5t-7 22v351q0 23 2.5 62t11.5 84t27.5 90.5t51.5 82.5t83.5 60.5t123.5 23.5q49 0 85 -13.5t60 -34.5t35.5 -47t11.5 -52q0 -21 -6 -40t-16 -36t-21.5 -32.5t-23.5 -29.5q-11 -15 -18.5 -28t-7.5 -27q0 -7 1 -12
t5.5 -11t12.5 -14.5t22 -22.5q24 -23 45.5 -45t37.5 -46t25.5 -52t9.5 -63q0 -18 -7 -50t-28 -63t-60 -54t-104 -23q-51 0 -78.5 13t-40.5 28.5t-15.5 29.5t-2.5 17q0 32 20 51t43 19q20 0 32 -9.5t19 -17.5q11 -11 18 -18.5t23 -7.5q9 0 13.5 4t7 9.5t3 11t0.5 7.5
q0 22 -12 37t-20 23l-57 52q-14 12 -28.5 26.5t-27.5 32t-21 39t-8 47.5q0 35 14.5 61.5t34.5 55.5q17 25 27 40t15.5 25t7 17.5t1.5 17.5q0 26 -17.5 47t-48.5 21q-8 0 -20.5 -3.5t-24.5 -15.5q-15 -16 -17.5 -31.5t-2.5 -30.5z" />
    <glyph glyph-name="agrave" unicode="&#xe0;" horiz-adv-x="479" 
d="M445 107q0 -17 -1.5 -33.5t-12.5 -30.5q-3 -3 -13.5 -12.5t-33 -19.5t-57.5 -18t-87 -8q-34 0 -74 4.5t-75 20.5t-58.5 45.5t-23.5 80.5q0 55 28 89.5t67.5 54t84 28.5t77.5 14v54q0 8 -0.5 18t-3.5 18.5t-10 14.5t-19 6q-20 0 -28 -12t-13 -25t-10 -24.5t-13.5 -20.5
t-21.5 -14t-34 -5q-22 0 -37.5 7t-25.5 18t-15 24.5t-5 26.5q0 31 22.5 57.5t60.5 43.5q38 16 78.5 20t82.5 4q47 0 86.5 -10.5t63.5 -46.5q15 -23 18 -45.5t3 -43.5v-280zM266 243q-22 -6 -34 -11.5t-22 -19.5q-6 -8 -9.5 -18t-5.5 -19.5t-2.5 -17.5t-0.5 -12q0 -26 10 -44
t30 -18q13 0 20 6t10 15t3.5 19.5t0.5 19.5v100zM252 635q10 -13 15.5 -22.5t5.5 -20.5q0 -9 -6.5 -21t-25.5 -12q-16 0 -26 7t-18 15l-74 68q-8 8 -15 17.5t-7 25.5q0 18 12 32.5t33 14.5q17 0 27.5 -8.5t16.5 -15.5z" />
    <glyph glyph-name="aacute" unicode="&#xe1;" horiz-adv-x="479" 
d="M445 107q0 -17 -1.5 -33.5t-12.5 -30.5q-3 -3 -13.5 -12.5t-33 -19.5t-57.5 -18t-87 -8q-34 0 -74 4.5t-75 20.5t-58.5 45.5t-23.5 80.5q0 55 28 89.5t67.5 54t84 28.5t77.5 14v54q0 8 -0.5 18t-3.5 18.5t-10 14.5t-19 6q-20 0 -28 -12t-13 -25t-10 -24.5t-13.5 -20.5
t-21.5 -14t-34 -5q-22 0 -37.5 7t-25.5 18t-15 24.5t-5 26.5q0 31 22.5 57.5t60.5 43.5q38 16 78.5 20t82.5 4q47 0 86.5 -10.5t63.5 -46.5q15 -23 18 -45.5t3 -43.5v-280zM266 243q-22 -6 -34 -11.5t-22 -19.5q-6 -8 -9.5 -18t-5.5 -19.5t-2.5 -17.5t-0.5 -12q0 -26 10 -44
t30 -18q13 0 20 6t10 15t3.5 19.5t0.5 19.5v100zM278 581q-8 -8 -18 -15t-25 -7q-20 0 -26.5 12t-6.5 21q0 11 5.5 20.5t15.5 22.5l63 80q6 7 16.5 15.5t27.5 8.5q21 0 32.5 -14.5t11.5 -32.5q0 -16 -7 -25.5t-14 -17.5z" />
    <glyph glyph-name="acircumflex" unicode="&#xe2;" horiz-adv-x="479" 
d="M445 107q0 -17 -1.5 -33.5t-12.5 -30.5q-3 -3 -13.5 -12.5t-33 -19.5t-57.5 -18t-87 -8q-34 0 -74 4.5t-75 20.5t-58.5 45.5t-23.5 80.5q0 55 28 89.5t67.5 54t84 28.5t77.5 14v54q0 8 -0.5 18t-3.5 18.5t-10 14.5t-19 6q-20 0 -28 -12t-13 -25t-10 -24.5t-13.5 -20.5
t-21.5 -14t-34 -5q-22 0 -37.5 7t-25.5 18t-15 24.5t-5 26.5q0 31 22.5 57.5t60.5 43.5q38 16 78.5 20t82.5 4q47 0 86.5 -10.5t63.5 -46.5q15 -23 18 -45.5t3 -43.5v-280zM266 243q-22 -6 -34 -11.5t-22 -19.5q-6 -8 -9.5 -18t-5.5 -19.5t-2.5 -17.5t-0.5 -12q0 -26 10 -44
t30 -18q13 0 20 6t10 15t3.5 19.5t0.5 19.5v100zM285 597q-11 5 -22.5 9t-25.5 4t-25 -4.5t-21 -9.5q-18 -11 -29 -17.5t-17.5 -10t-11 -4.5t-9.5 -1q-15 0 -23.5 9.5t-8.5 20.5q0 12 6.5 19t25.5 24q15 11 29 24t27 27q8 8 11 12q12 12 21 18.5t23 6.5t23 -7q2 -1 7.5 -5.5
t12 -10t12 -10t7.5 -5.5q8 -7 23.5 -19.5t28.5 -23.5q24 -18 30 -26t6 -19q0 -17 -10.5 -25.5t-22.5 -8.5q-8 0 -14 2.5t-12 6.5z" />
    <glyph glyph-name="atilde" unicode="&#xe3;" horiz-adv-x="479" 
d="M445 107q0 -17 -1.5 -33.5t-12.5 -30.5q-3 -3 -13.5 -12.5t-33 -19.5t-57.5 -18t-87 -8q-34 0 -74 4.5t-75 20.5t-58.5 45.5t-23.5 80.5q0 55 28 89.5t67.5 54t84 28.5t77.5 14v54q0 8 -0.5 18t-3.5 18.5t-10 14.5t-19 6q-20 0 -28 -12t-13 -25t-10 -24.5t-13.5 -20.5
t-21.5 -14t-34 -5q-22 0 -37.5 7t-25.5 18t-15 24.5t-5 26.5q0 31 22.5 57.5t60.5 43.5q38 16 78.5 20t82.5 4q47 0 86.5 -10.5t63.5 -46.5q15 -23 18 -45.5t3 -43.5v-280zM266 243q-22 -6 -34 -11.5t-22 -19.5q-6 -8 -9.5 -18t-5.5 -19.5t-2.5 -17.5t-0.5 -12q0 -26 10 -44
t30 -18q13 0 20 6t10 15t3.5 19.5t0.5 19.5v100zM231 597q-26 13 -36 17t-17 4q-11 0 -20 -7t-14 -12q-13 -14 -18.5 -18.5t-13.5 -4.5q-17 0 -23.5 12.5t-6.5 26.5q0 24 8.5 42t22.5 31t31.5 19.5t35.5 6.5q20 0 34.5 -6t25.5 -13q22 -13 31.5 -17.5t22.5 -4.5q17 0 27 7.5
t16 14.5q10 11 15.5 16t14.5 5q17 0 23 -15q2 -4 2.5 -8.5t0.5 -9.5q0 -18 -7 -36.5t-19.5 -33t-31 -24t-42.5 -9.5q-22 0 -36.5 6t-25.5 11z" />
    <glyph glyph-name="adieresis" unicode="&#xe4;" horiz-adv-x="479" 
d="M445 107q0 -17 -1.5 -33.5t-12.5 -30.5q-3 -3 -13.5 -12.5t-33 -19.5t-57.5 -18t-87 -8q-34 0 -74 4.5t-75 20.5t-58.5 45.5t-23.5 80.5q0 55 28 89.5t67.5 54t84 28.5t77.5 14v54q0 8 -0.5 18t-3.5 18.5t-10 14.5t-19 6q-20 0 -28 -12t-13 -25t-10 -24.5t-13.5 -20.5
t-21.5 -14t-34 -5q-22 0 -37.5 7t-25.5 18t-15 24.5t-5 26.5q0 31 22.5 57.5t60.5 43.5q38 16 78.5 20t82.5 4q47 0 86.5 -10.5t63.5 -46.5q15 -23 18 -45.5t3 -43.5v-280zM266 243q-22 -6 -34 -11.5t-22 -19.5q-6 -8 -9.5 -18t-5.5 -19.5t-2.5 -17.5t-0.5 -12q0 -26 10 -44
t30 -18q13 0 20 6t10 15t3.5 19.5t0.5 19.5v100zM220 640q1 -11 -2.5 -25t-13.5 -26.5t-27.5 -21t-45.5 -8.5q-43 0 -64 23t-21 52q0 19 8 33t20.5 24t28 15t31.5 5q32 0 57.5 -18.5t28.5 -52.5zM432 640q1 -11 -2.5 -25t-13.5 -26.5t-27.5 -21t-45.5 -8.5q-43 0 -64 23
t-21 52q0 19 7.5 33t20 24t28.5 15t32 5q32 0 57.5 -18t28.5 -53z" />
    <glyph glyph-name="aring" unicode="&#xe5;" horiz-adv-x="479" 
d="M445 107q0 -17 -1.5 -33.5t-12.5 -30.5q-3 -3 -13.5 -12.5t-33 -19.5t-57.5 -18t-87 -8q-34 0 -74 4.5t-75 20.5t-58.5 45.5t-23.5 80.5q0 55 28 89.5t67.5 54t84 28.5t77.5 14v54q0 8 -0.5 18t-3.5 18.5t-10 14.5t-19 6q-20 0 -28 -12t-13 -25t-10 -24.5t-13.5 -20.5
t-21.5 -14t-34 -5q-22 0 -37.5 7t-25.5 18t-15 24.5t-5 26.5q0 31 22.5 57.5t60.5 43.5q38 16 78.5 20t82.5 4q47 0 86.5 -10.5t63.5 -46.5q15 -23 18 -45.5t3 -43.5v-280zM266 243q-22 -6 -34 -11.5t-22 -19.5q-6 -8 -9.5 -18t-5.5 -19.5t-2.5 -17.5t-0.5 -12q0 -26 10 -44
t30 -18q13 0 20 6t10 15t3.5 19.5t0.5 19.5v100zM338 661q0 -42 -27 -71t-72 -29q-24 0 -43 8.5t-31.5 22.5t-19.5 31.5t-7 36.5t7 37.5t20.5 32t31.5 22t41 8.5q20 0 38 -7t32 -20t22 -31.5t8 -40.5zM277 663q-1 17 -12.5 26.5t-26.5 9.5q-18 0 -28.5 -12t-10.5 -27
q0 -17 12.5 -27.5t26.5 -10.5q17 0 28.5 12t10.5 29z" />
    <glyph glyph-name="ae" unicode="&#xe6;" horiz-adv-x="729" 
d="M437 244q4 -27 16.5 -44.5t28.5 -28t34 -15t33 -4.5q32 0 48 9.5t30 21.5q8 8 17 14t21 6q15 0 25.5 -12t10.5 -34q0 -17 -9 -45.5t-30 -57t-55.5 -49t-84.5 -20.5q-29 0 -51 7t-39 16.5t-29 21t-21 20.5q-20 -21 -43 -34t-46.5 -20t-46.5 -9t-44 -2q-12 0 -28.5 1t-35 5
t-38 11.5t-37.5 20.5q-35 26 -44.5 55.5t-9.5 52.5q0 52 26.5 84t65.5 50.5t83.5 27t79.5 13.5q2 35 2.5 48t0.5 19q0 11 -0.5 22t-4.5 20t-11.5 15t-22.5 6q-17 0 -23.5 -10.5t-14.5 -30.5q-5 -11 -10.5 -22.5t-15 -21.5t-23.5 -16.5t-35 -6.5q-29 0 -53 19t-24 56
q0 23 13 46.5t38.5 42t64 30t89.5 11.5q73 0 116 -25q17 -10 24 -19.5t13 -20.5q5 7 14 18t25 21.5t40 18t59 7.5q21 0 52 -7.5t60 -29.5t49.5 -62t20.5 -105q0 -19 -3.5 -30t-9.5 -17t-15 -8.5t-19 -3.5zM548 341q0 11 -1.5 25.5t-6.5 27.5t-15.5 22t-29.5 9q-20 0 -32 -9
t-19 -23t-10 -31.5t-3 -34.5zM264 225q-12 -2 -24 -5t-22.5 -11.5t-17 -24.5t-6.5 -44q0 -26 10 -43t30 -17q15 0 20.5 9.5t7.5 20.5q1 4 1.5 20t0.5 34.5v36v24.5z" />
    <glyph glyph-name="ccedilla" unicode="&#xe7;" horiz-adv-x="437" 
d="M186 -11q-39 9 -67 30t-46 48t-28.5 56.5t-15.5 56t-6 47t-1 29.5q0 15 2.5 42t11 59t25 65t44.5 59q26 23 62.5 38t90.5 15q45 0 76 -14t50 -34t27 -44t8 -43q0 -37 -21.5 -62.5t-56.5 -25.5q-18 0 -30.5 6t-20 15t-12.5 20t-8 21q-2 6 -5.5 13t-8 13t-11.5 10.5
t-16 4.5q-23 0 -36 -28.5t-13 -66.5q0 -22 6 -49.5t18 -52t30 -41t43 -16.5q29 0 42 14.5t21 26.5q9 13 17.5 21t22.5 8q21 0 30 -17t9 -39q0 -23 -7.5 -53.5t-26.5 -59t-51.5 -50t-83.5 -26.5l-8 -63q14 -1 32.5 -4.5t36.5 -19.5q15 -14 20.5 -31t5.5 -31q0 -16 -6 -32.5
t-19.5 -30t-36 -22.5t-56.5 -9q-10 0 -30.5 2t-40.5 8t-35.5 15.5t-15.5 24.5q0 10 6.5 19.5t18.5 9.5q2 0 4.5 -0.5t13.5 -2.5q14 -3 29 -5t29 -2q15 0 23.5 4.5t12.5 9.5t5 10t1 7q0 11 -8 20t-24 9q-2 0 -9.5 -0.5t-9.5 -0.5q-13 0 -14 10.5t-1 15.5z" />
    <glyph glyph-name="egrave" unicode="&#xe8;" horiz-adv-x="479" 
d="M184 234q6 -26 21 -42t32.5 -25t35 -12.5t30.5 -3.5q29 0 45 7.5t27 16.5q17 16 25.5 22t20.5 6q15 0 25.5 -12t10.5 -34q0 -11 -7.5 -39.5t-28 -58t-58 -52.5t-97.5 -23q-16 0 -36.5 2t-43 8.5t-45 18t-41.5 29.5q-7 6 -20 22.5t-26 43.5t-22.5 66t-9.5 91
q0 73 21.5 124.5t55.5 83.5t76 46.5t82 14.5q60 0 98.5 -25t61 -58.5t31.5 -68.5t9 -55q0 -19 -5 -30t-12.5 -17t-16 -8t-15.5 -3zM274 342q-1 10 -2.5 24t-6.5 26.5t-14.5 21t-25.5 8.5q-17 0 -28 -8.5t-17 -22t-8 -30.5t-2 -35zM252 635q10 -13 15.5 -22.5t5.5 -20.5
q0 -9 -6.5 -21t-25.5 -12q-16 0 -26 7t-18 15l-74 68q-8 8 -15 17.5t-7 25.5q0 18 12 32.5t33 14.5q17 0 27.5 -8.5t16.5 -15.5z" />
    <glyph glyph-name="eacute" unicode="&#xe9;" horiz-adv-x="479" 
d="M184 234q6 -26 21 -42t32.5 -25t35 -12.5t30.5 -3.5q29 0 45 7.5t27 16.5q17 16 25.5 22t20.5 6q15 0 25.5 -12t10.5 -34q0 -11 -7.5 -39.5t-28 -58t-58 -52.5t-97.5 -23q-16 0 -36.5 2t-43 8.5t-45 18t-41.5 29.5q-7 6 -20 22.5t-26 43.5t-22.5 66t-9.5 91
q0 73 21.5 124.5t55.5 83.5t76 46.5t82 14.5q60 0 98.5 -25t61 -58.5t31.5 -68.5t9 -55q0 -19 -5 -30t-12.5 -17t-16 -8t-15.5 -3zM274 342q-1 10 -2.5 24t-6.5 26.5t-14.5 21t-25.5 8.5q-17 0 -28 -8.5t-17 -22t-8 -30.5t-2 -35zM278 581q-8 -8 -18 -15t-25 -7
q-20 0 -26.5 12t-6.5 21q0 11 5.5 20.5t15.5 22.5l63 80q6 7 16.5 15.5t27.5 8.5q21 0 32.5 -14.5t11.5 -32.5q0 -16 -7 -25.5t-14 -17.5z" />
    <glyph glyph-name="ecircumflex" unicode="&#xea;" horiz-adv-x="479" 
d="M184 234q6 -26 21 -42t32.5 -25t35 -12.5t30.5 -3.5q29 0 45 7.5t27 16.5q17 16 25.5 22t20.5 6q15 0 25.5 -12t10.5 -34q0 -11 -7.5 -39.5t-28 -58t-58 -52.5t-97.5 -23q-16 0 -36.5 2t-43 8.5t-45 18t-41.5 29.5q-7 6 -20 22.5t-26 43.5t-22.5 66t-9.5 91
q0 73 21.5 124.5t55.5 83.5t76 46.5t82 14.5q60 0 98.5 -25t61 -58.5t31.5 -68.5t9 -55q0 -19 -5 -30t-12.5 -17t-16 -8t-15.5 -3zM274 342q-1 10 -2.5 24t-6.5 26.5t-14.5 21t-25.5 8.5q-17 0 -28 -8.5t-17 -22t-8 -30.5t-2 -35zM296 597q-11 5 -22.5 9t-25.5 4t-25 -4.5
t-21 -9.5q-18 -11 -29 -17.5t-17.5 -10t-11 -4.5t-9.5 -1q-15 0 -23.5 9.5t-8.5 20.5q0 12 6.5 19t25.5 24q15 11 29 24t27 27q8 8 11 12q12 12 21 18.5t23 6.5t23 -7q2 -1 7.5 -5.5t12 -10t12 -10t7.5 -5.5q8 -7 23.5 -19.5t28.5 -23.5q24 -18 30 -26t6 -19
q0 -17 -10.5 -25.5t-22.5 -8.5q-8 0 -14 2.5t-12 6.5z" />
    <glyph glyph-name="edieresis" unicode="&#xeb;" horiz-adv-x="479" 
d="M184 234q6 -26 21 -42t32.5 -25t35 -12.5t30.5 -3.5q29 0 45 7.5t27 16.5q17 16 25.5 22t20.5 6q15 0 25.5 -12t10.5 -34q0 -11 -7.5 -39.5t-28 -58t-58 -52.5t-97.5 -23q-16 0 -36.5 2t-43 8.5t-45 18t-41.5 29.5q-7 6 -20 22.5t-26 43.5t-22.5 66t-9.5 91
q0 73 21.5 124.5t55.5 83.5t76 46.5t82 14.5q60 0 98.5 -25t61 -58.5t31.5 -68.5t9 -55q0 -19 -5 -30t-12.5 -17t-16 -8t-15.5 -3zM274 342q-1 10 -2.5 24t-6.5 26.5t-14.5 21t-25.5 8.5q-17 0 -28 -8.5t-17 -22t-8 -30.5t-2 -35zM232 640q1 -11 -2.5 -25t-13.5 -26.5
t-27.5 -21t-45.5 -8.5q-43 0 -64 23t-21 52q0 19 8 33t20.5 24t28 15t31.5 5q32 0 57.5 -18.5t28.5 -52.5zM444 640q1 -11 -2.5 -25t-13.5 -26.5t-27.5 -21t-45.5 -8.5q-43 0 -64 23t-21 52q0 19 7.5 33t20 24t28.5 15t32 5q32 0 57.5 -18t28.5 -53z" />
    <glyph glyph-name="igrave" unicode="&#xec;" 
d="M235 25q0 -17 -8 -21t-17 -4h-153q-16 0 -18.5 8t-2.5 20v464q0 11 4 18.5t21 7.5h150q14 0 19 -5t5 -19v-469zM149 635q10 -13 15.5 -22.5t5.5 -20.5q0 -9 -6.5 -21t-25.5 -12q-16 0 -26 7t-18 15l-74 68q-8 8 -15 17.5t-7 25.5q0 18 12 32.5t33 14.5q17 0 27.5 -8.5
t16.5 -15.5z" />
    <glyph glyph-name="iacute" unicode="&#xed;" 
d="M235 25q0 -17 -8 -21t-17 -4h-153q-16 0 -18.5 8t-2.5 20v464q0 11 4 18.5t21 7.5h150q14 0 19 -5t5 -19v-469zM174 581q-8 -8 -18 -15t-25 -7q-20 0 -26.5 12t-6.5 21q0 11 5.5 20.5t15.5 22.5l63 80q6 7 16.5 15.5t27.5 8.5q21 0 32.5 -14.5t11.5 -32.5q0 -16 -7 -25.5
t-14 -17.5z" />
    <glyph glyph-name="icircumflex" unicode="&#xee;" 
d="M235 25q0 -17 -8 -21t-17 -4h-153q-16 0 -18.5 8t-2.5 20v464q0 11 4 18.5t21 7.5h150q14 0 19 -5t5 -19v-469zM182 597q-11 5 -22.5 9t-25.5 4t-25 -4.5t-21 -9.5q-18 -11 -29 -17.5t-17.5 -10t-11 -4.5t-9.5 -1q-15 0 -23.5 9.5t-8.5 20.5q0 12 6.5 19t25.5 24
q15 11 29 24t27 27q8 8 11 12q12 12 21 18.5t23 6.5t23 -7q2 -1 7.5 -5.5t12 -10t12 -10t7.5 -5.5q8 -7 23.5 -19.5t28.5 -23.5q24 -18 30 -26t6 -19q0 -17 -10.5 -25.5t-22.5 -8.5q-8 0 -14 2.5t-12 6.5z" />
    <glyph glyph-name="idieresis" unicode="&#xef;" 
d="M235 25q0 -17 -8 -21t-17 -4h-153q-16 0 -18.5 8t-2.5 20v464q0 11 4 18.5t21 7.5h150q14 0 19 -5t5 -19v-469zM117 640q1 -11 -2.5 -25t-13.5 -26.5t-27.5 -21t-45.5 -8.5q-43 0 -64 23t-21 52q0 19 8 33t20.5 24t28 15t31.5 5q32 0 57.5 -18.5t28.5 -52.5zM329 640
q1 -11 -2.5 -25t-13.5 -26.5t-27.5 -21t-45.5 -8.5q-43 0 -64 23t-21 52q0 19 7.5 33t20 24t28.5 15t32 5q32 0 57.5 -18t28.5 -53z" />
    <glyph glyph-name="eth" unicode="&#xf0;" horiz-adv-x="521" 
d="M435 718q4 1 6.5 1.5t4.5 0.5q4 0 6 -2.5t4 -4.5q1 -1 4.5 -8.5t7.5 -16.5t7 -17t3 -10q0 -5 -3 -6t-6 -3q-4 -2 -21.5 -6.5t-31.5 -8.5q43 -75 63 -158t20 -170q0 -16 -1 -46t-8 -66t-21 -73.5t-41 -68.5t-68 -50.5t-101 -19.5q-47 0 -90 16t-75.5 49.5t-52 85.5
t-19.5 125q0 61 14 110.5t39 84.5t60 54t76 19q29 0 46 -9t25 -15q-5 17 -14 39.5t-23 45.5l-94 -25q-6 -2 -9 -2q-5 0 -6.5 2.5t-3.5 5.5t-5.5 10.5t-7 16t-6.5 16t-3 9.5q0 4 2.5 5.5t12.5 4.5l79 22q-13 19 -24.5 32.5t-13.5 15.5q-3 5 -5.5 8t-2.5 8q0 6 8 11
q5 3 17.5 7t20.5 6l66 20q8 2 15.5 4t15.5 2q9 0 15.5 -3.5t11.5 -8.5q8 -6 21.5 -22.5t24.5 -33.5zM299 274q0 19 -0.5 36.5t-2.5 38.5q-1 10 -2.5 22.5t-5.5 23.5t-10.5 18.5t-16.5 7.5t-16.5 -7t-10 -17.5t-5 -23t-2.5 -22.5q-2 -14 -2.5 -30.5t-1.5 -32t-1 -27.5v-16
q0 -20 0.5 -43t4 -43t10.5 -33t21 -13t22.5 12t12.5 34t5 51t1 64z" />
    <glyph glyph-name="ntilde" unicode="&#xf1;" horiz-adv-x="542" 
d="M503 25q0 -17 -6.5 -21t-21.5 -4h-142q-14 -1 -19 5t-5 21v339q0 13 -0.5 25t-4.5 21.5t-11.5 15t-20.5 5.5q-15 0 -23 -6.5t-12 -17t-4.5 -24t-0.5 -27.5v-335q0 -17 -9 -19.5t-21 -2.5h-140q-17 0 -20.5 7t-3.5 21v395q0 25 6 42t33 31q22 12 49.5 19t54.5 11t52 5.5
t43 1.5q13 0 26 -0.5t26 -1.5q29 -2 57.5 -7t51.5 -16q24 -12 37.5 -26.5t20 -29t7.5 -27.5t1 -21v-379zM264 597q-26 13 -36 17t-17 4q-11 0 -20 -7t-14 -12q-13 -14 -18.5 -18.5t-13.5 -4.5q-17 0 -23.5 12.5t-6.5 26.5q0 24 8.5 42t22.5 31t31.5 19.5t35.5 6.5
q20 0 34.5 -6t25.5 -13q22 -13 31.5 -17.5t22.5 -4.5q17 0 27 7.5t16 14.5q10 11 15.5 16t14.5 5q17 0 23 -15q2 -4 2.5 -8.5t0.5 -9.5q0 -18 -7 -36.5t-19.5 -33t-31 -24t-42.5 -9.5q-22 0 -36.5 6t-25.5 11z" />
    <glyph glyph-name="ograve" unicode="&#xf2;" horiz-adv-x="521" 
d="M499 270q3 -77 -17.5 -131t-55 -88.5t-79 -50t-90.5 -15.5q-44 0 -86.5 15t-75.5 47t-53.5 83.5t-20.5 123.5q0 67 12 107t29 67q37 58 89.5 81.5t109.5 23.5t100.5 -20.5t73.5 -56t46 -83t18 -102.5v-1zM298 274q0 17 -0.5 34.5t-2.5 40.5q-1 10 -2.5 22.5t-5.5 23.5
t-10.5 18.5t-16.5 7.5t-16 -7t-9.5 -17.5t-5.5 -23t-3 -22.5q-2 -14 -2.5 -30.5t-1 -32t-0.5 -27.5v-17q0 -20 0.5 -42.5t4 -42t10.5 -32.5t20 -13q14 0 22.5 12t12.5 33.5t5 51t1 63.5zM273 635q10 -13 15.5 -22.5t5.5 -20.5q0 -9 -6.5 -21t-25.5 -12q-16 0 -26 7t-18 15
l-74 68q-8 8 -15 17.5t-7 25.5q0 18 12 32.5t33 14.5q17 0 27.5 -8.5t16.5 -15.5z" />
    <glyph glyph-name="oacute" unicode="&#xf3;" horiz-adv-x="521" 
d="M499 270q3 -77 -17.5 -131t-55 -88.5t-79 -50t-90.5 -15.5q-44 0 -86.5 15t-75.5 47t-53.5 83.5t-20.5 123.5q0 67 12 107t29 67q37 58 89.5 81.5t109.5 23.5t100.5 -20.5t73.5 -56t46 -83t18 -102.5v-1zM298 274q0 17 -0.5 34.5t-2.5 40.5q-1 10 -2.5 22.5t-5.5 23.5
t-10.5 18.5t-16.5 7.5t-16 -7t-9.5 -17.5t-5.5 -23t-3 -22.5q-2 -14 -2.5 -30.5t-1 -32t-0.5 -27.5v-17q0 -20 0.5 -42.5t4 -42t10.5 -32.5t20 -13q14 0 22.5 12t12.5 33.5t5 51t1 63.5zM299 581q-8 -8 -18 -15t-25 -7q-20 0 -26.5 12t-6.5 21q0 11 5.5 20.5t15.5 22.5
l63 80q6 7 16.5 15.5t27.5 8.5q21 0 32.5 -14.5t11.5 -32.5q0 -16 -7 -25.5t-14 -17.5z" />
    <glyph glyph-name="ocircumflex" unicode="&#xf4;" horiz-adv-x="521" 
d="M499 270q3 -77 -17.5 -131t-55 -88.5t-79 -50t-90.5 -15.5q-44 0 -86.5 15t-75.5 47t-53.5 83.5t-20.5 123.5q0 67 12 107t29 67q37 58 89.5 81.5t109.5 23.5t100.5 -20.5t73.5 -56t46 -83t18 -102.5v-1zM298 274q0 17 -0.5 34.5t-2.5 40.5q-1 10 -2.5 22.5t-5.5 23.5
t-10.5 18.5t-16.5 7.5t-16 -7t-9.5 -17.5t-5.5 -23t-3 -22.5q-2 -14 -2.5 -30.5t-1 -32t-0.5 -27.5v-17q0 -20 0.5 -42.5t4 -42t10.5 -32.5t20 -13q14 0 22.5 12t12.5 33.5t5 51t1 63.5zM306 597q-11 5 -22.5 9t-25.5 4t-25 -4.5t-21 -9.5q-18 -11 -29 -17.5t-17.5 -10
t-11 -4.5t-9.5 -1q-15 0 -23.5 9.5t-8.5 20.5q0 12 6.5 19t25.5 24q15 11 29 24t27 27q8 8 11 12q12 12 21 18.5t23 6.5t23 -7q2 -1 7.5 -5.5t12 -10t12 -10t7.5 -5.5q8 -7 23.5 -19.5t28.5 -23.5q24 -18 30 -26t6 -19q0 -17 -10.5 -25.5t-22.5 -8.5q-8 0 -14 2.5t-12 6.5z
" />
    <glyph glyph-name="otilde" unicode="&#xf5;" horiz-adv-x="521" 
d="M499 270q3 -77 -17.5 -131t-55 -88.5t-79 -50t-90.5 -15.5q-44 0 -86.5 15t-75.5 47t-53.5 83.5t-20.5 123.5q0 67 12 107t29 67q37 58 89.5 81.5t109.5 23.5t100.5 -20.5t73.5 -56t46 -83t18 -102.5v-1zM298 274q0 17 -0.5 34.5t-2.5 40.5q-1 10 -2.5 22.5t-5.5 23.5
t-10.5 18.5t-16.5 7.5t-16 -7t-9.5 -17.5t-5.5 -23t-3 -22.5q-2 -14 -2.5 -30.5t-1 -32t-0.5 -27.5v-17q0 -20 0.5 -42.5t4 -42t10.5 -32.5t20 -13q14 0 22.5 12t12.5 33.5t5 51t1 63.5zM252 597q-26 13 -36 17t-17 4q-11 0 -20 -7t-14 -12q-13 -14 -18.5 -18.5t-13.5 -4.5
q-17 0 -23.5 12.5t-6.5 26.5q0 24 8.5 42t22.5 31t31.5 19.5t35.5 6.5q20 0 34.5 -6t25.5 -13q22 -13 31.5 -17.5t22.5 -4.5q17 0 27 7.5t16 14.5q10 11 15.5 16t14.5 5q17 0 23 -15q2 -4 2.5 -8.5t0.5 -9.5q0 -18 -7 -36.5t-19.5 -33t-31 -24t-42.5 -9.5q-22 0 -36.5 6
t-25.5 11z" />
    <glyph glyph-name="odieresis" unicode="&#xf6;" horiz-adv-x="521" 
d="M499 270q3 -77 -17.5 -131t-55 -88.5t-79 -50t-90.5 -15.5q-44 0 -86.5 15t-75.5 47t-53.5 83.5t-20.5 123.5q0 67 12 107t29 67q37 58 89.5 81.5t109.5 23.5t100.5 -20.5t73.5 -56t46 -83t18 -102.5v-1zM298 274q0 17 -0.5 34.5t-2.5 40.5q-1 10 -2.5 22.5t-5.5 23.5
t-10.5 18.5t-16.5 7.5t-16 -7t-9.5 -17.5t-5.5 -23t-3 -22.5q-2 -14 -2.5 -30.5t-1 -32t-0.5 -27.5v-17q0 -20 0.5 -42.5t4 -42t10.5 -32.5t20 -13q14 0 22.5 12t12.5 33.5t5 51t1 63.5zM243 640q1 -11 -2.5 -25t-13.5 -26.5t-27.5 -21t-45.5 -8.5q-43 0 -64 23t-21 52
q0 19 8 33t20.5 24t28 15t31.5 5q32 0 57.5 -18.5t28.5 -52.5zM455 640q1 -11 -2.5 -25t-13.5 -26.5t-27.5 -21t-45.5 -8.5q-43 0 -64 23t-21 52q0 19 7.5 33t20 24t28.5 15t32 5q32 0 57.5 -18t28.5 -53z" />
    <glyph glyph-name="divide" unicode="&#xf7;" horiz-adv-x="500" 
d="M331 108q-1 -18 -8 -32.5t-18 -24.5t-25 -15.5t-29 -5.5q-33 0 -57 23t-24 56q0 34 23.5 58t57.5 24q18 0 33.5 -7.5t26 -19t16 -26.5t4.5 -30zM500 227h-499v126h499v-126zM331 468q1 -32 -22.5 -55.5t-59.5 -23.5q-30 0 -54.5 22t-24.5 57q0 37 25 59.5t55 22.5
q35 0 58 -23.5t23 -58.5z" />
    <glyph glyph-name="oslash" unicode="&#xf8;" horiz-adv-x="521" 
d="M442 449q18 -23 29 -49t17 -52t8.5 -51.5t2.5 -47.5q0 -62 -17 -111t-48.5 -83t-76 -52.5t-98.5 -18.5q-30 0 -52 5t-38 12t-26.5 15t-16.5 13l-60 -78q-8 -11 -14 -11q-2 0 -9 4t-14 9t-12.5 11t-5.5 9q0 5 5 12l65 85q-30 41 -43.5 89t-13.5 99q0 60 15.5 110t45.5 87
t74.5 57.5t103.5 20.5q28 0 50 -4.5t38.5 -10.5t27.5 -13t19 -12l59 77q7 8 9 10.5t6 2.5t8.5 -3t20.5 -17q8 -7 10 -9t3 -5q0 -4 -1.5 -7t-3.5 -5zM216 149q3 -21 13.5 -39t30.5 -18q13 0 21.5 7.5t14 17.5t8 20.5t3.5 16.5q3 14 4.5 33l3 38t2 35t0.5 24zM308 373
q-2 11 -4.5 22t-7.5 20t-12.5 14.5t-18.5 5.5q-13 0 -21.5 -7.5t-14 -18t-8 -22t-3.5 -18.5q-3 -19 -5.5 -42t-4 -43.5t-2 -33.5l-0.5 -13z" />
    <glyph glyph-name="ugrave" unicode="&#xf9;" horiz-adv-x="521" 
d="M487 120q0 -20 -1.5 -34.5t-8.5 -27.5q-9 -18 -31 -31.5t-51 -23t-63.5 -14t-68.5 -4.5q-74 0 -119 13.5t-69 37t-32 54t-8 64.5v342q0 15 8 18.5t18 3.5h141q11 0 19 -3.5t8 -19.5v-330q0 -21 4 -36.5t28 -15.5q22 0 26 15.5t4 36.5v327q1 12 3.5 19t19.5 7h146
q12 0 19.5 -4t7.5 -20v-374zM273 635q10 -13 15.5 -22.5t5.5 -20.5q0 -9 -6.5 -21t-25.5 -12q-16 0 -26 7t-18 15l-74 68q-8 8 -15 17.5t-7 25.5q0 18 12 32.5t33 14.5q17 0 27.5 -8.5t16.5 -15.5z" />
    <glyph glyph-name="uacute" unicode="&#xfa;" horiz-adv-x="521" 
d="M487 120q0 -20 -1.5 -34.5t-8.5 -27.5q-9 -18 -31 -31.5t-51 -23t-63.5 -14t-68.5 -4.5q-74 0 -119 13.5t-69 37t-32 54t-8 64.5v342q0 15 8 18.5t18 3.5h141q11 0 19 -3.5t8 -19.5v-330q0 -21 4 -36.5t28 -15.5q22 0 26 15.5t4 36.5v327q1 12 3.5 19t19.5 7h146
q12 0 19.5 -4t7.5 -20v-374zM299 581q-8 -8 -18 -15t-25 -7q-20 0 -26.5 12t-6.5 21q0 11 5.5 20.5t15.5 22.5l63 80q6 7 16.5 15.5t27.5 8.5q21 0 32.5 -14.5t11.5 -32.5q0 -16 -7 -25.5t-14 -17.5z" />
    <glyph glyph-name="ucircumflex" unicode="&#xfb;" horiz-adv-x="521" 
d="M487 120q0 -20 -1.5 -34.5t-8.5 -27.5q-9 -18 -31 -31.5t-51 -23t-63.5 -14t-68.5 -4.5q-74 0 -119 13.5t-69 37t-32 54t-8 64.5v342q0 15 8 18.5t18 3.5h141q11 0 19 -3.5t8 -19.5v-330q0 -21 4 -36.5t28 -15.5q22 0 26 15.5t4 36.5v327q1 12 3.5 19t19.5 7h146
q12 0 19.5 -4t7.5 -20v-374zM306 597q-11 5 -22.5 9t-25.5 4t-25 -4.5t-21 -9.5q-18 -11 -29 -17.5t-17.5 -10t-11 -4.5t-9.5 -1q-15 0 -23.5 9.5t-8.5 20.5q0 12 6.5 19t25.5 24q15 11 29 24t27 27q8 8 11 12q12 12 21 18.5t23 6.5t23 -7q2 -1 7.5 -5.5t12 -10t12 -10
t7.5 -5.5q8 -7 23.5 -19.5t28.5 -23.5q24 -18 30 -26t6 -19q0 -17 -10.5 -25.5t-22.5 -8.5q-8 0 -14 2.5t-12 6.5z" />
    <glyph glyph-name="udieresis" unicode="&#xfc;" horiz-adv-x="521" 
d="M487 120q0 -20 -1.5 -34.5t-8.5 -27.5q-9 -18 -31 -31.5t-51 -23t-63.5 -14t-68.5 -4.5q-74 0 -119 13.5t-69 37t-32 54t-8 64.5v342q0 15 8 18.5t18 3.5h141q11 0 19 -3.5t8 -19.5v-330q0 -21 4 -36.5t28 -15.5q22 0 26 15.5t4 36.5v327q1 12 3.5 19t19.5 7h146
q12 0 19.5 -4t7.5 -20v-374zM244 640q1 -11 -2.5 -25t-13.5 -26.5t-27.5 -21t-45.5 -8.5q-43 0 -64 23t-21 52q0 19 8 33t20.5 24t28 15t31.5 5q32 0 57.5 -18.5t28.5 -52.5zM456 640q1 -11 -2.5 -25t-13.5 -26.5t-27.5 -21t-45.5 -8.5q-43 0 -64 23t-21 52q0 19 7.5 33
t20 24t28.5 15t32 5q32 0 57.5 -18t28.5 -53z" />
    <glyph glyph-name="yacute" unicode="&#xfd;" horiz-adv-x="500" 
d="M315 -64q-11 -30 -25 -62t-36.5 -59t-56 -44.5t-82.5 -17.5q-30 0 -51.5 8.5t-36 21.5t-21 29.5t-6.5 33.5q0 33 22 54t53 21q12 0 20 -3t17 -8q7 -3 13.5 -6t13.5 -3q17 0 25 11t22 37l-181 532q-3 10 -4 14t-1 7q0 12 8 14t15 2h155q15 0 19.5 -3t9.5 -21l64 -271
l71 265q5 19 9.5 24.5t21.5 5.5h105q8 0 16 -2t8 -14q0 -4 -1 -8.5t-3 -10.5zM290 581q-8 -8 -18 -15t-25 -7q-20 0 -26.5 12t-6.5 21q0 11 5.5 20.5t15.5 22.5l63 80q6 7 16.5 15.5t27.5 8.5q21 0 32.5 -14.5t11.5 -32.5q0 -16 -7 -25.5t-14 -17.5z" />
    <glyph glyph-name="thorn" unicode="&#xfe;" horiz-adv-x="521" 
d="M229 527q10 2 28 4t40 2q40 0 77 -11t67 -43q26 -28 43 -75.5t17 -125.5q0 -63 -13.5 -117t-40 -93.5t-65.5 -62t-89 -22.5q-25 0 -39.5 4t-23.5 7v-201q0 -11 -3.5 -18.5t-20.5 -6.5h-139q-17 0 -22.5 5t-5.5 19v946q0 15 4.5 21t21.5 6h137q14 0 21 -4t6 -20v-214z
M230 109q4 -2 6.5 -2.5t8.5 -0.5q18 0 27 8t14 20q11 25 14 58.5t3 56.5q0 24 -2.5 54.5t-8.5 57.5t-16 45.5t-25 18.5t-18 -13t-3 -27v-276z" />
    <glyph glyph-name="ydieresis" unicode="&#xff;" horiz-adv-x="500" 
d="M315 -64q-11 -30 -25 -62t-36.5 -59t-56 -44.5t-82.5 -17.5q-30 0 -51.5 8.5t-36 21.5t-21 29.5t-6.5 33.5q0 33 22 54t53 21q12 0 20 -3t17 -8q7 -3 13.5 -6t13.5 -3q17 0 25 11t22 37l-181 532q-3 10 -4 14t-1 7q0 12 8 14t15 2h155q15 0 19.5 -3t9.5 -21l64 -271
l71 265q5 19 9.5 24.5t21.5 5.5h105q8 0 16 -2t8 -14q0 -4 -1 -8.5t-3 -10.5zM233 640q1 -11 -2.5 -25t-13.5 -26.5t-27.5 -21t-45.5 -8.5q-43 0 -64 23t-21 52q0 19 8 33t20.5 24t28 15t31.5 5q32 0 57.5 -18.5t28.5 -52.5zM445 640q1 -11 -2.5 -25t-13.5 -26.5t-27.5 -21
t-45.5 -8.5q-43 0 -64 23t-21 52q0 19 7.5 33t20 24t28.5 15t32 5q32 0 57.5 -18t28.5 -53z" />
    <glyph glyph-name="OE" unicode="&#x152;" horiz-adv-x="833" 
d="M435 0q-19 0 -22 7t-3 30q-8 -7 -20.5 -16.5t-29.5 -18t-39 -14.5t-49 -6q-50 0 -94 23.5t-78 70t-53.5 115.5t-19.5 161q0 105 21 172.5t51 107.5q38 51 87.5 72t93.5 21q29 0 50.5 -6t37 -15t26 -19t16.5 -17q0 26 3 32t22 7h351q13 0 20 -3.5t7 -19.5v-91
q0 -14 -4 -21t-21 -7h-185v-137h146q14 0 21.5 -3t6.5 -20v-92q0 -13 -5.5 -17.5t-20.5 -4.5h-148v-145h182q15 0 21.5 -5.5t6.5 -22.5v-92q0 -16 -6.5 -21t-22.5 -5h-349zM410 365q0 38 -2 74.5t-11 72.5q-8 30 -19.5 47.5t-23 25.5t-21 10t-12.5 2q-8 0 -18 -3t-20 -11
t-18.5 -22.5t-14.5 -38.5q-8 -35 -9.5 -71t-1.5 -72q0 -136 21 -196t65 -60q31 0 48 23.5t25 59t10 78t2 81.5z" />
    <glyph glyph-name="oe" unicode="&#x153;" horiz-adv-x="771" 
d="M474 250q8 -53 39 -76t78 -23q32 0 48 8.5t26 16.5q17 16 26 22t20 6q15 0 25.5 -12.5t10.5 -34.5q0 -16 -9 -44.5t-30 -57t-55.5 -49.5t-85.5 -21q-39 0 -67 9.5t-47 22.5t-30 26.5t-17 21.5q-7 -9 -19 -23t-31 -27t-45.5 -22t-62.5 -9q-13 0 -35 3t-47 12.5t-50.5 28
t-46.5 49t-34 75t-13 106.5q0 79 20.5 132t53.5 85t74.5 45.5t84.5 13.5q34 0 57.5 -7t41 -18t29.5 -24t23 -26q10 14 24 27t32 23.5t42 17t54 6.5q47 0 82.5 -15.5t59.5 -43t36.5 -64.5t12.5 -79q0 -19 -4.5 -30t-12 -16.5t-16 -7t-17.5 -2.5zM589 347q0 9 -1 22t-6.5 26
t-16.5 22t-32 9q-28 0 -47 -25q-11 -15 -14 -33t-4 -34zM304 271q1 30 0.5 58t-5 49.5t-14 34.5t-27.5 13q-29 0 -40 -40.5t-11 -137.5q0 -76 10.5 -107.5t36.5 -31.5q13 0 22.5 8.5t15 27.5t8.5 50t4 76z" />
    <glyph glyph-name="Scaron" unicode="&#x160;" horiz-adv-x="542" 
d="M161 305q-59 36 -94.5 86t-35.5 120q0 56 18.5 96t50.5 66t74.5 38.5t90.5 12.5q71 0 116.5 -18.5t71.5 -44t36 -52t10 -42.5q0 -36 -24.5 -59t-62.5 -23q-19 0 -32 5t-22.5 14t-17 20.5t-14.5 24.5q-11 19 -26.5 38t-39.5 19q-18 0 -28.5 -13.5t-10.5 -36.5
q0 -17 5 -28.5t18 -23.5t35.5 -25.5t58.5 -34.5q33 -19 66 -39.5t58.5 -48t41.5 -65t16 -89.5q0 -69 -26 -112t-64.5 -67t-82 -32.5t-79.5 -8.5q-66 0 -113 18.5t-76 46.5t-42.5 61.5t-13.5 62.5q0 24 9 40.5t22 27t28 15t28 4.5q23 0 39.5 -8.5t29 -21.5t21 -28.5
t16.5 -30.5q10 -22 25 -39t39 -17q16 0 28.5 11.5t12.5 34.5q0 19 -9 37.5t-39 40.5q-3 2 -11 6.5t-17 10t-17 10.5t-11 7zM365 919q7 3 13.5 6t13.5 3q11 0 20.5 -9.5t9.5 -25.5q0 -14 -7 -22.5t-28 -25.5q-16 -13 -25.5 -22t-17 -16.5t-14.5 -15t-16 -17.5
q-10 -11 -17.5 -17t-23.5 -6q-18 0 -26 5.5t-16 13.5l-20.5 20.5t-17 16t-18 15t-22.5 18.5q-19 14 -26 22t-7 23q0 17 10 29t21 12q9 0 24 -10l58 -31q7 -4 15.5 -7.5t20.5 -3.5q11 0 19.5 3t14.5 7z" />
    <glyph glyph-name="scaron" unicode="&#x161;" horiz-adv-x="437" 
d="M312 311q13 -6 31.5 -17t35.5 -29t29.5 -45t12.5 -64q0 -27 -9 -57t-31.5 -55.5t-60.5 -42t-97 -16.5t-99 14t-64.5 34.5t-35 44t-10.5 43.5q0 14 4.5 28t14 25t23.5 17.5t33 6.5q29 0 44.5 -12.5t21.5 -20.5t10 -15t11 -18q7 -10 17 -22t25 -12q11 0 21 9t10 26
q0 23 -17 35.5t-54 31.5l-43 20q-14 7 -33.5 18t-36.5 29t-29 43.5t-12 61.5q0 21 7.5 49t29 53t61 42t103.5 17q50 0 84.5 -11t55.5 -28t30.5 -38t9.5 -41q0 -27 -17 -49t-50 -22q-16 0 -28 5t-21 12.5t-16 17.5t-13 20q-9 16 -18.5 27.5t-24.5 11.5q-14 0 -21.5 -10.5
t-7.5 -25.5q0 -26 19.5 -39t44.5 -24zM173 685q11 -5 22 -9.5t25 -4.5t25 4.5t21 9.5q18 11 29 17.5t18 10t11.5 4.5t9.5 1q14 0 22.5 -9.5t8.5 -20.5q0 -12 -6.5 -19.5t-12.5 -12.5q-3 -2 -10 -8t-14.5 -12.5t-14.5 -12.5t-9 -8q-4 -4 -16 -16.5t-16 -16.5
q-12 -12 -21 -18.5t-23 -6.5q-13 0 -25 7q-1 0 -6 4.5t-11.5 10t-12 10.5t-6.5 6q-8 7 -23.5 19.5t-29.5 23.5q-23 18 -29.5 26t-6.5 19q0 17 10.5 25.5t22.5 8.5q8 0 14.5 -2.5t12.5 -6.5z" />
    <glyph glyph-name="Ydieresis" unicode="&#x178;" horiz-adv-x="542" 
d="M377 305v-283q0 -17 -8 -19.5t-16 -2.5h-164q-14 0 -21 4.5t-7 21.5v286l-153 356q-6 13 -6 20q0 11 7.5 15t17.5 3h173q15 0 22.5 -4t14.5 -22l60 -183l70 181q7 17 13.5 23t22.5 5h112q8 0 16.5 -1.5t8.5 -14.5q0 -5 -2 -9.5t-4 -10.5zM258 840q1 -14 -3 -29t-15 -28
t-29 -21t-44 -8q-41 0 -68 19.5t-27 57.5q0 36 25.5 58t68.5 22q41 0 65.5 -19.5t26.5 -51.5zM485 840q1 -14 -3.5 -29t-15 -28t-28.5 -21t-45 -8q-40 0 -67.5 19.5t-27.5 57.5q0 36 25.5 58t69.5 22q40 0 64.5 -19.5t27.5 -51.5z" />
    <glyph glyph-name="florin" unicode="&#x192;" horiz-adv-x="396" 
d="M281 385l-36 -285q-6 -38 -16 -80t-35 -84q-18 -29 -41.5 -53t-52 -41.5t-59.5 -27.5t-64 -10q-15 0 -34.5 3.5t-37.5 12t-30 23t-12 37.5q0 29 20.5 50t51.5 21q17 0 29 -7t19 -13q11 -9 17 -12t14 -3q19 0 25.5 24.5t12.5 78.5q2 24 4.5 48t5.5 49l27 268h-48
q-8 0 -13.5 2t-5.5 12q0 1 0.5 7t1 13.5t1.5 15t2 10.5q2 11 8.5 13.5t14.5 2.5h47q2 15 5.5 35.5t10.5 43.5t18 47t28 47q27 37 71 62.5t97 25.5q24 0 40 -6t26 -15.5t14 -22t4 -24.5q0 -19 -7 -33t-17 -23t-22.5 -13.5t-22.5 -4.5q-15 0 -27 6t-26 6q-20 0 -31 -14.5
t-11 -32.5q0 -10 4.5 -21.5t11 -22.5t13.5 -21.5t12 -17.5h60q8 0 14 -1.5t6 -10.5q0 -1 -0.5 -8.5t-1.5 -17t-2 -17.5t-1 -9q-2 -8 -8 -10t-13 -2h-61z" />
    <glyph glyph-name="circumflex" unicode="&#x2c6;" 
d="M182 597q-11 5 -22.5 9t-25.5 4t-25 -4.5t-21 -9.5q-18 -11 -29 -17.5t-17.5 -10t-11 -4.5t-9.5 -1q-15 0 -23.5 9.5t-8.5 20.5q0 12 6.5 19t25.5 24q15 11 29 24t27 27q8 8 11 12q12 12 21 18.5t23 6.5t23 -7q2 -1 7.5 -5.5t12 -10t12 -10t7.5 -5.5q8 -7 23.5 -19.5
t28.5 -23.5q24 -18 30 -26t6 -19q0 -17 -10.5 -25.5t-22.5 -8.5q-8 0 -14 2.5t-12 6.5z" />
    <glyph glyph-name="tilde" unicode="&#x2dc;" 
d="M129 597q-26 13 -36 17t-17 4q-11 0 -20 -7t-14 -12q-13 -14 -18.5 -18.5t-13.5 -4.5q-17 0 -23.5 12.5t-6.5 26.5q0 24 8.5 42t22.5 31t31.5 19.5t35.5 6.5q20 0 34.5 -6t25.5 -13q22 -13 31.5 -17.5t22.5 -4.5q17 0 27 7.5t16 14.5q10 11 15.5 16t14.5 5q17 0 23 -15
q2 -4 2.5 -8.5t0.5 -9.5q0 -18 -7 -36.5t-19.5 -33t-31 -24t-42.5 -9.5q-22 0 -36.5 6t-25.5 11z" />
    <glyph glyph-name="endash" unicode="&#x2013;" horiz-adv-x="521" 
d="M491 259q1 -14 -6 -17.5t-19 -3.5h-412q-12 0 -18 3t-6 18v65q0 20 22 20h414q25 0 25 -23v-62z" />
    <glyph glyph-name="emdash" unicode="&#x2014;" horiz-adv-x="667" 
d="M614 344q10 0 15.5 -2.5t7.5 -10.5v-46q0 -14 -6.5 -18t-17.5 -4h-562q-13 0 -17.5 4t-4.5 16v28.5t1 18.5q2 10 7.5 12t13.5 2h563z" />
    <glyph glyph-name="quoteleft" unicode="&#x2018;" horiz-adv-x="250" 
d="M199 683q-21 -35 -30 -53t-9 -34t7 -28.5t16 -25.5q14 -19 21.5 -32t7.5 -33q0 -31 -23.5 -53.5t-61.5 -22.5q-47 0 -71.5 33.5t-24.5 78.5q0 40 16 81t38.5 74t47 53.5t41.5 20.5q14 0 24 -10t10 -24q0 -8 -2.5 -13.5t-6.5 -11.5z" />
    <glyph glyph-name="quoteright" unicode="&#x2019;" horiz-adv-x="250" 
d="M51 460q21 35 29.5 53t8.5 33q0 17 -6.5 29.5t-16.5 25.5q-14 18 -21 31.5t-7 33.5q0 31 23.5 53.5t61.5 22.5q24 0 42 -9t30 -24.5t18 -36t6 -43.5q0 -40 -16 -80.5t-38.5 -73.5t-47 -53.5t-41.5 -20.5q-14 0 -24 10t-10 24q0 8 2.5 13t6.5 12z" />
    <glyph glyph-name="quotesinglbase" unicode="&#x201a;" horiz-adv-x="250" 
d="M51 -86q21 35 29.5 52.5t8.5 33.5q0 17 -6.5 29.5t-16.5 25.5q-14 18 -21 31.5t-7 33.5q0 30 23.5 52.5t61.5 22.5q47 0 71.5 -33.5t24.5 -78.5q0 -40 -16 -80.5t-38.5 -73.5t-47 -53.5t-41.5 -20.5q-14 0 -24 10t-10 24q0 8 2.5 13t6.5 12z" />
    <glyph glyph-name="quotedblleft" unicode="&#x201c;" horiz-adv-x="479" 
d="M428 683q-21 -35 -30 -53t-9 -34t7 -28.5t16 -25.5q14 -19 21.5 -32t7.5 -33q0 -31 -23.5 -53.5t-61.5 -22.5q-47 0 -71.5 33.5t-24.5 78.5q0 40 16 81t38.5 74t47 53.5t41.5 20.5q14 0 24 -10t10 -24q0 -8 -2.5 -13.5t-6.5 -11.5zM199 683q-21 -35 -30 -53t-9 -34
t7 -28.5t16 -25.5q14 -19 21.5 -32t7.5 -33q0 -31 -23.5 -53.5t-61.5 -22.5q-47 0 -71.5 33.5t-24.5 78.5q0 40 16 81t38.5 74t47 53.5t41.5 20.5q14 0 24 -10t10 -24q0 -8 -2.5 -13.5t-6.5 -11.5z" />
    <glyph glyph-name="quotedblright" unicode="&#x201d;" horiz-adv-x="479" 
d="M51 460q21 35 29.5 53t8.5 33q0 17 -6.5 29.5t-16.5 25.5q-14 18 -21 31.5t-7 33.5q0 31 23.5 53.5t61.5 22.5q24 0 42 -9t30 -24.5t18 -36t6 -43.5q0 -40 -16 -80.5t-38.5 -73.5t-47 -53.5t-41.5 -20.5q-14 0 -24 10t-10 24q0 8 2.5 13t6.5 12zM280 460q21 35 30 53
t9 33q0 17 -7 29.5t-16 25.5q-14 18 -21.5 31.5t-7.5 33.5q0 31 23.5 53.5t61.5 22.5q24 0 42 -9t30 -24.5t18 -36t6 -43.5q0 -40 -16 -80.5t-38.5 -73.5t-47 -53.5t-41.5 -20.5q-14 0 -24 10t-10 24q0 8 2.5 13t6.5 12z" />
    <glyph glyph-name="quotedblbase" unicode="&#x201e;" horiz-adv-x="479" 
d="M51 -86q21 35 29.5 52.5t8.5 33.5q0 17 -6.5 29.5t-16.5 25.5q-14 18 -21 31.5t-7 33.5q0 30 23.5 52.5t61.5 22.5q47 0 71.5 -33.5t24.5 -78.5q0 -40 -16 -80.5t-38.5 -73.5t-47 -53.5t-41.5 -20.5q-14 0 -24 10t-10 24q0 8 2.5 13t6.5 12zM280 -86q21 35 30 52.5
t9 33.5q0 17 -7 29.5t-16 25.5q-14 18 -21.5 31.5t-7.5 33.5q0 30 23.5 52.5t61.5 22.5q47 0 71.5 -33.5t24.5 -78.5q0 -40 -16 -80.5t-38.5 -73.5t-47 -53.5t-41.5 -20.5q-14 0 -24 10t-10 24q0 8 2.5 13t6.5 12z" />
    <glyph glyph-name="dagger" unicode="&#x2020;" horiz-adv-x="500" 
d="M319 377l33 -342q2 -10 2 -15q0 -16 -9.5 -18.5t-14.5 -1.5h-148q-16 0 -24 5t-6 26l31 346l-146 -9q-17 -2 -22.5 3t-5.5 22v97q1 14 5 21.5t23 6.5l146 -8l-25 167q-1 3 -1 9q0 13 7 16t18 4h138q10 0 16.5 -2.5t6.5 -14.5q0 -6 -1 -9l-23 -170l144 8q12 0 20 -2.5
t8 -19.5v-102q0 -16 -6 -21.5t-24 -4.5z" />
    <glyph glyph-name="daggerdbl" unicode="&#x2021;" horiz-adv-x="500" 
d="M313 162l27 -135q1 -4 1 -11q0 -11 -7 -13.5t-15 -2.5h-135q-9 0 -16.5 2.5t-7.5 14.5q0 2 0.5 4.5t0.5 4.5l24 136l-146 -10q-17 -1 -22.5 4.5t-5.5 21.5v90q-1 17 7 21.5t22 2.5l145 -10v168l-145 -10q-20 -2 -24.5 5t-4.5 24v88q0 17 8 20.5t22 2.5l144 -9l-24 112
q0 2 -0.5 4t-0.5 4q0 11 8 13t14 2h137q7 0 15.5 -2t8.5 -14q0 -4 -2 -12l-28 -107l153 10q14 1 19 -4t4 -18v-95q0 -16 -6.5 -21t-22.5 -3l-147 10v-168l151 10q16 2 20.5 -3t4.5 -19v-93q0 -16 -5.5 -21.5t-22.5 -3.5z" />
    <glyph glyph-name="bullet" unicode="&#x2022;" horiz-adv-x="333" 
d="M322 352q0 -27 -9.5 -55t-28 -50t-47.5 -36t-68 -14q-38 0 -67 14t-49 36.5t-30.5 50t-10.5 54.5q0 32 12.5 60.5t33.5 49.5t49.5 33.5t61.5 12.5q32 0 60 -11.5t48.5 -32.5t32.5 -49.5t12 -62.5z" />
    <glyph glyph-name="ellipsis" unicode="&#x2026;" horiz-adv-x="1000" 
d="M262 92q0 -18 -7 -35.5t-19 -31.5t-29.5 -22.5t-39.5 -8.5t-40 8.5t-30.5 22.5t-19.5 32t-7 38q0 24 9 43t23 31.5t31 19.5t33 7q19 0 36.5 -8t31 -21.5t21 -33t7.5 -41.5zM595 92q0 -18 -7 -35.5t-19 -31.5t-29.5 -22.5t-39.5 -8.5t-40 8.5t-30.5 22.5t-19.5 32t-7 38
q0 24 9 43t23 31.5t31 19.5t33 7q19 0 36.5 -8t31 -21.5t21 -33t7.5 -41.5zM928 92q0 -18 -7 -35.5t-19 -31.5t-29.5 -22.5t-39.5 -8.5t-40 8.5t-30.5 22.5t-19.5 32t-7 38q0 24 9 43t23 31.5t31 19.5t33 7q19 0 36.5 -8t31 -21.5t21 -33t7.5 -41.5z" />
    <glyph glyph-name="perthousand" unicode="&#x2030;" horiz-adv-x="1125" 
d="M313 481q0 -74 -15.5 -119t-38 -69t-47.5 -32t-44 -8q-44 0 -80 27.5t-53 84.5q-9 32 -12 64t-3 65q0 17 1.5 38.5t6.5 45t14 47t25 43.5q23 29 49 39.5t51 10.5q21 0 36.5 -5t27 -12t19 -14t10.5 -10q20 -22 30.5 -50.5t15.5 -56t6 -51.5t1 -38zM196 501q-1 49 -3 77.5
t-5.5 43.5t-9 19.5t-12.5 4.5q-11 0 -14.5 -7l-5.5 -11q-3 -10 -5 -26.5t-3 -34.5t-1 -35.5v-29.5v-30t1 -37t2 -37t4 -30q0 -3 1.5 -8t4 -10t7 -8.5t11.5 -3.5q8 0 13.5 5t9 22t5 49.5t0.5 86.5zM772 217q0 -74 -15.5 -119t-38 -69t-47.5 -32t-44 -8q-45 0 -81 27t-53 85
q-9 31 -12 63.5t-3 64.5q0 17 1.5 39t6.5 45.5t14 46.5t25 43q23 29 49 39.5t52 10.5q21 0 36.5 -5t27 -12t19 -14t10.5 -10q20 -22 30.5 -50t15.5 -56t6 -52t1 -37zM655 236q-1 49 -3 77.5t-6 43.5t-9.5 19.5t-12.5 4.5q-11 0 -14.5 -7l-5.5 -11q-3 -9 -5 -25.5t-3 -34.5
t-1 -35.5v-29.5v-30t1 -37t2 -37t4 -30q0 -3 1.5 -8t4.5 -10t7.5 -8.5t11.5 -3.5t13 5t9.5 22t5 49t0.5 86zM269 21q-8 -14 -13 -17.5t-18 -3.5h-48q-4 0 -10 1.5t-6 9.5q0 5 1.5 9t6.5 15l340 646q6 11 10.5 17t15.5 8h53q13 0 15 -6t2 -8q0 -4 -8 -20zM1105 217
q0 -74 -15.5 -119t-38 -69t-47.5 -32t-44 -8q-44 0 -80 27t-53 85q-9 31 -12 63.5t-3 64.5q0 17 1.5 39t6.5 45.5t14 46.5t25 43q23 29 49 39.5t51 10.5q21 0 36.5 -5t27 -12t19 -14t10.5 -10q20 -22 30.5 -50t15.5 -56t6 -52t1 -37zM988 236q-1 49 -3 77.5t-5.5 43.5
t-9 19.5t-12.5 4.5q-11 0 -14.5 -7l-5.5 -11q-3 -9 -5 -25.5t-3 -34.5t-1 -35.5v-29.5v-30t1 -37t2 -37t4 -30q0 -3 1.5 -8t4 -10t7 -8.5t11.5 -3.5q8 0 13.5 5t9 22t5 49t0.5 86z" />
    <glyph glyph-name="guilsinglleft" unicode="&#x2039;" 
d="M229 156q4 -6 6 -11t2 -13q0 -15 -9 -24.5t-23 -9.5q-10 0 -18.5 5t-19.5 17q-31 37 -66.5 70.5t-57.5 51.5q-15 12 -23 21t-8 24q0 18 10 28t20 18q20 16 52.5 45.5t70.5 71.5q14 16 21 22t20 6q14 0 23 -9.5t9 -22.5q0 -9 -3 -15.5t-7 -13.5l-52 -88q-5 -8 -9.5 -18
t-4.5 -24t5 -24.5t10 -19.5z" />
    <glyph glyph-name="guilsinglright" unicode="&#x203a;" 
d="M42 420q-4 6 -6.5 11t-2.5 13q0 15 9.5 24.5t23.5 9.5q18 0 38 -23q31 -36 66.5 -69.5t57.5 -51.5q15 -13 22.5 -21.5t7.5 -23.5q0 -18 -9.5 -28t-19.5 -18q-20 -16 -52.5 -46t-70.5 -72q-14 -15 -21 -21t-20 -6q-14 0 -23 9t-9 23q0 8 3 15t7 14l52 88q5 8 9.5 17.5
t4.5 23.5t-5 24.5t-10 20.5z" />
    <glyph glyph-name="trademark" unicode="&#x2122;" horiz-adv-x="688" 
d="M674 374h-82l4 177l5 67l-13 -53l-57 -191h-74l-59 192l-14 51l6 -66l5 -177h-81v332h106l76 -240l71 240h107v-332zM187 374h-84v265h-102v67h286v-67h-100v-265z" />
    </font>
</defs>
</svg>
