<?xml version="1.0" standalone="no"?>
<!DOCTYPE svg PUBLIC "-//W3C//DTD SVG 1.1//EN" "http://www.w3.org/Graphics/SVG/1.1/DTD/svg11.dtd" >
<svg xmlns="http://www.w3.org/2000/svg" xmlns:xlink="http://www.w3.org/1999/xlink" version="1.1">
<metadata>
Created by FontForge 20161013 at Tue Nov 23 14:47:39 2004
 By ,,,
(c) Nate Piekos. www.blambot.com
</metadata>
<defs>
<font id="CreativeBlockBBBold" horiz-adv-x="702" >
  <font-face 
    font-family="CreativeBlock BB"
    font-weight="700"
    font-stretch="normal"
    units-per-em="1024"
    panose-1="2 11 6 3 5 3 2 2 2 4"
    ascent="819"
    descent="-205"
    x-height="694"
    cap-height="710"
    bbox="-3 -177 1120 856"
    underline-thickness="0"
    underline-position="0"
    unicode-range="U+0020-2122"
  />
<missing-glyph horiz-adv-x="512" 
d="M64 0v810h384v-810h-384zM128 64h256v682h-256v-682z" />
    <glyph glyph-name=".notdef" horiz-adv-x="512" 
d="M64 0v810h384v-810h-384zM128 64h256v682h-256v-682z" />
    <glyph glyph-name=".null" horiz-adv-x="0" 
 />
    <glyph glyph-name="nonmarkingreturn" horiz-adv-x="391" 
 />
    <glyph glyph-name="space" unicode=" " horiz-adv-x="391" 
 />
    <glyph glyph-name="exclam" unicode="!" horiz-adv-x="364" 
d="M301 244l-163 -15l-47 480l163 16zM317 -19h-165l-24 164h167z" />
    <glyph glyph-name="quotedbl" unicode="&#x22;" horiz-adv-x="547" 
d="M475 432l-163 -18l-34 320l163 19zM254 429l-163 -18l-34 319l163 20z" />
    <glyph glyph-name="numbersign" unicode="#" horiz-adv-x="712" 
d="M670 162l-105 -10l9 -180l-163 -9l-10 174l-81 -8l8 -144l-164 -10l-8 139l-66 -6l-15 163l72 6l-3 69l-78 -7l-15 163l83 7l-9 176l163 9l10 -169l79 8l-11 183l164 10l11 -178l70 7l15 -163l-76 -7l5 -70l99 10zM391 300l-4 69l-80 -8l4 -69z" />
    <glyph glyph-name="dollar" unicode="$" horiz-adv-x="746" 
d="M686 241q0 -74 -75 -138q-58 -50 -142 -80l4 -78l-163 -9l-3 62q-159 7 -247 148l139 88q36 -63 98 -71l-5 97q-97 13 -162 56q-83 55 -83 141q0 82 72 146q61 54 149 77l-4 80l164 9l5 -93q104 -31 184 -148l-134 -93q-19 29 -39 49l4 -70q91 -12 154 -48
q84 -47 84 -125zM282 425l-4 86q-66 -27 -66 -54q0 -26 70 -32zM512 235q-19 9 -55 13l2 -50q33 16 53 37z" />
    <glyph glyph-name="percent" unicode="%" horiz-adv-x="944" 
d="M905 271q0 -107 -85 -182.5t-194 -75.5q-102 0 -171 71l-95 -188l-146 70l106 214q-11 -1 -23 -1q-99 0 -170 65q-74 67 -74 165q0 108 84 183q81 71 190 71q118 0 189 -88l101 205l147 -71l-105 -212q97 0 171.5 -65t74.5 -161zM739 268q0 31 -23 49q-21 15 -54 15
q-41 0 -73 -23q-34 -26 -34 -67q0 -31 23 -48q20 -15 52 -15q41 0 75 24.5t34 64.5zM402 435q0 31 -22 47t-54 16q-42 0 -73 -23q-36 -26 -36 -66q0 -31 24 -49q21 -15 53 -15q42 0 73 23q35 26 35 67z" />
    <glyph glyph-name="ampersand" unicode="&#x26;" horiz-adv-x="778" 
d="M738 191q-30 -45 -49 -68q16 -18 49 -53l-121 -108q-31 30 -46 48q-115 -80 -238 -80q-106 0 -187 60q-90 66 -90 168q0 135 168 240q-79 104 -79 189q0 78 73 122q62 36 146 36q90 0 151 -47q67 -52 67 -140q0 -103 -110 -197q48 -57 105 -116l27 35zM416 560
q0 24 -61 24q-41 0 -46 -12q3 -22 57 -87q50 43 50 75zM459 133q-38 40 -126 138q-112 -60 -112 -115q0 -32 39 -48q29 -13 66 -13q69 0 133 38z" />
    <glyph glyph-name="quotesingle" unicode="'" horiz-adv-x="335" 
d="M261 429l-163 -18l-34 320l163 19z" />
    <glyph glyph-name="parenleft" unicode="(" horiz-adv-x="522" 
d="M522 -17l-49 -154q-189 60 -309 207q-125 154 -125 347q0 148 78 274q75 119 207 199l84 -141q-95 -57 -148 -139q-57 -89 -57 -193q0 -139 94 -251q88 -105 225 -149z" />
    <glyph glyph-name="parenright" unicode=")" horiz-adv-x="544" 
d="M507 298q0 -148 -79 -273q-75 -118 -206 -199l-85 140q95 55 148 136q58 88 58 191q0 139 -95 253q-88 106 -225 152l50 156q188 -63 308 -210q126 -154 126 -346z" />
    <glyph glyph-name="asterisk" unicode="*" horiz-adv-x="783" 
d="M723 378l-90 -139l-140 93l9 -80l-164 -17l-11 112l-113 -101l-109 121l141 128l-178 117l89 137l137 -90l-10 101l162 18l10 -96l73 67l110 -123l-126 -111z" />
    <glyph glyph-name="plus" unicode="+" horiz-adv-x="632" 
d="M582 254l-177 -17l18 -146l-163 -21l-18 151l-172 -17l-16 163l168 17l-19 156l163 19l20 -159l180 17z" />
    <glyph glyph-name="comma" unicode="," horiz-adv-x="362" 
d="M310 195l-55 -318l-162 28l55 316z" />
    <glyph glyph-name="hyphen" unicode="-" horiz-adv-x="642" 
d="M588 268l-512 -51l-16 163l512 51z" />
    <glyph glyph-name="hyphen" unicode="&#x2010;" horiz-adv-x="642" 
d="M588 268l-512 -51l-16 163l512 51z" />
    <glyph glyph-name="period" unicode="." horiz-adv-x="345" 
d="M291 7h-167l-22 165h166z" />
    <glyph glyph-name="slash" unicode="/" horiz-adv-x="569" 
d="M572 709l-403 -813l-147 70l404 815z" />
    <glyph glyph-name="zero" unicode="0" horiz-adv-x="860" 
d="M833 376q0 -176 -135 -300q-131 -120 -308 -120q-150 0 -246.5 105t-96.5 257q0 167 135 295q132 126 300 126q150 0 250.5 -106t100.5 -257zM668 376q0 84 -52 141.5t-135 57.5q-100 0 -184 -79q-87 -80 -87 -179q0 -89 47 -141q49 -55 136 -55q107 0 191 74.5t84 180.5
z" />
    <glyph glyph-name="one" unicode="1" horiz-adv-x="531" 
d="M490 -7l-164 -9l-31 573l-177 -90l-73 146q74 44 149 88q83 45 164 54q38 -11 93 -23q2 -43 39 -739z" />
    <glyph glyph-name="two" unicode="2" horiz-adv-x="658" 
d="M626 510q0 -84 -69 -164q-39 -46 -159 -115q-111 -64 -148 -120q88 1 325 15l7 -164q-103 -8 -527 -22v86q0 111 86 210q70 81 185 141q62 33 86 52q51 39 51 82q0 34 -59 34q-91 0 -231 -113l-103 127q181 147 339 147q91 0 152 -52q65 -55 65 -144z" />
    <glyph glyph-name="three" unicode="3" horiz-adv-x="685" 
d="M661 214q0 -114 -106 -186q-94 -64 -214 -64q-125 0 -275 76l74 146q112 -58 201 -58q53 0 95 16q59 22 59 65q0 51 -89 51q-26 0 -69 -4.5t-54 -4.5q-20 0 -89 -5l-10 166q41 0 122 32q92 37 92 72q0 24 -39 40q-32 13 -61 13q-67 0 -104 -89l-149 66q36 85 99 134
q69 52 157 52q97 0 176 -60q87 -64 87 -158q0 -29 -15.5 -67t-36.5 -61q63 -16 104 -60q45 -48 45 -112z" />
    <glyph glyph-name="four" unicode="4" horiz-adv-x="694" 
d="M666 165l-57 -3l8 -152l-163 -9l-8 151q-131 -8 -392 -25q16 73 103 502l160 -32l-59 -292l180 11l-21 413l163 9l21 -412l56 4z" />
    <glyph glyph-name="five" unicode="5" horiz-adv-x="662" 
d="M625 248q0 -120 -94.5 -215.5t-213.5 -95.5q-74 0 -130 46q-44 36 -85 111l142 81q39 -73 85 -73q48 0 91 53q42 50 42 99q0 71 -131 71q-64 0 -224 -30q-21 123 -63 368q55 8 397 52l20 -162l-228 -30l7 -41q37 4 72 4q134 0 215 -51q98 -62 98 -187z" />
    <glyph glyph-name="six" unicode="6" 
d="M661 200q0 -69 -15 -108q-27 -67 -99 -101q-61 -28 -143 -28q-159 0 -256 111q-93 107 -93 268q0 147 75 262q86 131 225 131q110 0 231 -109l-109 -123q-73 66 -124 66q-70 0 -105 -87q-27 -65 -27 -147q0 -37 7 -68q117 137 253 137q86 0 135 -60q45 -56 45 -144z
M499 180q0 30 -2 37q-4 24 -21 24q-68 0 -143 -104q30 -10 82 -10q41 0 57 7q27 11 27 46z" />
    <glyph glyph-name="seven" unicode="7" horiz-adv-x="613" 
d="M596 673q-16 -41 -288 -699l-152 63l219 528l-312 -36l-17 163l419 48q38 4 131 -67z" />
    <glyph glyph-name="eight" unicode="8" horiz-adv-x="721" 
d="M696 204q0 -125 -112 -208q-103 -75 -232 -75q-112 0 -196 60q-94 67 -94 175q0 91 76 168q-93 57 -93 168q0 107 100 176q89 61 200 61q98 0 168 -53q77 -58 77 -153q0 -63 -40 -118q146 -65 146 -201zM426 525q0 42 -72 42q-44 0 -89 -19q-55 -23 -55 -61q0 -42 77 -42
q45 0 86 18q53 23 53 62zM531 200q0 35 -44 55q-35 15 -75 15q-55 0 -115 -30q-70 -37 -70 -87q0 -37 39 -56q29 -13 72 -13q62 0 121 27q72 33 72 89z" />
    <glyph glyph-name="nine" unicode="9" horiz-adv-x="741" 
d="M677 495q0 -245 -113 -544l-153 57q57 155 77 278q-79 -34 -162 -34q-111 0 -193 62q-89 67 -89 175q0 122 115 204q104 74 232 74q129 0 207.5 -72.5t78.5 -199.5zM511 533q0 35 -44 55q-35 15 -75 15q-56 0 -115 -30q-70 -36 -70 -87q0 -69 109 -69q62 0 122 27
q73 34 73 89z" />
    <glyph glyph-name="colon" unicode=":" horiz-adv-x="308" 
d="M251 215h-167l-22 165h166zM268 -3h-167l-21 165h165z" />
    <glyph glyph-name="semicolon" unicode=";" horiz-adv-x="302" 
d="M247 242h-167l-22 164h166zM266 186l-55 -318l-162 28l55 317z" />
    <glyph glyph-name="less" unicode="&#x3c;" horiz-adv-x="539" 
d="M549 25l-113 -117q-142 134 -420 405q38 61 311 480l137 -89l-239 -367z" />
    <glyph glyph-name="equal" unicode="=" horiz-adv-x="680" 
d="M591 353l-512 -46l-13 165l510 45zM628 137l-512 -44l-13 163l511 45z" />
    <glyph glyph-name="greater" unicode="&#x3e;" horiz-adv-x="556" 
d="M534 388q-31 -45 -314 -479l-137 89l239 367l-322 311l112 118q139 -137 422 -406z" />
    <glyph glyph-name="question" unicode="?" horiz-adv-x="771" 
d="M726 601q0 -149 -300 -289q1 -7 17 -87l-159 -29q-7 28 -41 215q113 48 175 80q132 66 142 102q-33 20 -104 20q-143 0 -255 -104l-111 123q159 143 380 143q97 0 168 -38q88 -47 88 -136zM478 -34l-166 -14l-20 162l166 14z" />
    <glyph glyph-name="at" unicode="@" horiz-adv-x="1002" 
d="M982 348q0 -118 -48 -220q-61 -127 -165 -127q-87 0 -144 108q-58 -15 -108 -15q-107 0 -187 67q-85 71 -85 176q0 83 54 138t138 55q69 0 146 -38l119 9q26 -335 67 -335q6 0 19 38q30 83 30 130q0 114 -68 196q-65 79 -220 79q-138 0 -239 -69q-114 -78 -114 -210
q0 -91 61 -155q57 -60 148 -81l-36 -159q-150 34 -241 136q-95 107 -95 256q0 205 159 330q148 116 357 116q242 0 347 -132t105 -293zM570 264q-6 25 -11 53q-78 51 -122 51q-29 0 -29 -29q0 -79 118 -79q23 0 44 4z" />
    <glyph glyph-name="A" unicode="A" horiz-adv-x="726" 
d="M700 26l-162 -26q-19 108 -53 222l-231 -39l-33 -189l-164 13q28 167 56 335q34 198 64 333l314 63q58 -176 116 -353q68 -209 93 -359zM435 380q-9 28 -56 168l-64 -13l-32 -181z" />
    <glyph glyph-name="B" unicode="B" horiz-adv-x="714" 
d="M682 168q0 -129 -147 -190q-106 -45 -257 -45q-70 0 -182 10l-53 699q71 15 143 31q82 16 145 16q104 0 180 -45q91 -53 91 -151q0 -67 -54 -129q63 -25 98.5 -77t35.5 -119zM438 496q0 25 -80 25q-65 0 -140 -12l10 -132q95 19 158 63q52 36 52 56zM518 171
q0 54 -106 54q-73 0 -171 -12q4 -38 9 -116h46q222 -2 222 74z" />
    <glyph glyph-name="C" unicode="C" horiz-adv-x="744" 
d="M733 53q-186 -62 -320 -62q-205 0 -304 142q-74 108 -74 234q0 146 108 249t255 103q146 0 272 -129l-117 -113q-76 77 -161 77q-76 0 -136 -55.5t-60 -131.5q0 -18 4 -34q40 -181 219 -181q95 0 261 57z" />
    <glyph glyph-name="D" unicode="D" 
d="M670 309q0 -155 -133 -242q-114 -75 -277 -75q-57 0 -163 10q-20 237 -60 710q64 14 187 14q164 0 303 -125q143 -130 143 -292zM506 310q0 99 -96 176q-89 73 -191 75q17 -238 31 -405h12q95 0 159 29q85 40 85 125z" />
    <glyph glyph-name="E" unicode="E" horiz-adv-x="586" 
d="M554 8q-82 -17 -164 -35q-89 -17 -167 -17q-65 0 -128 8q-12 235 -43 703q57 1 441 20l8 -163l-275 -13l7 -129l269 23l13 -164l-273 -23l5 -88l18 -1q72 -1 258 41z" />
    <glyph glyph-name="F" unicode="F" horiz-adv-x="536" 
d="M513 540l-275 -13q5 -77 12 -156l206 23l17 -163l-208 -23l18 -183l-163 -14q-3 27 -14 149q-31 338 -41 522l439 23z" />
    <glyph glyph-name="G" unicode="G" horiz-adv-x="868" 
d="M843 302l-56 -7q6 -80 15 -240q-226 -78 -368 -78q-205 0 -305 144q-76 111 -76 238q0 148 109.5 252t257.5 104q68 0 149 -32l-60 -153q-50 20 -88 20q-80 0 -143 -55t-63 -134q0 -19 4 -37q41 -186 223 -186q77 0 189 32l-7 104l-274 -37l-22 162l493 66z" />
    <glyph glyph-name="H" unicode="H" horiz-adv-x="685" 
d="M650 -27l-163 -14q-4 39 -22 247l-222 -30q6 -80 19 -203l-164 -13q-37 373 -54 670l165 9q5 -130 20 -300l223 30q-14 161 -21 306l163 9q8 -142 26 -356q29 -339 30 -355z" />
    <glyph glyph-name="I" unicode="I" horiz-adv-x="583" 
d="M555 0l-404 -38l-15 162l95 10q-4 72 -15 193q-14 143 -17 193l-133 -12l-13 164l446 38l13 -163l-150 -14q7 -106 13 -180q8 -68 19 -204l145 14z" />
    <glyph glyph-name="J" unicode="J" horiz-adv-x="699" 
d="M649 305q0 -191 -63 -267q-71 -86 -258 -86q-150 0 -217 87q-60 78 -60 232q0 44 4 96l164 -16q-9 -79 -9 -107q0 -129 119 -129q109 0 134 32q22 26 22 138q0 164 -40 363l160 34q44 -217 44 -377z" />
    <glyph glyph-name="K" unicode="K" horiz-adv-x="710" 
d="M684 125l-43 -157l-401 108l11 -121l-164 -13q-19 226 -59 678l163 13l25 -282l272 374l132 -96l-295 -407z" />
    <glyph glyph-name="L" unicode="L" horiz-adv-x="566" 
d="M590 66q-133 -50 -252 -67q-97 -15 -259 -15l-38 687l163 9l31 -530q138 9 296 69z" />
    <glyph glyph-name="M" unicode="M" horiz-adv-x="920" 
d="M900 30l-148 -69q-91 195 -137 348q-35 -115 -105 -263q-43 8 -129 25q-72 156 -112 285q-50 -168 -73 -364l-162 20q44 340 174 662l147 -11q53 -216 94 -328q56 186 80 382l157 3q66 -371 214 -690z" />
    <glyph glyph-name="N" unicode="N" horiz-adv-x="707" 
d="M653 -51l-144 -39q-50 78 -142 206q-108 150 -144 204q11 -159 60 -343l-159 -41q-68 261 -68 613q0 43 1 90q120 0 169 2q72 -140 124 -218q34 -50 131 -182q-10 185 -33 361l161 22q39 -275 44 -675z" />
    <glyph glyph-name="O" unicode="O" horiz-adv-x="869" 
d="M839 416q0 -176 -135 -300q-131 -120 -308 -120q-150 0 -246.5 105t-96.5 257q0 167 135 295q132 126 300 126q150 0 250.5 -106t100.5 -257zM674 416q0 84 -52 141.5t-135 57.5q-100 0 -184 -79q-87 -80 -87 -179q0 -89 47 -141q49 -55 136 -55q107 0 191 74.5t84 180.5
z" />
    <glyph glyph-name="P" unicode="P" horiz-adv-x="684" 
d="M652 393q0 -116 -148 -189q-82 -40 -250 -77l16 -182l-163 -13l-63 718q154 15 230 15q153 0 237 -42q106 -54 136 -189q5 -20 5 -41zM487 398q0 105 -192 105q-27 0 -73 -3l18 -208q247 53 247 106z" />
    <glyph glyph-name="Q" unicode="Q" horiz-adv-x="867" 
d="M827 339q0 -178 -131 -300l45 -53l-125 -104l-60 70q-82 -35 -166 -35q-152 0 -248.5 101.5t-96.5 253.5q0 175 134 303q131 125 307 125q150 0 247 -106q94 -104 94 -255zM663 341q0 84 -50 139.5t-133 55.5q-104 0 -188.5 -79.5t-84.5 -182.5q0 -82 50 -138.5
t131 -56.5q27 0 55 7l-82 97l127 105l102 -123q73 74 73 176z" />
    <glyph glyph-name="R" unicode="R" horiz-adv-x="757" 
d="M728 125l-41 -158l-402 104l11 -113l-163 -16l-64 719q158 15 233 15q382 0 382 -260q0 -136 -188 -230zM521 417q0 97 -194 97q-29 0 -81 -3l22 -244q253 89 253 150z" />
    <glyph glyph-name="S" unicode="S" horiz-adv-x="721" 
d="M697 195q0 -136 -202 -231q-102 -48 -247 -60l-15 163q85 8 160 33q101 33 133 84q-3 17 -88 21h-104q-302 0 -302 174q0 96 103 172q76 57 190 93q98 31 208 31q51 0 110 -6l-17 -164q-47 6 -90 6q-189 0 -312 -98q-9 -7 -22 -26q11 -17 103 -18q136 -1 184 -7
q111 -14 161 -62q47 -44 47 -105z" />
    <glyph glyph-name="T" unicode="T" horiz-adv-x="626" 
d="M606 507l-209 -26l32 -531l-163 -9l-32 521l-178 -21l-17 162l548 65z" />
    <glyph glyph-name="U" unicode="U" horiz-adv-x="735" 
d="M687 164q0 -169 -116 -202q-72 -21 -234 -21q-164 0 -221 49q-63 54 -63 215q0 85 21 228q26 168 30 227l162 -4q-1 -80 -29 -244.5t-28 -248.5q0 -34 6 -43q12 -16 89 -16q31 0 117 3q95 3 97 6q8 12 8 52q0 92 -29 239q-43 215 -47 238l165 20q3 -39 21 -126
q51 -247 51 -372z" />
    <glyph glyph-name="V" unicode="V" 
d="M680 608q-168 -360 -246 -664l-141 -17q-175 318 -263 694l159 39q59 -253 150 -458q75 224 194 476z" />
    <glyph glyph-name="W" unicode="W" horiz-adv-x="994" 
d="M953 615q-48 -306 -200 -695l-144 2q-44 126 -94 242q-35 -77 -102 -233l-143 8q-111 347 -269 636l144 78q113 -211 208 -453q46 107 58 185l-114 209l142 80q141 -247 241 -480q76 229 112 446z" />
    <glyph glyph-name="X" unicode="X" horiz-adv-x="717" 
d="M694 65l-132 -93l-211 290l-226 -293l-128 100l255 332l-191 266l133 94l162 -225l148 193l130 -101l-178 -230z" />
    <glyph glyph-name="Y" unicode="Y" horiz-adv-x="698" 
d="M684 581l-226 -211l21 -461l-164 -6l-21 463l-288 205l95 134l270 -192l201 187z" />
    <glyph glyph-name="Z" unicode="Z" horiz-adv-x="651" 
d="M608 27q-170 -10 -509 -35q-20 43 -62 129q22 31 291 436l-247 -30l-19 163l457 54l45 -127q-57 -93 -147 -225q-76 -112 -151 -223l332 22z" />
    <glyph glyph-name="bracketleft" unicode="[" horiz-adv-x="486" 
d="M455 -135q-111 -6 -334 -21q-28 378 -68 979q97 2 335 6l3 -163l-162 -3l44 -646l172 10z" />
    <glyph glyph-name="bracketright" unicode="]" horiz-adv-x="503" 
d="M470 -148q-97 -1 -336 -7l-3 163l163 3l-44 646l-173 -10l-9 163q111 7 334 20q30 -397 68 -978z" />
    <glyph glyph-name="underscore" unicode="_" horiz-adv-x="713" 
d="M672 -46l-609 -50l-13 163l610 49z" />
    <glyph glyph-name="a" unicode="a" horiz-adv-x="703" 
d="M684 -24l-162 -26q-19 108 -53 222l-231 -39l-33 -189l-164 13q28 167 56 335q34 198 64 333l314 63q58 -176 116 -353q68 -209 93 -359zM419 330q-9 28 -56 168l-64 -13l-32 -181z" />
    <glyph glyph-name="b" unicode="b" 
d="M660 178q0 -129 -147 -190q-106 -45 -257 -45q-70 0 -182 10l-53 699q71 15 143 31q82 16 145 16q104 0 180 -45q91 -53 91 -151q0 -67 -54 -129q63 -25 98.5 -77t35.5 -119zM416 506q0 25 -80 25q-65 0 -140 -12l10 -132q95 19 158 63q52 36 52 56zM496 181
q0 54 -106 54q-73 0 -171 -12q4 -38 9 -116h46q222 -2 222 74z" />
    <glyph glyph-name="c" unicode="c" horiz-adv-x="701" 
d="M714 -7q-186 -62 -320 -62q-205 0 -304 142q-74 108 -74 234q0 146 108 249t255 103q146 0 272 -129l-117 -113q-76 77 -161 77q-76 0 -136 -55.5t-60 -131.5q0 -18 4 -34q40 -181 219 -181q95 0 261 57z" />
    <glyph glyph-name="d" unicode="d" horiz-adv-x="696" 
d="M672 279q0 -155 -133 -242q-114 -75 -277 -75q-57 0 -163 10q-20 237 -60 710q64 14 187 14q164 0 303 -125q143 -130 143 -292zM508 280q0 99 -96 176q-89 73 -191 75q17 -238 31 -405h12q95 0 159 29q85 40 85 125z" />
    <glyph glyph-name="e" unicode="e" horiz-adv-x="586" 
d="M548 48q-82 -17 -164 -35q-89 -17 -167 -17q-65 0 -128 8q-12 235 -43 703q57 1 441 20l8 -163l-275 -13l7 -129l269 23l13 -164l-273 -23l5 -88l18 -1q72 -1 258 41z" />
    <glyph glyph-name="f" unicode="f" horiz-adv-x="534" 
d="M497 470l-275 -13q5 -77 12 -156l206 23l17 -163l-208 -23l18 -183l-163 -14q-3 27 -14 149q-31 338 -41 522l439 23z" />
    <glyph glyph-name="g" unicode="g" horiz-adv-x="840" 
d="M814 252l-56 -7q6 -80 15 -240q-226 -78 -368 -78q-205 0 -305 144q-76 111 -76 238q0 148 109.5 252t257.5 104q68 0 149 -32l-60 -153q-50 20 -88 20q-80 0 -143 -55t-63 -134q0 -19 4 -37q41 -186 223 -186q77 0 189 32l-7 104l-274 -37l-22 162l493 66z" />
    <glyph glyph-name="h" unicode="h" horiz-adv-x="666" 
d="M652 23l-163 -14q-4 39 -22 247l-222 -30q6 -80 19 -203l-164 -13q-37 373 -54 670l165 9q5 -130 20 -300l223 30q-14 161 -21 306l163 9q8 -142 26 -356q29 -339 30 -355z" />
    <glyph glyph-name="i" unicode="i" horiz-adv-x="329" 
d="M277 -20l-162 -13q-36 361 -54 718l163 9q5 -86 53 -714z" />
    <glyph glyph-name="j" unicode="j" horiz-adv-x="685" 
d="M644 345q0 -191 -63 -267q-71 -86 -258 -86q-150 0 -217 87q-60 78 -60 232q0 44 4 96l164 -16q-9 -79 -9 -107q0 -129 119 -129q109 0 134 32q22 26 22 138q0 164 -40 363l160 34q44 -217 44 -377z" />
    <glyph glyph-name="k" unicode="k" horiz-adv-x="706" 
d="M689 95l-43 -157l-401 108l11 -121l-164 -13q-19 226 -59 678l163 13l25 -282l272 374l132 -96l-295 -407z" />
    <glyph glyph-name="l" unicode="l" horiz-adv-x="595" 
d="M596 36q-133 -50 -252 -67q-97 -15 -259 -15l-38 687l163 9l31 -530q138 9 296 69z" />
    <glyph glyph-name="m" unicode="m" horiz-adv-x="914" 
d="M909 -30l-148 -69q-91 195 -137 348q-35 -115 -105 -263q-43 8 -129 25q-72 156 -112 285q-50 -168 -73 -364l-162 20q44 340 174 662l147 -11q53 -216 94 -328q56 186 80 382l157 3q66 -371 214 -690z" />
    <glyph glyph-name="n" unicode="n" horiz-adv-x="700" 
d="M651 19l-144 -39q-50 78 -142 206q-108 150 -144 204q11 -159 60 -343l-159 -41q-68 261 -68 613q0 43 1 90q120 0 169 2q72 -140 124 -218q34 -50 131 -182q-10 185 -33 361l161 22q39 -275 44 -675z" />
    <glyph glyph-name="o" unicode="o" horiz-adv-x="874" 
d="M828 356q0 -176 -135 -299q-131 -121 -308 -121q-150 0 -246.5 105t-96.5 257q0 167 135 295q132 126 300 126q150 0 250.5 -106t100.5 -257zM663 356q0 84 -52 141.5t-135 57.5q-100 0 -184 -79q-87 -80 -87 -179q0 -89 47 -141q49 -55 136 -55q107 0 191 74.5t84 180.5
z" />
    <glyph glyph-name="p" unicode="p" horiz-adv-x="686" 
d="M650 443q0 -116 -148 -189q-82 -40 -250 -77l16 -182l-163 -13l-63 718q154 15 230 15q153 0 237 -42q106 -54 136 -189q5 -20 5 -41zM485 448q0 105 -192 105q-27 0 -73 -3l18 -208q247 53 247 106z" />
    <glyph glyph-name="q" unicode="q" horiz-adv-x="870" 
d="M831 399q0 -178 -131 -300l45 -53l-125 -104l-60 70q-82 -35 -166 -35q-152 0 -248.5 101.5t-96.5 253.5q0 175 134 303q131 125 307 125q150 0 247 -106q94 -104 94 -255zM667 401q0 84 -50 139.5t-133 55.5q-104 0 -188.5 -79.5t-84.5 -182.5q0 -82 50 -138.5
t131 -56.5q27 0 55 7l-82 97l127 105l102 -123q73 74 73 176z" />
    <glyph glyph-name="r" unicode="r" horiz-adv-x="737" 
d="M707 165l-41 -158l-402 104l11 -113l-163 -16l-64 719q158 15 233 15q382 0 382 -260q0 -136 -188 -230zM500 457q0 97 -194 97q-29 0 -81 -3l22 -244q253 89 253 150z" />
    <glyph glyph-name="s" unicode="s" horiz-adv-x="686" 
d="M667 235q0 -136 -202 -231q-102 -48 -247 -60l-15 163q85 8 160 33q101 33 133 84q-3 17 -88 21h-104q-302 0 -302 174q0 96 103 172q76 57 190 93q98 31 208 31q51 0 110 -6l-17 -164q-47 6 -90 6q-189 0 -312 -98q-9 -7 -22 -26q11 -17 103 -18q136 -1 184 -7
q111 -14 161 -62q47 -44 47 -105z" />
    <glyph glyph-name="t" unicode="t" horiz-adv-x="608" 
d="M590 547l-209 -26l32 -531l-163 -9l-32 521l-178 -21l-17 162l548 65z" />
    <glyph glyph-name="u" unicode="u" horiz-adv-x="734" 
d="M686 214q0 -169 -116 -202q-72 -21 -234 -21q-164 0 -221 49q-63 54 -63 215q0 85 21 228q26 168 30 227l162 -4q-1 -80 -29 -244.5t-28 -248.5q0 -34 6 -43q12 -16 89 -16q31 0 117 3q95 3 97 6q8 12 8 52q0 92 -29 239q-43 215 -47 238l165 20q3 -39 21 -126
q51 -247 51 -372z" />
    <glyph glyph-name="v" unicode="v" horiz-adv-x="662" 
d="M667 658q-168 -360 -246 -664l-141 -17q-175 318 -263 694l159 39q59 -253 150 -458q75 224 194 476z" />
    <glyph glyph-name="w" unicode="w" horiz-adv-x="1000" 
d="M973 675q-48 -306 -200 -695l-144 2q-44 126 -94 242q-35 -77 -102 -233l-143 8q-111 347 -269 636l144 78q113 -211 208 -453q46 107 58 185q-38 70 -114 209l142 80q141 -247 241 -480q76 229 112 446z" />
    <glyph glyph-name="x" unicode="x" horiz-adv-x="710" 
d="M699 65l-132 -93l-211 290l-226 -293l-128 100l255 332l-191 266l133 94l162 -225l148 193l130 -101l-178 -230z" />
    <glyph glyph-name="y" unicode="y" horiz-adv-x="677" 
d="M684 641l-226 -211l21 -461l-164 -6l-21 463l-288 205l95 134l270 -192l201 187z" />
    <glyph glyph-name="z" unicode="z" horiz-adv-x="653" 
d="M620 -23q-170 -10 -509 -35q-20 43 -62 129q22 31 291 436l-247 -30l-19 163l457 54l45 -127q-57 -93 -147 -225q-76 -112 -151 -223l332 22z" />
    <glyph glyph-name="braceleft" unicode="{" horiz-adv-x="905" 
d="M751 659l-51 -156l-379 120l50 156zM574 266l-512 -50l-16 163l512 50zM751 15l-380 -120l-50 155l379 121z" />
    <glyph glyph-name="bar" unicode="|" horiz-adv-x="349" 
d="M283 -97l-162 -13q-21 211 -54 883l163 9q30 -582 53 -879z" />
    <glyph glyph-name="braceright" unicode="}" horiz-adv-x="954" 
d="M607 623l-379 -120l-51 156l379 120zM882 295l-512 -51l-16 163l512 51zM607 50l-51 -155l-379 120l51 156z" />
    <glyph glyph-name="dieresis" unicode="&#xa8;" horiz-adv-x="325" 
 />
    <glyph glyph-name="copyright" unicode="&#xa9;" horiz-adv-x="1147" 
d="M1101 312q0 -205 -147 -347t-353 -142q-224 0 -388 156q-167 158 -167 381q0 205 145.5 348t351.5 143q224 0 389 -157q169 -159 169 -382zM937 313q0 154 -119 264t-274 110q-138 0 -235 -93q-100 -95 -100 -232q0 -156 120 -267q117 -110 274 -110q138 0 236 95.5
t98 232.5zM800 101q-139 -46 -233 -46q-115 0 -188.5 60.5t-95.5 172.5q-6 30 -6 55q0 110 83 188t194 78q112 0 212 -99l-118 -116q-48 52 -95 52q-43 0 -77.5 -30.5t-34.5 -73.5q0 -57 36.5 -91t93.5 -34q61 0 178 40z" />
    <glyph glyph-name="registered" unicode="&#xae;" horiz-adv-x="1171" 
d="M1120 312q0 -205 -147 -347t-353 -142q-224 0 -390 157t-166 381q0 204 146.5 347t351.5 143q224 0 389 -157q169 -159 169 -382zM955 312q0 155 -118 265t-274 110q-138 0 -236 -94.5t-98 -231.5q0 -156 118 -266t275 -110q138 0 235.5 95t97.5 232zM851 240l-41 -158
l-245 63l8 -77l-163 -17l-59 562q130 11 185 11q297 0 297 -207q0 -86 -92 -148zM669 422q0 40 -94 40q-10 0 -43 -1l11 -110q126 43 126 71z" />
    <glyph glyph-name="endash" unicode="&#x2013;" horiz-adv-x="637" 
d="M603 268l-512 -51l-16 163l512 51z" />
    <glyph glyph-name="emdash" unicode="&#x2014;" horiz-adv-x="803" 
d="M739 274l-653 -57l-16 163l653 57z" />
    <glyph glyph-name="quoteleft" unicode="&#x2018;" horiz-adv-x="372" 
d="M321 430l-161 -18l-93 318l160 20z" />
    <glyph glyph-name="quoteright" unicode="&#x2019;" horiz-adv-x="315" 
d="M276 751l-44 -322l-167 -18l44 320z" />
    <glyph glyph-name="quotedblleft" unicode="&#x201c;" horiz-adv-x="583" 
d="M541 433l-161 -18l-94 318l161 20zM320 429l-161 -18l-93 319l160 19z" />
    <glyph glyph-name="quotedblright" unicode="&#x201d;" horiz-adv-x="571" 
d="M516 754l-44 -322l-167 -18l44 320zM294 750l-44 -322l-167 -17l44 320z" />
    <glyph glyph-name="ellipsis" unicode="&#x2026;" horiz-adv-x="701" 
d="M680 5h-167l-22 165h166zM448 6h-167l-22 165h166zM227 7h-167l-22 165h166z" />
    <glyph glyph-name="trademark" unicode="&#x2122;" horiz-adv-x="776" 
d="M721 344l-86 -39q-16 41 -54 118q-13 -20 -41 -78q-24 4 -71 14q-25 53 -41 97q-14 -57 -23 -135l-94 12q16 125 56 244l-82 -10l14 -236l-94 -5l-14 230l-78 -9l-10 93l264 32l8 -72l18 46l81 -6q19 -78 32 -118q16 64 26 142l88 2q31 -172 101 -322z" />
    <glyph glyph-name="glyph105" horiz-adv-x="325" 
 />
  </font>
</defs>
</svg>
