<?xml version="1.0" encoding="utf-8"?>
<!-- Generator: Adobe Illustrator 16.0.0, SVG Export Plug-In . SVG Version: 6.00 Build 0)  -->
<!DOCTYPE svg PUBLIC "-//W3C//DTD SVG 1.1//EN" "http://www.w3.org/Graphics/SVG/1.1/DTD/svg11.dtd">
<svg version="1.1" id="Layer_1" xmlns="http://www.w3.org/2000/svg" xmlns:xlink="http://www.w3.org/1999/xlink" x="0px" y="0px"
	 width="68.3px" height="59.5px" viewBox="0 0 68.3 59.5" style="enable-background:new 0 0 68.3 59.5;" xml:space="preserve">
<style type="text/css">
<![CDATA[
	.st0{fill:#FFFFFF;}
]]>
</style>
<g>
	<path class="st0" d="M67.1,37.3l-0.3-1l-1.1,0c-7.6-0.2-25.5-0.4-34.3-0.4c-13.2,0-23.4,0.2-28.8,0.4l-1.1,0l-0.3,1
		c-1.7,5-1.7,9.5,0,14.5l0.3,1l1.1,0c9.2,0.2,23.2,0.3,31.5,0.3c8.3,0,22.3-0.1,31.5-0.3l1.1,0l0.3-1C68.7,46.8,68.7,42.3,67.1,37.3
		z M65.8,51.3L65.8,51.3l-0.1,0.1c-9.2,0.2-23.2,0.3-31.5,0.3c-8.3,0-22.3-0.1-31.5-0.3H2.6l0-0.1C1,46.6,1,42.4,2.5,37.7l0-0.1h0.1
		c9.2-0.2,23.2-0.3,31.5-0.3c8.3,0,22.3,0.1,31.5,0.3h0.1l0,0.1C67.3,42.4,67.3,46.6,65.8,51.3z"/>
	<path class="st0" d="M15.4,55.1c0.5,0,1-0.1,1.4-0.1c1.3,0,2.3,0.6,2.3,2.2c0,1.6-1.1,2.2-2.4,2.2c-0.6,0-0.7-0.1-1.4-0.1V55.1z
		 M16.3,58.5c0,0.1,0.2,0.1,0.4,0.1c0.9,0,1.3-0.4,1.3-1.4c0-1-0.4-1.4-1.3-1.4c-0.3,0-0.4,0.1-0.4,0.2c0,0.3,0,0.6,0,1V58.5z"/>
	<path class="st0" d="M20,59.3v-4.3h2.7v0.8c-0.4,0-0.9,0-1.6,0c0,0-0.1,0.1-0.1,0.1c0,0.2,0,0.4,0,0.8h1.5v0.7H21v1
		c0,0.1,0,0.1,0.1,0.1c0.9,0,1.3,0,1.7,0v0.8H20z"/>
	<path class="st0" d="M25,55.8c-0.4,0-0.6,0.1-0.6,0.4c0,0.3,0.4,0.4,0.7,0.6c0.5,0.3,1,0.6,1,1.3c0,0.9-0.8,1.3-1.7,1.3
		c-0.3,0-0.6,0-1-0.1v-0.8c0.3,0.1,0.6,0.1,0.9,0.1c0.5,0,0.8-0.1,0.8-0.4c0-0.3-0.3-0.5-0.6-0.6c-0.5-0.3-1.1-0.6-1.1-1.3
		c0-0.8,0.7-1.3,1.6-1.3c0.3,0,0.5,0,0.8,0.1v0.9C25.5,55.8,25.2,55.8,25,55.8z"/>
	<path class="st0" d="M27,55.1c0.5,0,1-0.1,1.4-0.1c1.3,0,2.3,0.6,2.3,2.2c0,1.6-1.1,2.2-2.4,2.2c-0.6,0-0.7-0.1-1.4-0.1V55.1z
		 M28,58.5c0,0.1,0.2,0.1,0.4,0.1c0.9,0,1.3-0.4,1.3-1.4c0-1-0.4-1.4-1.3-1.4c-0.3,0-0.4,0.1-0.4,0.2c0,0.3,0,0.6,0,1V58.5z"/>
	<path class="st0" d="M31.7,59.3v-4.3h2.7v0.8c-0.4,0-0.9,0-1.6,0c0,0-0.1,0.1-0.1,0.1c0,0.2,0,0.4,0,0.8h1.5v0.7h-1.5v1
		c0,0.1,0,0.1,0.1,0.1c0.9,0,1.3,0,1.7,0v0.8H31.7z"/>
	<path class="st0" d="M38.8,54.9c0,0.6,0,1.3,0,2.1v2.3h-1v-4L38.8,54.9z"/>
	<path class="st0" d="M39.9,58.1c0-0.5,0.4-0.9,0.8-1.1c-0.4-0.2-0.7-0.5-0.7-0.9c0-0.5,0.5-1.2,1.6-1.2c1.1,0,1.6,0.6,1.6,1.1
		c0,0.4-0.3,0.8-0.6,0.9c0.4,0.1,0.8,0.6,0.8,1.1c0,0.7-0.6,1.3-1.7,1.3C40.5,59.4,39.9,58.9,39.9,58.1z M40.9,58.1
		c0,0.4,0.2,0.6,0.7,0.6c0.4,0,0.7-0.3,0.7-0.6c0-0.3-0.3-0.6-0.7-0.6C41.2,57.5,40.9,57.7,40.9,58.1z M42.2,56.2
		c0-0.3-0.2-0.5-0.6-0.5c-0.4,0-0.6,0.3-0.6,0.5c0,0.2,0.2,0.5,0.6,0.5C42,56.7,42.2,56.5,42.2,56.2z"/>
	<path class="st0" d="M44.2,58.1c0-0.5,0.4-0.9,0.8-1.1c-0.4-0.2-0.7-0.5-0.7-0.9c0-0.5,0.5-1.2,1.6-1.2c1.1,0,1.6,0.6,1.6,1.1
		c0,0.4-0.3,0.8-0.6,0.9c0.4,0.1,0.8,0.6,0.8,1.1c0,0.7-0.6,1.3-1.7,1.3C44.8,59.4,44.2,58.9,44.2,58.1z M45.3,58.1
		c0,0.4,0.2,0.6,0.7,0.6c0.4,0,0.7-0.3,0.7-0.6c0-0.3-0.3-0.6-0.7-0.6C45.5,57.5,45.3,57.7,45.3,58.1z M46.5,56.2
		c0-0.3-0.2-0.5-0.6-0.5c-0.4,0-0.6,0.3-0.6,0.5c0,0.2,0.2,0.5,0.6,0.5C46.3,56.7,46.5,56.5,46.5,56.2z"/>
	<path class="st0" d="M48.8,59c0.7-0.3,1.2-0.7,1.5-1C50.2,58,50,58,49.9,58c-0.7,0-1.4-0.5-1.4-1.5c0-0.8,0.5-1.6,1.6-1.6
		c0.9,0,1.6,0.6,1.6,1.7c0,1.2-0.8,2.3-2.5,2.9L48.8,59z M50.1,57.3c0.4,0,0.7-0.3,0.7-0.7c0-0.5-0.3-0.9-0.7-0.9
		c-0.5,0-0.7,0.4-0.7,0.8C49.4,56.8,49.6,57.3,50.1,57.3z"/>
	<path class="st0" d="M36.3,26L36.3,26L36.3,26z"/>
	<g>
		<path class="st0" d="M58.7,0c0,0-0.3,0.6-0.5,0.9c0,0-0.4,0.5-1,0.6c-0.6-0.1-1.4,0.2-1.7,0.7c-0.2,0.4-0.6,0.8-1.1,1.2
			c0-0.2-0.1-0.3-0.2-0.5c-0.4-0.7-1.7-0.4-2.1,0.2c-0.3,0.4-0.8,0.6-1.3,0.7c-1,0.2-1.8,0.5-2.8,0.9c-0.3,0.1-0.5,0.2-0.8,0.4
			C46.9,5,46.5,5,46.2,5.1c-3.9,1.9-7.4,4.6-9.8,8.3C36,13.6,35.3,14,35,14.3c-0.4-0.2-0.8-0.4-1.1-0.7c-1.5-1-2.6-2.8-4-4
			c-2.2-2-5.7-1.7-7.5-4.2c-0.6-0.8-1.5-0.4-1.7,0.5c-0.1,0.3-0.1,0.5-0.1,0.8C18,5.8,16,4.3,14.8,2.5c-0.7-1.1-1-2.7-1.5-2.5
			c-0.9,0.4-1.9,2.7-2.1,3.5c-0.7,0.4-0.6,2.2-0.6,2.4c0,1.2,0.5,2.6,1.7,3.4c0,1.1,0.7,2.1,0.9,2.4c0.6,0.7,2,1.8,3.8,1.9
			c0,0.2,0.9,0.9,1.1,1.1c1.4,1.2,3.3,2,5.3,2.3c0.2,0.4,0.6,0.8,1.1,1.2c1.9,1.5,5,1.4,6.4,1.5c-1.3,2.2-3.6,2-5.3,3
			c-1,0.6-2,2.2-1.4,3c0,0,2.7-0.5,2.5-0.3c-0.4,0.3-0.3,0.9,0,1c0,0-2.5,1.3-2.4,1.3c-3.5,1.8-6.4,4.5-8.4,7.9
			c0.7-0.1,1.4-0.2,2.1-0.2c0.2-0.4,0.5-0.8,0.8-1.2c1.9-0.7,3.9-1.3,6-1.8c-0.5,0.8-1,1.9-1.4,2.8c0.5,0,1.1-0.1,1.7-0.1
			c0.4-0.9,0.8-2.1,1.3-3c2.5-0.4,5.1-0.7,7.9-0.7c0,0,0,0,0.1,0c-0.1,0.9-0.1,2.3-0.2,3.4c0.2,0,0.3,0,0.5,0c0.2,0,0.5,0,0.7,0
			c-0.1-1.1-0.1-2.4-0.2-3.4c2.7,0.1,5.4,0.4,7.9,0.9c0.4,0.8,0.8,1.9,1.2,2.8c0.6,0,1.1,0.1,1.7,0.1c-0.4-0.8-0.8-1.8-1.3-2.6
			c1.9,0.5,3.7,1,5.4,1.7c-1.8-1-3.8-1.8-5.9-2.4c-1.4-2-3.1-3.8-5-5.2c4.9,1.3,9,4.4,11.5,8.6c0.7,0.1,1.4,0.1,2.1,0.2
			c-2.7-4.6-7.3-8.1-12.8-9.5v0c-1.9-0.4-2.7-1.1-3.2-1.6c1.3-1,1.7-3.5,2.9-4.3c1.6-1.1,3.9-1.8,5.1-3.3c0.3-0.1,0.7-0.2,0.8-0.3
			c1.7-1.4,3.3-3.4,4.3-5.4c1.9-0.4,3.8-1,5.4-2.2c2.2-1.8,3.5-4,4-6.2C59.2,1.9,59.5,0,58.7,0z M25.1,31.5
			c-2.3,0.6-4.5,1.4-6.4,2.4c2.7-3.8,6.8-6.5,11.5-7.5C28.2,27.8,26.5,29.5,25.1,31.5z M34.1,30.4c0,0-0.1,0-0.1,0
			c-2.6,0-5,0.3-7.4,0.8c1.1-1.8,2.4-3.4,3.9-4.8c1.2-0.2,2.4-0.4,3.7-0.4c0.1,0,0.2,0,0.3,0C34.5,26,34.3,27.7,34.1,30.4z
			 M52.5,9.4c-1.5,0.7-3.2,0.9-3.2,0.9c-1.2,2.7-4.3,5.2-4.3,5.2c0-0.5-0.3-0.9-0.3-0.9c-0.4,1.3-1.5,2.3-2.8,2.9
			c-4.4,2.2-3.8,2.3-5,4.9c-0.2,0.5-1.5,1.7-1.1,2.1c0.8,0.7,0.9,0.7,0.9,1.1c0,0.3-0.3,0.3-0.4,0.3c0-0.4-0.3-0.7-1-0.7
			c0,0-0.1,0-0.1,0c0.3,0.3,0.3,0.3,0.3,0.6c0,0.1,0,0.1-0.1,0.2c1.1,0.1,2.1,0.2,3.1,0.5c1.5,1.4,2.7,3.1,3.8,4.9
			c-2.4-0.6-4.9-0.9-7.5-1c-0.2-2.7-0.4-4.4-0.4-4.4c0.2,0,0.4,0,0.6,0c0-0.2-0.2-0.4-0.5-0.5c-0.1,0.1-0.1,0.3-0.1,0.4
			c0,0-0.3-0.1-0.4-0.4h0c-0.7,0-0.5,0.2-0.6,0.4c0.1,0-0.5,0.2-0.5-0.5c0-0.3,0.7-0.2,0.9-0.5c0.1-0.1-0.1-1.2-0.4-1.5
			c-0.5,0.2-1,0.6-1.8,1.1c-0.7,0.4-1.8,1.3-2.1,1.7c-0.3-0.2-0.3-0.9,0.7-1.8c-1.7,0.4-2.8,1.5-2.8,1.3c-0.1-0.3,0-0.7,0.3-1.2
			c0.2-0.4,0.9-1,0.9-1l-3.5,1.5c0-0.5-0.6-1.6,3.3-2.6c2.6-0.7,3.4-2.7,3.8-3.4c-3.4,0-6.7-0.7-8.2-1.8c0.5-0.1,1-0.5,1-0.5
			c-3.7-0.8-6.5-2.4-7.4-3.1l0.9-0.2c-3.5-0.8-5-2.1-5.5-3.1c1,0.3,1.8,0.2,1.8,0.2c-2.3-1-3.5-2.8-3.5-4.8c0-0.9,0.4-1.9,0.4-1.9
			c0.2,1,0.4,1.4,0.4,1.4c-0.3-2.1,0.9-3.9,0.9-3.9c0.7,2.8,3.6,4.6,4.5,5.1c2,1.2,3.5,1.5,4.2,1.5c-0.6-1.1-0.3-2.3-0.3-2.3
			c2,2.9,6.5,2.3,8.6,5.4c2.4,3.2,5.3,4.1,5.3,4.1s0.5-0.8,1.7-1.3c0,0,3.2-5.3,9.8-8.3c0,0-0.4,0.4-0.5,1c0,0,2-1.7,4.9-2.2
			c1.3-0.2,2-1,2.1-1.2c0,0,0.4,0.7,0.1,1.3c0,0,0.7,0,2-0.7c0,0,1.1-0.8,1.5-1.6c0,0,0,0.8-0.2,1.4c0,0,0.8-0.3,1.9-2
			C57.2,5.4,55.3,8.2,52.5,9.4z"/>
		<path class="st0" d="M34.6,24.8c0.2,0,0.4-0.1,0.5-0.2c0.1-0.1,0-0.5-0.1-0.8C34.7,24.2,34.4,24.6,34.6,24.8z"/>
	</g>
	<path class="st0" d="M34.5,25.8L34.5,25.8C34.5,25.8,34.5,25.8,34.5,25.8z"/>
	<path class="st0" d="M35.1,26.1L35.1,26.1L35.1,26.1z"/>
	<path class="st0" d="M30.4,12.2c1.9,1.6,3.1,2.7,4.9,3.2c0,0-0.2,0.2-0.4,0.2c-0.3,0.1-0.8,0.1-1.4-0.3c0.2,0.5,0.6,0.7,0.8,0.8
		c0.1,0.1,0.2,0.1,0.2,0.1c-1.7-0.2-2.4-0.9-3.8-2.8c-1.4-1.9-2.3-2.2-2.3-2.2S29,11,30.4,12.2z"/>
	<path class="st0" d="M28.5,13.3c0.7,0.2,1,0.6,1,0.6h-0.1l0,0c-1.4-0.2-1.9-0.7-2-0.9c0,0,0-0.1,0-0.1C27.9,13.2,28,13.2,28.5,13.3
		z"/>
	<path class="st0" d="M25.2,10.9c1.2,0.3,1.2,0.2,1.8,0.4c0.6,0.1,0.7,0.4,0.7,0.4C26.2,11.8,25.2,10.9,25.2,10.9z"/>
	<path class="st0" d="M30.8,15.2c0.6,0.1,0.7,0.4,0.7,0.4l0,0l0,0c-0.9,0-1.5-0.2-1.9-0.4c-0.1,0-0.1-0.1-0.2-0.1
		c-0.1-0.1-0.1-0.1-0.1-0.1C30,15.1,30.2,15.1,30.8,15.2z"/>
	<path class="st0" d="M32.3,17.6c0.5,0,0.6,0.3,0.6,0.3c-0.8,0.1-1.7-0.5-1.7-0.5C31.6,17.5,31.8,17.6,32.3,17.6z"/>
	<path class="st0" d="M26.6,9c1.2,0.5,2.8,1.6,2.8,1.6c-5.6-1.1-6.4-3.2-6.4-3.2C24.1,8.2,25.5,8.5,26.6,9z"/>
	<path class="st0" d="M19.8,9.4c0.1,0,0.7,0.4,1.4,0.5c1,0.2,1.2,0.5,1.2,0.5C20.6,10.4,19.8,9.4,19.8,9.4z"/>
	<path class="st0" d="M22.8,12c-0.1,0-0.1-0.1-0.1-0.1c-0.3-0.2-0.4-0.3-0.4-0.3l0,0l0,0c0.5,0.2,0.8,0.2,1.6,0.4
		c0.7,0.1,0.8,0.4,0.8,0.4c-0.3,0-0.6,0-0.8-0.1C23.4,12.2,23,12.1,22.8,12z"/>
	<path class="st0" d="M24.4,13.5c0.4,0.2,0.6,0.3,1.7,0.5c0.5,0.1,0.8,0.2,0.8,0.4C25.4,14.7,24.4,13.5,24.4,13.5z"/>
	<path class="st0" d="M26.2,15.2c0.8,0.2,1.1,0.2,1.8,0.2c0.6,0.1,0.7,0.4,0.7,0.4C27.6,16.1,26.2,15.2,26.2,15.2z"/>
	<path class="st0" d="M28.5,16.9c0.5,0.1,0.7,0.1,1.3,0.2c0.7,0.1,0.9,0.4,0.9,0.4C29.5,17.5,28.5,16.9,28.5,16.9z"/>
	<path class="st0" d="M40,17.8c0.1-0.6,0.7-0.9,0.7-0.9c0.5-0.3,0.8-0.3,0.8-0.3C41.4,17.1,40.5,17.4,40,17.8z"/>
	<path class="st0" d="M42.1,16.1c0.3-0.5,1.1-1.1,1.1-1.1l0.4-0.4C43.8,15.4,42.1,16.1,42.1,16.1z"/>
	<path class="st0" d="M42.4,13.8c0.2-0.5,1.1-0.9,1.4-1.5v0.3C43.8,13.6,42.4,13.8,42.4,13.8z"/>
	<path class="st0" d="M42.5,12.1c0,0,0.1-0.4,0.5-0.9c0.4-0.5,0.7-1.1,0.7-1.1S43.7,11.6,42.5,12.1z"/>
	<path class="st0" d="M46.8,10.4c0,0,0.2-0.4,0.5-0.8c0.3-0.2,0.5-0.5,0.5-0.7C47.8,8.9,47.8,9.8,46.8,10.4z"/>
	<path class="st0" d="M44.5,13.5c0,0,0-0.2,0.7-0.8c0.5-0.5,0.7-1,0.7-1S45.9,13,44.5,13.5z"/>
	<path class="st0" d="M45,11.3c0,0-0.2-0.3,0.4-1c0.3-0.4,0.5-0.9,0.5-0.9C45.8,9.5,45.7,10.6,45,11.3z"/>
	<path class="st0" d="M40.2,13.5c-1.1-0.2-1.8,0-1.8,0c2.2-4.2,6.9-6.9,7.7-7.1C46,6.4,41,9.5,40.2,13.5z"/>
	<path class="st0" d="M50.2,5.6c-1.9,0.4-2.6,0.9-3,1.2c0,0,0.8-1,2.1-1.5c1.5-0.5,2.5-0.4,4-1.6C53.2,3.8,52.6,5.1,50.2,5.6z"/>
	<path class="st0" d="M38.5,17.3c-0.6,0.9-1.1,1.9-1.4,3.2c0,0-0.3-0.5-0.3-1.3c0-0.5,0.1-1.3,0.1-1.3s-0.7,0.5-0.8,1.4
		c0,0-0.3-0.4-0.3-1.2c0-0.5,0.2-1.3,0.3-1.5c0,0-0.3,0-0.9,0.6c-0.3,0.3-0.3,0.4-0.3,0.4c0-1,1.2-3.8,4.6-3.8
		c0.5,0,1.3,0.1,1.7,0.6c0,0-0.3,0-0.4,0c-0.2,0-0.7,0-1,0c-0.1,0-0.5,0-0.5,0c0,0.2,0.4,0.5,0.5,0.5c0.2,0,0.8-0.4,0.9-0.4
		c1.1,0,1.4,0.5,1.4,0.5C40.8,15.2,39.5,16,38.5,17.3"/>
	<path class="st0" d="M7,40.5c0,1.2-0.1,1.9-0.1,3.7v2.8c0,0.1,0.1,0.2,0.2,0.2c1.5,0,2.3,0,2.9-0.1v1.6H5.2v-8.3H7z"/>
	<path class="st0" d="M13.5,44.9v-0.1c0-0.3-0.3-0.6-0.7-0.6c-0.6,0-1.2,0.1-1.9,0.4V43c0.7-0.2,1.3-0.3,2-0.3c1.4,0,2.3,0.6,2.3,2
		c0,0.9,0,1.7,0,2.6c0,0.5,0,1.1,0.1,1.4c-1.1,0-1.6,0.2-2.5,0.2c-1.5,0-2.3-0.6-2.3-1.8C10.4,45.9,11.4,45,13.5,44.9z M13.5,46.1
		c-0.8,0-1.4,0.3-1.4,0.8c0,0.4,0.3,0.6,0.7,0.6c0.4,0,0.6-0.1,0.6-0.2C13.4,47.2,13.5,46.8,13.5,46.1z"/>
	<path class="st0" d="M23.9,40.5c0,1.2,0,2,0,3.8v4.1c-1.6,0-1.8,0.6-3.3,0.6c-1.6,0-3.1-0.8-3.1-2.8v-5.7h1.8c0,0.5,0,2.6,0,3.8
		v1.8c0,1,0.7,1.3,1.6,1.3c1,0,1.4-0.4,1.4-0.6v-6.3H23.9z"/>
	<path class="st0" d="M27.3,44.7v4.1h-1.7v-5.7c1.2,0,1.4-0.3,2.7-0.3c1.2,0,2.2,0.6,2.2,2.1v3.9h-1.7v-3.7c0-0.6-0.4-0.8-0.9-0.8
		C27.6,44.3,27.3,44.4,27.3,44.7z"/>
	<path class="st0" d="M33.9,41.2c0,0.6-0.4,1-1,1c-0.6,0-1-0.4-1-1c0-0.5,0.4-0.9,1-0.9C33.5,40.3,33.9,40.7,33.9,41.2z M33.8,43
		c0,1.6-0.1,4.2-0.1,5.8h-1.7V43H33.8z"/>
	<path class="st0" d="M36.4,48.8L34.3,43h1.9c0.3,1.1,0.5,1.9,0.9,3.1c0.1,0.1,0.1,0.3,0.2,0.3c0.1,0,0.1-0.2,0.2-0.4l1-3h1.7
		c-0.7,1.7-1.6,4.2-2.1,5.8H36.4z"/>
	<path class="st0" d="M42.2,46.3c0,0,0,0.1,0,0.1c0,0.6,0.5,1.2,1.3,1.2c0.5,0,1.1-0.1,1.6-0.3v1.5c-0.6,0.2-1.2,0.2-1.7,0.2
		c-1.8,0-3.1-0.9-3.1-3.1c0-1.9,1.2-3.1,2.9-3.1c1.6,0,2.3,1.1,2.3,2.5c0,0.2,0,0.5-0.1,0.9H42.2z M43.7,45c0.2,0,0.3-0.1,0.3-0.2
		c0-0.4-0.2-0.6-0.7-0.6c-0.4,0-0.8,0.2-0.9,0.8H43.7z"/>
	<path class="st0" d="M46.7,48.8V43h1.6v0.5c0.4-0.5,0.9-0.7,1.5-0.7c0.2,0,0.4,0,0.6,0.1v1.7c-0.2-0.1-0.7-0.2-1.1-0.2
		c-0.4,0-0.9,0.2-0.9,0.6c0,0.9,0,2.4,0,3.8H46.7z"/>
	<path class="st0" d="M53.1,42.8c0.5,0,0.9,0,1.5,0.2v1.6c-0.6-0.3-1.1-0.3-1.5-0.3c-0.3,0-0.6,0.1-0.6,0.3c0,0.7,2.3,0.7,2.3,2.5
		c0,1-0.7,1.9-2.4,1.9c-0.5,0-1.1,0-1.6-0.2v-1.5c0.5,0.2,1.1,0.3,1.5,0.3c0.5,0,0.8-0.2,0.8-0.4c0-0.8-2.3-0.7-2.3-2.4
		C50.8,43.5,51.7,42.8,53.1,42.8z"/>
	<path class="st0" d="M58.7,44.9v-0.1c0-0.3-0.3-0.6-0.7-0.6c-0.6,0-1.2,0.1-1.9,0.4V43c0.7-0.2,1.3-0.3,2-0.3c1.4,0,2.3,0.6,2.3,2
		c0,0.9,0,1.7,0,2.6c0,0.5,0,1.1,0.1,1.4c-1.1,0-1.6,0.2-2.5,0.2c-1.5,0-2.3-0.6-2.3-1.8C55.6,45.9,56.6,45,58.7,44.9z M58.7,46.1
		c-0.8,0-1.4,0.3-1.4,0.8c0,0.4,0.3,0.6,0.7,0.6c0.4,0,0.6-0.1,0.6-0.2C58.7,47.2,58.7,46.8,58.7,46.1z"/>
	<path class="st0" d="M63.5,39.6c0,1.6,0,2.9,0,4.6v4.6h-1.7v-9.2H63.5z"/>
</g>
</svg>
